<svg id="Capa_1" enable-background="new 0 0 512.003 512.003" height="512" viewBox="0 0 512.003 512.003" width="512" xmlns="http://www.w3.org/2000/svg"><g><path d="m165.46 173.238-98.141.011-.012-112.176c-.001-8.81 7.14-15.952 15.949-15.953l66.239-.007c8.81-.001 15.952 7.14 15.953 15.949z" fill="#e0b799"/><path d="m165.449 73.601-98.137 35.732.008 63.916 98.14-.011z" fill="#d1986f"/><path d="m82.941 133.352h346.145v333.52h-346.145z" fill="#e0b799"/><path d="m82.945 290.101h346.145v88.385h-346.145z" fill="#d1986f"/><ellipse cx="82.954" cy="422.698" fill="#eed076" rx="44.193" ry="44.192" transform="matrix(.707 -.707 .707 .707 -274.596 182.463)"/><ellipse cx="82.945" cy="334.313" fill="#f6ee86" rx="44.193" ry="44.192" transform="matrix(.209 -.978 .978 .209 -261.32 345.565)"/><ellipse cx="82.935" cy="245.928" fill="#eed076" rx="44.193" ry="44.192" transform="matrix(.707 -.707 .707 .707 -149.606 130.674)"/><ellipse cx="429.099" cy="422.66" fill="#eed076" rx="44.193" ry="44.192" transform="matrix(.707 -.707 .707 .707 -173.185 427.213)"/><ellipse cx="429.09" cy="334.275" fill="#f6ee86" rx="44.192" ry="44.193" transform="matrix(.591 -.807 .807 .591 -94.205 482.665)"/><ellipse cx="429.08" cy="245.89" fill="#eed076" rx="44.193" ry="44.192" transform="matrix(.885 -.465 .465 .885 -65.123 227.585)"/><path d="m82.926 133.352h346.145v68.365h-346.145z" fill="#d1986f"/><path d="m323.785 466.864-135.506.015-.016-147.649c-.002-16.083 13.035-29.122 29.117-29.124l77.264-.009c16.083-.002 29.122 13.035 29.124 29.117z" fill="#fbf1cf"/><path d="m188.277 428.071h135.506v38.8h-135.506z" fill="#eed076"/><path d="m481.212 148.653-190.944-69.474c-22.143-8.057-46.417-8.054-68.558.008l-190.929 69.516c-13.979 5.09-23.282 18.379-23.28 33.256l.003 24.785c.001 12.703 12.627 21.541 24.563 17.195l216.17-78.707c5.012-1.825 10.507-1.826 15.52-.002l100.062 36.407.005 40.475c.002 18.02 14.612 32.626 32.631 32.624 18.02-.002 32.626-14.612 32.624-32.631l-.002-16.724 50.868 18.508c11.938 4.344 24.561-4.498 24.56-17.201l-.003-24.785c-.003-14.876-9.31-28.163-23.29-33.25z" fill="#fbf1cf"/><path d="m182.261 93.55-151.48 55.153c-13.979 5.09-23.282 18.379-23.28 33.256l.003 24.785c.001 12.703 12.627 21.541 24.563 17.195l163.813-59.644c-10.561-15.401-18.233-43.364-13.619-70.745z" fill="#f5e2a2"/><path d="m512 181.903c-.002-17.962-11.345-34.157-28.224-40.298l-27.405-9.971c-3.895-1.418-8.196.592-9.612 4.483-1.416 3.893.591 8.196 4.483 9.612l27.405 9.971c10.976 3.993 18.351 14.524 18.353 26.204l.003 24.784c0 7.523-7.457 12.716-14.495 10.152l-50.868-18.508c-4.884-1.777-10.064 1.843-10.064 7.049l.002 16.724c.002 13.887-11.236 25.128-25.125 25.13-13.855.001-25.129-11.269-25.13-25.125 0-4.599-.003-34.399-.005-40.475 0-3.153-1.973-5.969-4.936-7.047l-100.062-36.404c-6.659-2.423-13.993-2.422-20.65.002l-216.17 78.706c-7.054 2.57-14.497-2.642-14.497-10.149l-.003-24.785c-.002-11.68 7.371-22.212 18.347-26.208l190.93-69.517c20.449-7.446 42.975-7.448 63.427-.007l130.34 47.423c3.899 1.419 8.196-.592 9.612-4.483 1.416-3.893-.591-8.196-4.483-9.612l-130.34-47.423c-23.76-8.646-49.93-8.642-73.688.008l-46.193 16.819-.003-27.897c-.002-12.959-10.489-23.448-23.451-23.448-9.916.001-56.402.006-66.241.007-12.932.001-23.45 10.523-23.449 23.454l.008 69.076-31.601 11.506c-16.879 6.145-28.217 22.343-28.215 40.304l.003 24.784c.002 17.29 16.732 29.737 33.336 24.669-6.653 22.723 2.873 46.6 22.784 58.726-33.212 20.241-33.09 68.263.079 88.396-8.425 5.105-15.41 12.575-19.822 21.715-1.801 3.73-.236 8.214 3.494 10.015 3.732 1.802 8.214.234 10.014-3.494 10.796-22.363 40.914-28.113 59.01-10.021 14.34 14.338 14.345 37.549.005 51.892-11.673 11.674-26.048 10.77-25.948 10.75-15.197 0-28.608-9.138-34.165-23.28-1.515-3.854-5.867-5.752-9.724-4.237-3.854 1.515-5.752 5.868-4.237 9.724 7.828 19.922 26.718 32.794 48.126 32.794 10.261-.001 323.795-.036 346.151-.039 13.808-.001 26.788-5.38 36.551-15.145 23.666-23.672 18.95-63.284-9.745-80.759 33.137-20.195 33.141-68.161-.01-88.355 19.788-12.055 29.468-35.878 22.771-58.73 16.599 5.063 33.332-7.384 33.33-24.676zm-428.742-129.283 66.238-.007c4.68 0 8.452 3.788 8.452 8.45l.003 33.357-83.137 30.27-.008-63.617c0-4.661 3.792-8.453 8.452-8.453zm167.544 99.66c3.351-1.22 7.041-1.22 10.39-.001l95.127 34.611.001 7.314-220.732.025zm-197.392 71.87 38.13-13.883c16.384 3.925 28.085 18.618 28.087 35.658.002 20.28-16.407 36.694-36.688 36.696h-.005c-29.876 0-47.474-34.138-29.524-58.471zm29.53 146.856c-20.228-.002-36.685-16.459-36.688-36.689-.002-20.232 16.456-36.694 36.688-36.696.513.103 14.402-.799 25.947 10.744 22.68 22.676 7.398 62.155-25.947 62.641zm36.423 88.381c20.395-20.24 20.394-53.138-.008-73.385l61.415-.007c.001 10.994.007 62.626.008 73.385zm61.4-140.157.006 51.764-61.415.007c19.867-19.716 20.899-52.584-.008-73.385l68.473-.008c-4.581 6.238-7.057 13.739-7.056 21.622zm-61.419-36.613c20.578-20.422 20.192-53.334-.003-73.385l236.98-.026.001 12.909c.001 15.82 9.209 29.527 22.543 36.055 2.295 9.508 7.12 17.869 13.694 24.417-15.946.001-257.303.028-273.215.03zm76.419 36.612c-.002-11.945 9.665-21.62 21.615-21.623 4.431 0 72.617-.008 77.271-.009 11.919 0 21.619 9.698 21.62 21.618l.012 101.349-120.506.013c-.003-19.284-.01-81.105-.012-101.348zm.015 140.149-.003-23.8 120.506-.013.003 23.8zm135.49-140.165c-.001-8.082-2.639-15.556-7.091-21.62l68.538-.008c-20.438 20.265-20.419 53.141.009 73.385l-61.45.007zm.016 140.15-.008-73.385 61.414-.007c-20.571 20.415-20.218 53.304.043 73.385zm123.764-10.76c-11.673 11.674-26.049 10.77-25.949 10.75-20.229-.001-36.689-16.458-36.691-36.689-.001-9.801 3.815-19.016 10.744-25.947 14.324-14.326 37.548-14.345 51.891-.005 14.34 14.338 14.345 37.547.005 51.891zm10.734-114.333c.002 20.233-16.456 36.694-36.689 36.697-.002 0-.001 0-.004 0-20.229 0-36.69-16.459-36.692-36.689-.002-20.232 16.456-36.694 36.689-36.697h.004c20.229.001 36.689 16.459 36.692 36.689zm-36.698-51.688c-.002 0-.002 0-.004 0-14.351 0-26.868-8.115-32.891-20.352 10.894.075 21.049-4.159 28.638-11.749 14.494-14.498 11.32-31.633 11.749-34.389l22.024 8.013c17.96 24.332.361 58.474-29.516 58.477zm-137.216 88.92c-3.855 0-6.98 3.126-6.98 6.982 0 3.855 3.126 6.98 6.982 6.98 3.855 0 6.98-3.126 6.98-6.982-.001-3.856-3.127-6.981-6.982-6.98z"/></g></svg>