<svg id="Layer_1" enable-background="new 0 0 512 512" height="512" viewBox="0 0 512 512" width="512" xmlns="http://www.w3.org/2000/svg"><path d="m136 7.5c-33.137 0-60 26.863-60 60v377c0 33.137 26.863 60 60 60h160v-497z" fill="#4c5659"/><path d="m436 444.5v-377c0-33.137-26.863-60-60-60h-80c-66.274 0-120 53.726-120 120v257c0 66.274 53.726 120 120 120h80c33.137 0 60-26.863 60-60z" fill="#676f72"/><path d="m301 82.5c0 8.284-6.716 15-15 15h-60c-8.284 0-15-6.716-15-15 0-8.284-6.716-15-15-15h-30c-16.569 0-30 13.431-30 30v317c0 16.569 13.431 30 30 30h180c16.569 0 30-13.431 30-30v-317c0-16.569-13.431-30-30-30h-30c-8.284 0-15 6.716-15 15z" fill="#53a3ec"/><path d="m176 127.5c0-21.858 5.847-42.349 16.058-60h-26.058c-16.569 0-30 13.432-30 30v317c0 16.568 13.431 30 30 30h26.058c-10.211-17.651-16.058-38.142-16.058-60z" fill="#4293dd"/><path d="m279.797 324.348h-8.94c5.115-4.767 20.071-18.705 25.143-23.432l-24.375-24.375-48.661 52.215c-2.468 2.66-3.959 6.236-3.911 10.151.099 8.099 6.745 14.584 14.843 14.485h14.296l-30.903 38.03c-1.861 2.29-1.69 5.617.397 7.704 2.084 2.084 5.404 2.258 7.695.405l62.826-50.84c3.014-2.465 5.006-6.235 5.057-10.433.093-7.53-5.937-13.818-13.467-13.91z" fill="#ffce71"/><path d="m307.837 236.915c-4.759-23.376-32.778-33.863-51.981-19.081-19.297-14.736-47.294-4.152-51.912 19.338-6.995.974-13.448 4.164-18.51 9.219-19.798 19.78-6.691 54.635 23.067 54.608l95.015-.084c18.971-.016 32.484-14.863 32.484-31.905v-.431c-.15-16.208-12.389-29.561-28.163-31.664z" fill="#efedee"/><circle cx="256" cy="52.5" fill="#313d40" r="15"/><path d="m376 0h-240c-37.22 0-67.5 30.28-67.5 67.5v16.536c0 4.143 3.357 7.5 7.5 7.5s7.5-3.357 7.5-7.5v-16.536c0-28.948 23.552-52.5 52.5-52.5h240c28.948 0 52.5 23.552 52.5 52.5v377c0 28.948-23.552 52.5-52.5 52.5h-240c-28.948 0-52.5-23.552-52.5-52.5v-330.464c0-4.143-3.357-7.5-7.5-7.5s-7.5 3.357-7.5 7.5v330.464c0 37.22 30.28 67.5 67.5 67.5h240c37.22 0 67.5-30.28 67.5-67.5v-377c0-37.22-30.28-67.5-67.5-67.5z"/><path d="m218.5 82.5c0-12.406-10.094-22.5-22.5-22.5-32.88 0-32.811-.251-37.891.839-17.157 3.678-29.609 19.097-29.609 36.661v317c0 20.678 16.822 37.5 37.5 37.5h180c20.678 0 37.5-16.822 37.5-37.5v-17.883c0-4.143-3.357-7.5-7.5-7.5s-7.5 3.357-7.5 7.5v17.883c0 12.406-10.094 22.5-22.5 22.5h-180c-12.406 0-22.5-10.094-22.5-22.5v-317c0-10.539 7.467-19.789 17.755-21.995 3.24-.695 2.688-.505 34.745-.505 4.136 0 7.5 3.364 7.5 7.5 0 12.406 10.094 22.5 22.5 22.5h60c12.406 0 22.5-10.094 22.5-22.5 0-4.136 3.364-7.5 7.5-7.5h30c12.406 0 22.5 10.094 22.5 22.5v269.117c0 4.143 3.357 7.5 7.5 7.5s7.5-3.357 7.5-7.5v-269.117c0-20.678-16.822-37.5-37.5-37.5h-30c-12.406 0-22.5 10.094-22.5 22.5 0 4.136-3.364 7.5-7.5 7.5h-60c-4.136 0-7.5-3.364-7.5-7.5z"/><path d="m303.523 308.416c22.417-.02 39.977-17.519 39.977-39.907-.166-17.922-12.594-33.463-29.649-38.026-8.048-23.609-36.137-34.226-58.01-21.639-21.99-12.555-50.05-1.77-57.948 21.924-6.694 1.814-12.762 5.327-17.759 10.318-24.444 24.423-8.155 67.416 28.336 67.414h.039l23.101-.021-14.143 15.176c-12.839 13.837-3.436 36.231 14.991 37.208l-20.99 25.831c-4.298 5.291-3.904 12.916.915 17.736 4.812 4.81 12.427 5.211 17.717.931l62.856-50.864c12.44-10.173 9.427-29.65-4.926-35.901l10.918-10.176zm-95.028-14.916c-.009 0-.018 0-.026 0-23.188 0-32.729-26.821-17.734-41.802 3.893-3.888 8.819-6.342 14.246-7.098 3.168-.441 5.707-2.844 6.324-5.982 3.556-18.088 25.16-26.155 40-14.823 2.696 2.06 6.439 2.052 9.126-.018 14.763-11.362 36.395-3.358 40.058 14.634.638 3.132 3.19 5.516 6.358 5.938 12.232 1.63 21.541 12.076 21.653 24.229 0 14.147-10.743 24.825-24.99 24.838zm62.361 38.348 8.849-.001c5.617.071 8.294 7.326 3.785 11.015l-49.866 40.353 20.389-25.092c3.976-4.89.484-12.229-5.82-12.229l-14.388.001c-6.302.082-9.581-7.464-5.354-12.024l23.678-25.408 24.796-.022-11.183 10.421c-4.973 4.637-1.673 12.986 5.114 12.986z"/><path d="m278.5 52.5c0-12.406-10.094-22.5-22.5-22.5s-22.5 10.094-22.5 22.5 10.094 22.5 22.5 22.5 22.5-10.094 22.5-22.5zm-30 0c0-4.136 3.364-7.5 7.5-7.5s7.5 3.364 7.5 7.5-3.364 7.5-7.5 7.5-7.5-3.364-7.5-7.5z"/><path d="m222 253.322c-4.143.001-7.499 3.358-7.5 7.501v10c0 4.142 3.358 7.499 7.5 7.5 4.145-.002 7.499-3.359 7.5-7.501v-10c0-4.142-3.358-7.5-7.5-7.5z"/><path d="m290 253.322c-4.143.001-7.5 3.358-7.5 7.5v10c0 4.143 3.358 7.5 7.5 7.501 4.149-.002 7.5-3.363 7.5-7.5v-10c0-4.142-3.357-7.501-7.5-7.501z"/><path d="m271.737 261.821c-3.736-1.791-8.215-.207-10.002 3.529-2.025 4.232-8.43 4.266-10.468.002-1.788-3.737-6.266-5.317-10.001-3.531-10.435 4.99.046 21.72 15.233 21.72h.004c7.994 0 15.359-4.6 18.764-11.718 1.787-3.736.207-8.215-3.53-10.002z"/><path d="m311 173.5c4.13 0 7.5-3.36 7.5-7.5 0-4.141-3.37-7.5-7.5-7.5h-80c-4.141 0-7.5 3.359-7.5 7.5 0 4.14 3.359 7.5 7.5 7.5z"/><circle cx="201" cy="166" r="7.5"/></svg>