<?xml version="1.0" encoding="utf-8"?>
<!-- Generator: Adobe Illustrator 22.0.1, SVG Export Plug-In . SVG Version: 6.00 Build 0)  -->
<svg version="1.1" id="Layer_1" xmlns="http://www.w3.org/2000/svg" xmlns:xlink="http://www.w3.org/1999/xlink" x="0px" y="0px"
	 viewBox="0 0 435.1 435.1" enable-background="new 0 0 435.1 435.1" xml:space="preserve">
<g>
	<g>
		<path fill="#453421" d="M347.7,143c-4.5,14.2-9.1,28.3-18.4,40.4c-3.1,4-4.1,8.9-1.4,14c1.4,2.7,2,6,1,8.7c-3,8.4-3,16.9-3.1,25.6
			c-0.2,13.8-7.9,23.5-18.2,31.7c-7.3,5.8-12.5,12.9-14.3,22.5c-1.3,7-6.1,12-13.3,13.6c-9.3,2.1-11.8,9-12.4,17.1
			c-0.4,4.7-0.3,9.4,0,14.1c0.5,8.3-4.1,13.4-11,15.8c-5.9,2-6.7,4.7-4.6,9.9c1,2.5,1.5,5.3,0.1,8c-1.7,2.5-3.1,2-4.1-0.5
			c-1-2.5-0.7-5.3-2.5-7.6c-2.3-3-3.5-7.7-8.9-5.1c-2.5,1.1-4.2,3.4-6.2,5.1c-7.7,6.2-15.7,4.8-20.9-3.6c-1.1-3.8-1.3-7.9-3.2-11.4
			c-0.8-3.9-6.4-2.8-6.9-7c3.5-5.3,7.2-2.1,10.6,0.1c2.8,1.8,4.1,4.9,4.7,8.1c0.9,4.5,2.2,9.2,7,10.3c4.6,1,6.2-4,8.9-6.6
			c1.1-1,2.3-1.7,3.6-2.2c3.3-2,7.5,2.2,10.4-1.7c1.4-2.6,3.5-3.1,6-1.9c1.9,1,3.6,0.9,5.2-0.8c3.8-3.7,5.1-8.2,5-13.4
			c-0.1-4.2-0.4-8.4,0.1-12.5c1.2-9.6,4.8-17.6,15.4-20.2c4-1,6.9-3.7,9.5-6.6c2.4-3.7-1.2-9.3,3.9-12.2c1.4-4.3-2-3.8-4.2-3.9
			c-15.6-0.7-28-16-32-31.8c2.2-6.1,3.3-6.5,7.9-2.9c2.5,2,4.6,4.6,7.5,6c0.9,0.6,1.7,1.4,2.1,2.5c-4,8.5,2.3,11.7,7.8,15.3
			c6.2,1.3,11.9,6.3,18.7,2.1c2.9-1.7,5.6-3.6,7.9-6.2c7.4-5.2,10.3-13.6,14.5-21c3.5-4.6,2.8-9.5,0.7-14.4c-1.1-2.5-1.9-5-3.1-7.4
			c-0.2-0.7-0.2-1.4-0.1-2.1c0.5-1.4,1.7-2.3,2.8-3.2c3.4-3.6,1.7-7-0.7-10c-3.3-4.1-2.6-7.7,0.3-11.4c3.4-4.3,6.3-8.9,9.1-13.6
			c5.1-7.8,7.6-16.8,11.5-25.1c1.7-3.2,4.3-6.2-0.5-9.2c-2.4-1.5-1.2-3.3,0.5-4.7c2.8-1.1,5.6-1.6,8.6-1.2
			C353.9,136.6,347.5,139.4,347.7,143z"/>
		<path fill="#362C1F" d="M141.6,294.2c-10.1-7.2-16.8-15.9-13.8-29.4c0.5-2.2-0.3-5-1.4-7.1c-8.6-16.8-17.5-33.5-26.2-50.3
			c-1.4-2.3-2.4-4.8-3.1-7.4c-0.2-2.1,0-4,2.3-4.9c2.5-0.1,4.7,0.7,6,3c1.1,7.3,6.3,13,8.1,20c1.2,4.4,8,3.3,8.5,8.5
			c2.7,5.1,6.3,9.6,9.4,14.4c1.4,2.9,5.7,5,2.4,9.2c-3,2.6-1.7,5.1-0.1,7.8c1.7,2.8,4.2,4.8,6,7.4c0.7,1.4,1.2,2.7-0.2,4
			c-6,5.4-6.2,8-1.5,14.3c1.9,2.6,4.3,4.8,7.1,6.3c2.1,1.5,4.7,2.5,4.5,5.8C145.9,300.5,143.9,296.6,141.6,294.2z"/>
		<path fill="#3B3B3B" d="M218.2,405.5c-11.6,3.3-19.7-1-26.4-10.8c-12.1-17.6-21.4-36.5-29.6-56.1c-4.7-11.3-9.7-22.5-14.6-33.7
			c-1.3-3.9,0.6-4,3.4-2.7c10,13.5,15.4,29.3,22.3,44.3c1.4,3.1,2,6.8,6.1,7.8c6.7,2.4,1.8,7.6,2.7,11.3c6.9,11.5,12.3,24,22.5,33.4
			c2.2,1.8,4.6,2.6,7.4,1.6c1.4-0.3,2.7-0.3,4.1,0.1C217.9,401.7,221.1,402.3,218.2,405.5z"/>
		<path fill="#45342B" d="M341.8,65.7c8.5,1.5,15.7,6.5,23.8,9.1c18.5,14.2,17.7,42.3-4.3,56.4c-5.2,3.3-10.6,6.1-13.6,11.8
			c-1.5-3.8,3.6-6.7,1.4-10.5c2-5.4,8.1-6.3,11.6-10c5.8-4.7,9.5-10.9,10.4-18.1c1.1-9-2.4-16.5-10.3-21.3c-4-2.4-7.9-5-12.1-7.1
			c-4.6-2.6-10.2-3-14-7.2C334.7,64.3,334.7,64.3,341.8,65.7z"/>
		<path fill="#5D572C" d="M218.2,405.5c1.4-2.3-1.5-2.4-1.9-3.8c-0.5-0.7-0.5-1.3,0-2c10.2-1.8,15.3-7.5,15.2-18.2
			c-0.1-5.8,5-9.4,8.9-13.1c3.4-3.2,5.7-6.7,4.9-11.6c0.2-0.7,0.5-1.3,1.1-1.8c2.6,1.7,3.2,4.2,2.9,7c-0.2,2.3,0.5,3.3,2.9,2.3
			c-0.8,4.2-3.8,6.7-6.9,9.1c-4.8,3.7-7.2,8.5-7.8,14.5C236.3,399.4,230.2,404.9,218.2,405.5z"/>
		<path fill="#45444C" d="M150.8,303.1c-2-1-3.2-0.6-3.3,1.8c-2-3.6-4-7.1-6-10.7c2.4,0.5,4.2,4.5,7.1,1.1c0.6-0.4,1.3-0.4,1.9-0.1
			C152,297.8,152.6,300.4,150.8,303.1z"/>
		<path fill="#E5A786" d="M361,123.9c-3.3,3.9-7.9,5.9-12,8.6c-2.5,2.5-5.9,1.2-8.8,1.8c-5.5,3.8-10.4-1.2-15.6-1.2
			c-9.4-3.3-17.1-9.4-24.6-15.8c-0.4-0.6-0.6-1.2-0.6-2c2-3.3-1-5.7-1.5-8.6c0.8-3,2.7-4.9,5.9-4.6c3.7,0.3,3.6,3.6,4,6.2
			c0.5,2.8,1,5.7,4.3,6.3c2.9,0.6,4.1-2.1,5.9-3.8C324,105.5,330,100,334,92.7c3-5.4,1-10.6-0.5-15.5c-1.1-3.5-6.1-3.4-8.1-0.1
			c-1.4,2.4-3.1,3.8-5.5,4.6c-1.6,0.6-3.2,1-4.5,2.1c-2.5,1.8-3.7,4.5-5.4,6.9c-2.3,3.2-6.1,4.3-7.8,0.8c-4.1-8.4-9.9-5.9-16-3.8
			c-0.7,0-1.4-0.2-2.1-0.4c-2.8-1.6-6-2.4-9-3.5c-2-0.8-3.4-2.1-2.9-4.5c0.5-2.4,2.5-3,4.6-2.9c8.9,0.7,17.7-1.8,26.6,0
			c2,0.4,3.9,0.3,5.6-1.1c2.4-1.9,4.2-3.7,0.6-6.3c-1.6-1.2-4.7-2.1-3.2-4.8c1.2-2.1,4.1-2,6.1-1.1c10.8,4.9,23.2,4.9,33.5,11.1
			c4.6,4.4,8.6,9.3,14,13.1c6.3,4.3,8.8,20.2,5,27.2C363.4,117.5,361.6,120.4,361,123.9z"/>
		<path fill="#EBC930" d="M341.7,147.8c-4,8.5-5.4,18.2-11.8,25.6c-4.6,5.7-9.3,11.4-12.4,18c-1.9,4.1-3.5,3.8-6.6,2
			c-2-1.2-3.7-4.8-6.6-1.1c-1.5,3.8-1,7.9-2.3,11.7c-0.7,2.1-0.2,5.3-3.9,5.3c-1.8-2-1.4-4.3-1.1-6.6c-1.2,2.3-3.5,2.2-5.6,2.3
			c-1,0-1.9-0.2-2.8-0.5c-1.7-0.7-3.4-2.1-3.2-3.8c0.5-7.3-1.4-15.1,5.3-21.1c3-2.7,5.9-4.2,9.9-3.8c7.3,0.7,13.7-1.2,18.9-6.6
			c4.5-4.6,4.7-8.2,0.1-12.5c-3-2.8-3.7-5.3-0.4-8c4.2-3.6,1.1-5.2-1.8-6c-6.8-2-12.2-6.6-18.7-9c-2.1-0.8-4.1-1.9-5.6-3.6
			c-2.1-2.4-5.2-5.3-3.6-8.4c2-3.7,5.7-1.1,8.7-0.2c6.6,4.4,12.6,9.7,19.7,13.4c5.6,2.2,11.6,0.9,17.4,2.1
			C344.3,138.9,344.8,139.4,341.7,147.8z"/>
		<path fill="#983425" d="M270.1,244.9c-0.5-0.5-1.1-1-1.6-1.5c-5-4.3-11.4-8.3-11.9-15.3c-0.8-12.7,5.4-22.9,14-31.7
			c0.8-0.1,1.5,0,2.2,0.3c1.6,4.2-2.1,6.6-3.3,9.8c-1.1,2.9-3.5,5.3-3.7,8.6c-0.1,1.7-1.3,3.1-1.1,5.6c3.4-4,7.3-5,11.9-3.6
			c5.6,2.1,10.6,4.8,9.6,12.1c-1.3,4.3-4.2,7.1-8.1,9.1c-1.3,0.7-3.9,1.1-2.5,3.5c1.1,1.9,3.4,2.7,5.2,1.5c4.3-2.9,7.2-8.1,13.5-8.1
			c1.2,0,0.8-2.1,0.4-3.2c-1.2-3.5,0.4-6.2,2.5-8.8c1.5-2,3.2-3.7,5.6-4.7c3.8-1.5,7.7,0,12,0.2c-0.1-5.8-2.6-8.6-8-8.8
			c-0.8-0.3-1.3-0.8-1.7-1.5c-0.8-2.8,0.2-4.9,2.8-6.1c2.6-1.1,4.8,0.1,6.7,1.8c1.9,1.7,3.4,3.6,3.1,6.4c0,0.5,0,1,0.2,1.5
			c3.4,7.6,6.7,15.3,2.9,23.8c-3.7,7.9-6.7,16.3-14.8,21c-2-3.2,0.6-5,2.3-7c2.2-2.6,4.9-5,5.4-9.4c-4.1-0.3-7.2-0.1-8.6,4.5
			c-4.5,14.3-8.8,16.2-21.7,9.8c-0.5-0.2-1-0.2-1.4-0.1c1.9,4,3,4.7,8.4,5.9c2.8,0.6,6.1-0.3,8.4,2.2c-7.5,6.4-14-0.7-21-1.6
			C273.3,256.6,274.7,249.4,270.1,244.9z"/>
		<path fill="#553117" d="M317.7,210.6c-1.2-1.5-2.4-3.1-3.7-4.5c-1.5-1.6-2.9-3.7-5.5-2.6c-2.5,1-2.6,3.3-2.6,5.6
			c-0.8,4-4,6.2-6.9,8.5c-4.9,3.7-10.4,3-14.6-1.7c-3.7-4.1-6.2-8.9-7-14.5c-0.3-3.8-1.1-6.7-5.9-4.2c-6.9,6.9-10.3,15.9-13.1,24.8
			c-3,9.6,5.2,15,10.1,21.5c-4.4-0.5-6.1-4.4-9-6.9c-3.9-3.3-4.3-0.8-4.5,2.4c-5.6-4.5-4.7-10.4-3.7-16.4
			c1.8-10.3,7.1-19.5,9.3-29.6c0.4-2.4,1.2-4.6,2.6-6.6c1.6-1.8,3.2-3.7,4.9-5.4c2.6-2.5,5.2-3.4,8.4-0.6c4,3.6,13.5,2.6,10.2,12
			c-1.8,5.1-1.5,9.5,2,13.7c2.2,4.7,6,3.2,9.6,2.4c4.2-5.5,0.7-12.9,4.6-18.5c0.7-0.9,1.7-1.1,2.6-0.8c6.6,1.8,14.8,12.4,15.5,19.8
			C320,209.4,318.9,210,317.7,210.6z"/>
		<path fill="#EACA38" d="M287.8,286.7c-1.9,4.4-5.5,7-9.8,8.4c-10.1,3.1-14.8,8.7-15.4,19.2c-0.2,3.9-0.4,7.9,0,11.8
			c0.6,6.4-1.3,11.6-6.1,15.8c-3.3,1.8-5.3,0-7-2.6c-1.6-10.6-1.1-21.1,1-31.6c0.1-0.5,0.1-1.2,0.4-1.4c7.8-3.6,7.8-13.3,13.9-18.1
			c2.4-1.9,1.9-3.5,0.8-5.7c-1-1.9-3.7-4.3,0.7-5.6c2.7,0.4,4.9,2,7.4,2.7c4.1,2.7,9,1.4,13.3,3.1
			C288.4,283.8,289.4,285,287.8,286.7z"/>
		<path fill="#B33C29" d="M298.5,262.8c-5.7,0.2-11.4-0.1-16.5-3.1c-2.4-1.4-4.8-3.3-2.9-6.5c2.1-3.5,4.5-1.9,6.5,0.4
			c2.7,3.3,6.5,4.3,10,2.6c4-1.9,7.4-4.8,7.4-10.1c0-4.6,6.8-10.1,11.1-9.3c2.2,0.4,2.4,2.3,1.8,4.1c-1,3-2.1,5.9-4.6,8.3
			c-2.3,2.1-5.4,3.8-5.4,7.6C304.4,260,301.4,261.3,298.5,262.8z"/>
		<path fill="#863226" d="M231.4,346.5c-1.8,4.5-4.5,9.2-9.7,8.5c-5.4-0.8-7.9-5.4-8.8-11.2c-1.3-8.8-6.2-11.8-13.2-9.3
			c-0.5,3.2-1.8,5.8-5,7.1c-3.7,0.9-6.2-0.5-7.7-3.9c-0.6-7.7,2.7-12.3,11.1-15.4c3.2,5.2-3.4,6.8-4.1,11.6c3.2-2.5,6.3-4.2,9.9-4.3
			c2.4,0,3.5-1.5,3.2-3.9c-0.3-2.4-0.1-5.1-2.4-6.7c-1.2-0.9-2.2,0.2-3.1,1.1c-1,1.1-1.3,3.6-3.8,2.1c-2.2-3.5-1.1-6.6,1.3-9.5
			c3.9-4.6,8.2-4.1,11.1,1.3c1.1,2,1.5,4.1,1.9,6.3c2.3,12.6,8.7,15.9,20.5,10.8c0.7-0.1,1.4,0.1,2,0.6c-1.1,6.5-4.8,9.1-12.5,8.8
			c-1.6-0.1-3.8-1.8-4.6,0.4c-0.9,2.6,0.3,5.4,2,7.5c1.5,1.8,3.4,1.5,5.3,0.6C227,347.9,228.5,345.1,231.4,346.5z"/>
		<path fill="#B63B29" d="M231.4,346.5c-0.7,0.3-1.4,0.5-1.9,1c-8.5,7.3-12,6.2-14.2-4.9c-0.8-3.9-2-7.6,5-4.4
			c5.9,2.6,11.6,0.4,14.1-6.6c0.7-2.8,2.4-4.4,5.3-3.6c2.5,0.6,3.2,2.8,3.7,5.1c1.4,6.9-0.6,9.6-9.1,11.9
			C233.4,345.5,232.4,346,231.4,346.5z"/>
		<path fill="#D2BB45" d="M262.7,192.7c-1,9.5-6.9,17.4-8.7,26.7c-1.4,6.9-1.6,13.1,1.1,19.5c2,13.9,18.1,30.8,32,30.2
			c5.4-0.2,9.2,0.8,3.7,6.8c-3.9,2.2-7.8,3.5-11.8,0.3c1.5-3,0-4.3-2.7-5.5c-11.7-4.8-18.7-14.1-24-25c-6.5-13.4-3.6-26.5,1.1-39.5
			c1.3-3.7,3.4-7.1,4.6-10.9C258.7,193.2,259.6,190.8,262.7,192.7z"/>
		<path fill="#692F14" d="M250.6,338.9c1,3,3.4,3,5.9,2.9c-2.5,2.7-4.7,1.3-7-0.3c-2.2-1.5-3-0.3-3.4,1.8c-2.3,0.2-3.2-1.7-3.2-3.2
			c0-9.5-3.7-18.9-0.9-28.4c2-2.6,3.6-5.5,6.4-7.4c3.6,2.2,2.1,5.6,2,8.6C250.1,321.6,247.8,330.3,250.6,338.9z"/>
		<path fill="#863226" d="M243.3,310.6c0,8,0,16.1-0.1,24.1c0,3.2,0.2,6.3,2.9,8.6c-0.2,3.2-2.5,3.4-4.7,2.7
			c-2.4-0.8-4.7-1.2-7.1-1.1c3.7-2.4,8.9-3.6,7.4-10c-0.4-1.9,0.3-4.1-1.7-5.4c-2.7-1.8-3.8,1.4-5.7,2.1c0,0-0.3-0.2-0.3-0.2
			c-0.7-7,2.6-13.3,3.9-20C238.3,309.3,240.8,305.8,243.3,310.6z"/>
		<path fill="#CABE4A" d="M321.2,208.8c-2.9-5.5-6.3-10.6-10.4-15.3c-2.1-2.4-4.4-4-7.7-3.7c2.8-3.1,5.4-1.6,7.5,0.8
			c3,3.4,4.3,3.8,7-1c3.2-5.9,6.4-12.3,12.5-16.2c-2.2,4.9-5.1,9.4-8.6,13.5c-3,3.5-3.5,6.2-0.2,10.1
			C324.1,200.4,326.4,204.9,321.2,208.8z"/>
		<path fill="#736025" d="M278.8,274.9c3.8,3,7.9,1.4,12,1c-5.8,2.3,0.3,7.8-3,10.8c-0.5-1-1-2-1.4-3c-4.4-1.4-9.3-0.5-13.4-3
			c-2.6,0.1-4.7-0.7-6.2-2.9c-2.3-5.1-0.4-7.4,4.9-7.3C274.5,271.2,277,272.4,278.8,274.9z"/>
		<path fill="#6A5433" d="M341.7,147.8c2.5-7.5-1-8.6-7.8-9.4c-5.6-0.6-12.4,2-17.1-3.7c4.4-4.2,8.6,1.2,12.6,0.3
			c-1.6-1.2-5.6,0.6-5.7-3.7c5.5,1,10.9,2,16.4,3c0,0.9-0.2,2.5,0,2.6C348.7,139.5,344.3,143.8,341.7,147.8z"/>
		<path fill="#6E3939" d="M270.1,244.9c4,1.5,6.5,3.8,6.1,8.6c-0.2,2.5,0.8,5.2,1.3,7.8c-1.9-1.6-3.5-3.5-5.6-4.6
			C266.1,253.4,264.8,249.7,270.1,244.9z"/>
		<path fill="#5E401C" d="M210.6,352.1c6.1,7.9,13.5,8.3,20.4,0.7c1.8-2,3.7-3.2,6.2-3.7c0.2,0.4,0.3,0.7,0.5,1.1
			c-5.9,11.6-16.3,14.7-27.1,7.9c-1.1-1.2-1.5-2.6-1.2-4.2C209.5,353.2,209.9,352.6,210.6,352.1z"/>
		<path fill="#553117" d="M320.7,235.8c0.7-8.1-0.4-16-2.9-23.8C324.8,220.3,325.9,230,320.7,235.8z"/>
		<path fill="#5E401C" d="M195.5,340.3c1.4-2,2.9-3.9,4.3-5.9c2.2,2.5,7.6,0.6,7.8,5.8c-0.3,0.2-0.6,0.4-0.9,0.5
			c-2.6-0.6-5.2-0.8-7.4,1.3c-0.6,0.3-1.3,0.4-2,0.4C196.3,342.1,195.7,341.4,195.5,340.3z"/>
		<path fill="#5E401C" d="M237.1,349.2c6.2-3,7.1,2.4,9.2,5.8c-0.2,0.2-0.3,0.4-0.5,0.7c-3.9-0.4-6-3.4-8.3-5.9L237.1,349.2z"/>
		<path fill="#5E401C" d="M207.6,340.2c2.5,3.6,2.9,7.7,3,11.9c0,0-0.5,0.4-0.5,0.4c-5.1-3.1-5.4-7.3-2.7-12.1L207.6,340.2z"/>
		<path fill="#373332" d="M98.3,200.5c-10.7-23.7-19.8-48.1-26.9-73.2c-3.1-11-2.9-22.1,1.9-32.8c10-12.7,25.4-12.8,39-17
			c8.1-2.5,16.7-2.7,24.6-6c9.3-1.9,18.4-4.7,27.7-6c2.5-0.4,7.4-4.4,8.4,2.4c-0.4,0.7-0.9,1.3-1.7,1.7c-8.6,2.3-17.7,2.9-26,6.6
			c-14.4,5.7-29.8,8.2-44.5,13.1c-4.6,2-9.7,2.3-14.1,4.9c-1.9,3.9-8.2,3.5-8.6,8.9c-2.7,26.3,8.6,49.3,17.3,72.9
			c2.1,5.8,5,11.3,5.6,17.6c-0.2,0.8-0.6,1.5-1.2,2.1C98,196.9,98.6,198.9,98.3,200.5z"/>
		<path fill="#5C4C45" d="M341.8,65.7c-1.6,1.9-6.8-3.1-6,3.2c-4.8,1.4-9.4-0.5-13.7-1.7c-24.9-6.5-50.3-5.5-75.6-4.3
			c-8.6,0.4-17.3,0.9-25.9,2c-2.9,0.4-6,0.3-8.5-1.7c-0.7-3.8,2.5-2.9,4.2-3.3c9.9-2.1,19.9-1.5,29.9-1.8c-12.3,0.3-24.7,0-36.8,3.3
			c-4.5,1.2-9.8,2-14.1-1.7c23.2-4.7,46.7-5.2,70.2-6c24-0.8,47.4,2.9,70.4,9.4C337.9,63.6,339.8,64.8,341.8,65.7z"/>
		<path fill="#4B3C35" d="M195.2,59.6c15,1.8,29.4-3.9,44.3-2.8c2.7,0.2,5.4,0,8.2,0.6c-11.5,4.7-24.5-0.2-35.8,5.4
			c-10.7,5.2-22.7,4.7-33.9,7.6c-2.1,0.6-4.5,0.2-6.3-1.5c0.4-5.8-4.1-3.1-5.9-2.8c-7.7,1.3-15.4,3.3-23.1,5
			c-1.9,0.4-3.9,0.3-5.9,0.4c11.4-4.8,23.7-6.2,35.7-8.6C180,61.4,187.7,60.7,195.2,59.6z"/>
		<path fill="#634C25" d="M99.9,195.7c0.1-0.5,0.2-0.9,0.3-1.4c2.7-2.9,4.8-6.1,6.1-9.9c1.8-5.2,1.2-9.5-2.9-13.4
			c-4.7-4.5-8.6-9.5-8.6-16.5c-1.1-4.6-1.2-9.2,0.5-13.8c1.8-5,1.4-10.2,0.2-15.3c-0.5-2.9-0.9-5.8,0.7-8.6c0.6-0.7,1.3-1,2.2-0.8
			c2.6,1.3,3.1,3.7,3.4,6.2c0.1,2.2,0.1,4.5,0.1,6.7c0.1,10,1.2,10.8,11.6,8.3c3.6-2,7.9-1.9,11.4-4c8.1-2.2,14.1-8,21.3-11.8
			c2.6-1.4,5.4-2.5,8.2-3.4c2.8-0.7,5.6-0.6,8.4,0c15.3,5,29.2-0.7,43-6.1c11.8-4.7,23.4-5.6,35.1,0.2c10.6,4.2,21.3,3,31.9,0
			c1.2-0.4,2.5-0.6,3.8-0.6c3.7,0.4,9.7-1.5,9.9,3.3c0.2,5.1-6,3.2-9.5,3.8c-2.2,0.3-4.2,1.2-6.2,2.2c-10.3,5.2-20.8,3.6-31.2,0.6
			c-12.1-3.5-23.3-3.6-35.3,1.9c-12.2,5.6-25.5,7.4-39.2,4.7c-6.6-1.3-13.4-1.3-18.8,4.2c-9.4,7.1-19.9,11.9-31.7,13.3
			c-2,0.2-3.9,0.6-5.8,1c-6.8,1.4-7.8,3.4-4.7,9.6c1.8,3.6,4,6.9,6.9,9.6c5.3,4.8,6.9,10.6,5.2,17.4c-3.5,5.5-3.8,13.3-11.5,15.8
			C103.8,196.7,101,197.5,99.9,195.7z"/>
		<path fill="#552A16" d="M132.6,249.4c3.6-4.2-3-4.7-2.7-7.7c2.9-1.8,4.7,0.4,6.5,1.9c3.4,3,7.3,5.1,11.6,6.4
			c5.1,3.5,10,1.6,14.9-0.4c25.8-5.9,36.7-31.9,30.7-55.5c-0.6-2.7-1.5-5.4-2.4-8c-0.9-1.7-1.3-4.9-4.1-3.1c-2.9,1.9,0,4.1,0.7,6.1
			c0.5,1.5,0.7,3,0.8,4.5c0.1,5.2,0.1,10.4,0,15.6c0,1.7,0.1,3.5-0.4,5.2c-0.9,3.3-2.7,6.3-6.6,5.7c-3.7-0.6-4.2-3.9-3.8-7
			c0.7-5.7,0.6-11.4,0.9-17c0.5-10.8-4.2-18.4-13.9-23c-3.3-3.3-7.6-3.9-12-4c-1.4-0.4-3.1-0.6-3.2-2.4c-0.2-1.9,1.6-2.3,3-2.5
			c5.6-0.7,11.1-0.8,16.4,1.4c3.7,1.7,6.1,4.9,9,7.5c3.3,2.9,6.6,4.2,10.2,0.2c3-3.4,4.7-1,6,1.6c1.9,3.7,3.2,7.7,6.2,10.8
			c0.5,0.6,1,1.2,1.4,1.9c3.4,8.6,4,17.4,2.8,26.5c-2.8,12.1-6.6,23.7-16.1,32.6c-5.5,5.1-11.3,9.5-18.6,11.6
			c-3.8,1-7.6,2.1-11.6,2.1c-7.8,0.5-15.1-1.5-22-5C134.1,253.8,132.1,252.3,132.6,249.4z"/>
		<path fill="#EBD13C" d="M104.7,198.9c5.6-3.7,5.6-10.9,10-15.3c1.7-8.9,6.5-15.3,15.2-18.3c5.2-1.8,6.6-0.4,5.9,5.7
			c-11.9,12.9-17.3,28.5-19.2,45.7c-0.4,3.9-0.7,3.9-4.5,2.8C111.1,212.1,103.3,207.2,104.7,198.9z"/>
		<path fill="#653718" d="M112.1,219.5c4.3,1.3,2.9-2.2,3-3.9c1.4-17.2,6.3-32.8,19.2-45c3-3.2,6.3-5.9,10.7-7.2
			c6.1-1.9,12.3-1.3,18.4-1c2.8,0.1,5.4,0.9,6.8,3.7c-0.1,0.4-0.2,0.8-0.3,1.2c-6.3-1.7-12.6-2.1-19.1-1.4c0.2,0.4,0.3,1,0.6,1
			c0.7,0.2,1.5,0.2,2.2,0.2c0.4,1.3-0.2,2.1-1.1,2.8c-12.5,6.1-23.5,13.7-26.5,28.6c-2.7,5.7-3.5,11.6-3.3,17.8
			c0.1,3.5,1,7.4-2,10.4C120.4,221.6,112.7,224.7,112.1,219.5z"/>
		<path fill="#A63F2B" d="M120.8,227c1.1-10-2.8-20.7,4.5-29.8c1.8-0.3,3.5-0.1,4.8,1.4c-0.8,9,1.2,10.7,10.3,8
			c1.4-0.4,2.7-1.1,4.2-0.8c0.5,0.5,0.8,1.2,0.9,1.9c-0.1,1.5-0.8,2.8-1.9,3.8c-4.6,3.1-9.4,4.2-14.5,1.2c-2.3-1.4-4.1-1.7-4.8,1.7
			c-1,4.4,0.3,10.3,3.5,14.4c3.3-0.9,0.5-6.9,5.3-6.5c0.7,0.7,1.1,1.6,1.3,2.6c2.1,8.1,2.7,8.5,10.9,6.1c1.2-0.3,2.4-0.6,3.6-0.1
			c1.6,4-1.6,5-4.1,6.3c-2.2,1.1-4.9,0.6-7.3,2.8c2.9,4.3,7.4,6,11.9,7.6c1.9,0.7,5.5,0.1,3.6,4.1c-1.9,0.9-3.7,0.5-5.4-0.7
			c-7.9,0.7-11.3-7.1-17.7-9.2C126.7,236.9,122.7,232.6,120.8,227z"/>
		<path fill="#6A5823" d="M144.6,291.4c-6.2-2.1-9.6-7.2-11.4-12.6c-1.3-3.8-3.6-10.5,5.3-10.3c1,0,0.4-1.6,0.1-2.4
			c0.4-0.6,1-1.1,1.8-1.3c2.3-0.4,4.4,0.6,6.5,1.3c2.7,1,5.3,0.8,8.1,0.2c2.9-0.6,5.9-0.2,6.7,3.1c0.9,3.9-2.4,4.9-5.2,5.9
			c-4.8,1.7-9.3,0.2-13.9-1c-1.6-0.4-3.6-1.5-4.9,0c-1.6,1.8-0.1,3.7,0.7,5.5c1.6,3.7,5.2,6,6.9,9.6
			C145.3,290.1,145.1,290.7,144.6,291.4z"/>
		<path fill="#655C32" d="M144.6,291.4c0-0.5,0.1-0.9,0.1-1.4c9.9-2.5,18.7,0.4,27,5.8c0.2,3.1-2.2,2.7-3.9,2.6
			c-2.2-0.1-4.2-0.2-6.1,1.1c-4.1-0.1-7.7-1.4-11-3.8c-0.7-0.1-1.4-0.2-2.1-0.4C148.5,292.8,145.7,292.9,144.6,291.4z"/>
		<path fill="#9D9349" d="M140.3,265.6c-0.6,0.1-1.2,0.2-1.7,0.3c-4-2.3-5.9-6.3-8-10c-1.3-2.4-2.8-5.7,2.1-6.5
			c1.1,1.4,2.3,2.8,3.4,4.1C134.2,258.7,140.9,260.9,140.3,265.6z"/>
		<path fill="#FBB040" d="M150.8,295.6c4.3-0.4,7.7,2.4,11.7,3.2c4.8,0.9,5,5.4,6.6,8.7c1.4,2.8,2.3,5.8,3.6,8.7
			c1.9,7.6,6.6,13.6,11.1,19.8c1.6,2.2,2.8,4.6,3.7,7.2c0,5.8-4.2,8.8-8.1,12c-3.6,2.5-4.3-0.1-5.4-2.8c-7.1-16.7-14-33.5-23-49.3
			C151.5,300.6,148.1,298.1,150.8,295.6z"/>
		<path fill="#FBB040" d="M204.3,400.2c-7.2-3.5-9.5-11.1-13.9-16.9c-4.1-5.4-7-11.8-10.4-17.8c-0.3-4,2.3-4,4.8-3.1
			c8.4,3.2,16.9,6.2,17.4,17.6c0.3,5.5,4.6,9.8,6.6,14.9c0.6,2.1,2,4.4,0.1,6.3C207.4,402.7,205.8,400.7,204.3,400.2z"/>
		<path fill="#5B532D" d="M207.3,395.6c-3.4-6.1-7.1-12-8-19.4c-0.9-7.8-13.9-14.4-19.4-10.7c-1.1-1.3-1.2-2.8,0.2-3.9
			c3.2-2.7,1.5-4.6-0.9-6.4c-0.1-5.4,7.3-6.2,7.2-11.6c4,2.4,7.5,2.2,10.5-1.6c0.4,0,0.9,0,1.3,0c1.4,1.1,1.5,2.6,1.1,4.1
			c-1.8,4-5.3,5.6-9.1,7c-4,1.4-3.9,4.5-0.5,5.5c13.7,3.8,17.8,14.3,19.9,26.7c0.9,5.4,6.6,8.8,6.7,14.6c-0.1,0.6-0.1,1.2-0.2,1.8
			c-1.5-0.1-2.9-0.2-4.4-0.2C209.1,400.5,209.3,397.2,207.3,395.6z"/>
		<path fill="#8F958D" d="M207.3,395.6c2.7,1,3,3.9,4.5,5.9c-3.1,3.2-5.5,1.6-7.6-1.2C209.8,401.6,207.7,398,207.3,395.6z"/>
		<path fill="#E3A47D" d="M162.5,119.6c-2.9,0-5.8,0-8.8,0c-4.1-3.1-6.8-2.1-11.4,0.9c-11.4,7.5-22.6,18.2-38.5,11.5
			c-4-3.7-1.5-8.8-3.1-13c1.3-3.1,3.6-1.6,5.5-1c3.3,0.9,5-0.6,6-3.4c0.9-1.9,2.8-2.9,3.8-4.5c3-4.6,1.7-8.1-4.5-12.7
			c0.3-4.6-0.6-8.1-6.5-7.4c-1.9,0.2-3.9,0-5.2-1.8c13-5.2,26.9-7.3,40.2-11.4c1.6-0.5,3.1-1.2,4.7-1.8c8.8-2.8,18-4.1,27-6
			c0,0,0,0.1,0,0.1c13.4-2,26.8-4.1,40.2-6.1c17.6-0.2,35.1-2.7,52.7-3c24.2-0.4,47.8,2.9,71.2,9.1c4.4,1.9,9.2,2.7,13,5.8
			c-0.8,0.8-1.7,0.9-2.6,0.2c-12.3-5.9-26.4-4.8-38.5-11.8c-0.2,0.6-0.4,1.3-0.6,1.9c0.5,0.5,1.1,0.9,1.5,1.4c2.1,2.2,8.7,2.2,6.1,6
			c-2,2.9-4.6,9.6-12.2,5.9c-4-2-9.8-0.9-14.7-0.4c-3.6,0.4-7.1,1.8-10.8,0.1c-1.3-0.6-3.1-0.4-3.6,1.5c-0.5,2,1,2.3,2.5,2.8
			c3.2,1,7,0.8,8.9,4.4c-2.2,2.8-3.6,6.6-8.1,6.4c-7.7-2.6-7.7-2.6-6.3,5.3c1.2,6.9-7,12.7-15.6,10.4c-5.8-1.6-11.6-3.1-17.4-2.1
			c-6.5,1-12.7,0.1-19-0.6c-1.5-0.2-2.9-0.4-3.8-1.8c0.5-3,3.5-3.1,5.4-4.4c2.5-1.7,4-4,2.7-6.8c-1.4-3-3.6-5.5-7.5-3
			c-0.5,0.4-0.9,0.9-1.4,1.3c-2.1,2.4-1.7,4.7-0.2,7.2c0.9,1.5,2.6,3.1,0.8,5.1c-5.5-0.2-9.9,1.8-13.4,6.2c-3.3,4.1-7.6,6.2-13.1,5
			c-2.5-0.5-4.9,0.4-7.2,1.2c-2.6,0.8-6,1.8-7.9,0C166.5,110.2,164.4,114.2,162.5,119.6z"/>
		<path fill="#E1A88E" d="M346.2,74.9c0.9-0.1,1.7-0.1,2.6-0.2c7.5,2.6,14.2,6.5,19.4,12.6c8.1,9.7,6.8,26.9-7.1,36.6
			c-3.2-3.4-0.3-5.8,1.3-8.4c5.8-9.2,2.3-24.1-7.1-29.5C350.7,83.4,348,79.5,346.2,74.9z"/>
		<path fill="#EDCB35" d="M216.4,399.8c-5.3-6.3-9.6-13.3-10.4-21.7c-0.8-8.2-4.8-13.1-12.4-15.6c-1.9-0.6-3.7-1.3-5.4-2.3
			c-1.9-1.1-4.1-2.3-4-4.9c0.1-2.9,2.8-3.6,4.8-3.8c4-0.5,6.7-2.9,9.4-5.4c1.3-2.2,0.9-6.2,5.3-5.5c3.5,0.6,2.6,3.4,3.1,5.7
			c0.9,3.5,1.9,7.1,3.7,10.3c9.7,5.6,14.9,4.9,22.8-2.9c1.4-1.4,2.9-2.7,4.3-4c4.2,0,5.5,4,8.3,5.9c2.6,4.8,1.8,8.7-2.6,12.3
			c-6.5,5.2-11.2,11.1-11,20.6C232.3,396.3,225.4,400.5,216.4,399.8z"/>
		<path fill="#DFA88D" d="M214.9,103c5.7,0.7,11,3.1,17.1,2.2c7.3-1,14.6-1.8,21.8,1.5c5.5,2.4,10.6,1.1,14.4-4
			c1.1-1.5,2.1-2.8,0.6-4.5c-2.1-2.4-5.2-4.8-1.1-7.9c4.1-3.1,7.3-1.5,9.9,2.3c2.1,9.7,3.1,10.8,11.4,11.7c3.3,0.6,6.8,0.8,9.5,3.3
			c2.2,2.2,8.1,3.9,1.3,7.6c-3.4,1.7-7,0.8-9.9-0.6c-4.7-2.2-9.3-2.3-14.2-1.2c-0.9,0.1-1.7,0.2-2.6,0.3c-8.4,2.8-17.2,2-25.8,2.1
			c-2.6,0.1-4.8-0.8-7-2.1c-12.1-4.9-23.7-4-35.7,1.1c-13.3,5.7-27.2,10.7-42,4.8c-2.6-4.7,1.6-7.1,3.6-10.2c1.3-1.9,2.4-0.5,3.1,1
			c0.9,1.7,1.8,4.7,3.7,4.2c8.9-2.4,19.6,2.2,26.9-6.3C204,103.6,208.1,99.6,214.9,103L214.9,103z"/>
		<path fill="#E3A47D" d="M298.4,107.6c-3.5-0.5-7-1.1-10.5-1.6c0.2-3.4,2.9-2.6,4.9-2.8c3.4-0.3,4.6-2.5,4.9-5.4
			c0.3-2.9-1.2-4.1-3.9-5.1c-2.9-1.1-6.8-1.7-7.4-5.9c8.1-5.2,10.4-4.7,15.9,2.9c2.1,2.9,4.4,4.1,6.6-0.1c1.4-2.8,2.7-5.8,5.8-7.3
			c0.5,0.5,0.8,1,1,1.7c-0.2,3.6-0.9,7.3,1.2,10.6c5,2.7,14.7-0.7,15.3-5.7c0.4-3.3-1.2-5.8-4.9-5.8c-3,0-5.9,0.2-8-2.5
			c1-1.7,4.2-1,4.3-3.6c0.2-4,1.3-6.2,5.9-4.6c4.3,1.5,6.8,3.2,7.8,8.9c1.6,8.7-3.1,14-6.8,20c-3.9,6.5-11.3,9.7-16.1,15.7
			c-2.3,2.9-7.8-1.7-8.6-7.1c-0.3-2.3,1.3-5.6-1.9-6.4C301.2,102.8,299.7,105.4,298.4,107.6z"/>
		<path fill="#523A1B" d="M323.8,131.3c2,1.2,4,2.4,6.3,3.7c-4.7,2.8-8.9-2-13.2-0.3c-7.7-1.9-12.9-7.9-19-12.3
			c-1.7-1.2-3.8-1.6-5.3-3.1c-1.1-1.3-2.6-2.6-1.3-4.3c1-1.3,2.7-0.9,4-0.3c1.5,0.7,3.3,0.8,4.7,1.7
			C308.4,120.5,314.9,128,323.8,131.3z"/>
		<path fill="#D29A6E" d="M356.6,108.3c0,6.5-4.6,10.3-13.8,11.1c-5.5,0.4-9.5-2.7-9.7-7.9c-0.2-6.2,3.2-10.7,10.1-11.4
			c0.7-0.1,1.5-0.2,2.1-0.5C353.9,96.4,356.7,98.5,356.6,108.3z"/>
		<path fill="#DB9468" d="M286.5,86.7c3.7,0.8,5.6,4.7,10.5,4.4c3.2-0.2,3.5,4.9,2.8,8c-0.7,2.9-1.5,6.5-5.7,6.1
			c-2.2-0.2-4.2-1.3-6.1,0.7c-9.1-0.5-12.7-5-10.4-13.3c3.2-1.1,3.1-6.3,7.4-6C285.5,86.7,286,86.7,286.5,86.7z"/>
		<path fill="#CB956E" d="M319.3,80.5c3-0.4,5.7,1,9.1,0.2c4.5-1,6.7,5.2,6.1,8.1c-1,4.9-6.3,7.3-10.9,9c-3.3,1.2-6.8,2.1-8.6-2.5
			c1-0.8,2.1-1.2,3.3-1.4c2.9-0.6,6.3-0.9,5.7-5c-0.5-3.5-3.3-4.4-6.5-4.3c-1,0-1.9-0.2-2.6-1c0-0.5-0.1-1-0.1-1.5
			C315.9,80.5,317.7,80.7,319.3,80.5z"/>
		<path fill="#6D5226" d="M300,116.4c-2.6-0.4-5.2-0.7-8.4-1.2c1,1.8,1.7,3,2.4,4.3c-8,0.5-15.9,2.6-23.9-0.1
			c4.2-5,10.6-1.6,16.6-4.2c-4.1-2.6-7.8-1.2-11-1.9c8.3-3.4,16.1,0,24.1,1.8C299.8,115.6,299.9,116,300,116.4z"/>
		<path fill="#EBC12B" d="M270.1,119.4c8-1,15.9-3,23.9,0.1c1.2,1.1,3.3,1.1,3.9,3c-2.5,0.7-4.5-2.1-7.5-0.8
			c1.4,5.1,4.6,8.3,9.4,10.4c6.7,2.9,13.3,6.2,20,9.2c5,2.3,8.5,4.5,0.8,8.2c-3,1.4-3.2,3.4-0.1,5.5c5.9,3.9,6.4,10,1.2,15
			c-5.7,5.5-12.5,8.2-20.5,7.7c-7.5-0.5-11.4,3.6-12.3,11c-0.6,4.8-4.1,9.2-0.8,14.2c1.1,1.5,1.2,2.9-0.1,4.3
			c-3.6-4.8-3.3-10-2-15.6c1.1-4.7,0-8.1-6-7.1c-0.7,0.1-2,0.5-2.1,0.3c-6.4-11.7-9,1.1-13.4,2.1c-1.9-3,0.4-4.9,1.7-7.1
			c3.1-3.2,7.8-4.8,7.9-10.6c0.1-3,3.5-3.7,6.2-4c6.2-0.3,12.2-4.5,18.7-0.2c2,1.3,2.9-1.1,2.6-3c-0.6-3.9,0.4-7.3,2.1-10.7
			c2.3-4.9-2.6-6.8-4.7-9.8c-2-3.3-4.7-2.8-6.7-0.5c-4,4.6-7.5,3-11.7,0.3c-6.2-4-12.1-8.9-21.1-8.8c4.8,12-7.8,14.8-11.7,22.5
			c-1.3,2.6-5.2,2-6.8-0.8c-2-3.4-4.4-3-7.6-2.3c-4.8,1.1-9.7,2.1-14.6,3c-5,0.9-8.5-1-10.5-6c-2.3-5.6-2.9-11.5-4.7-17.2
			c-1.4-4.4-3.7-5.5-7.7-3.6c-8.9,4.3-18.2,4.1-27.7,2.6c-6.1-1-12.3-1.1-18.4,0.8c-1.6,0.5-3.4,1.1-4.9-0.3
			c5.2-7.4,13-6.7,20.3-5.4c15.3,2.6,29.7,0.1,43.3-6.7c8.6-4.3,17.2-4,26-1.4C246.2,121.3,258,124.2,270.1,119.4z"/>
		<path fill="#DFD244" d="M287.9,207.3c0-1.4,0.1-2.9,0.1-4.3c1.7,0,3.5,0.4,5.1,0c5-1.3,5.9,1.2,5.3,5.3
			C294.4,213.8,290.9,213.2,287.9,207.3z"/>
		<path fill="#BF3E29" d="M298.4,223.9c-5.5,4.1,1.4,10.7-1.5,13c-3.1,2.4-9.4-0.5-12.1,5.6c-1.3,2.8-4.2,5.2-8,2.8
			c-1.9-1.2-4.4-1.9-4.3-4.6c0.1-2.3,2.1-3.1,4.1-3.6c3.9-1.1,6-4.2,8.3-7.1c1.1-1.3,0.9-2.8,0.8-4.3c-0.2-3.6,1.3-5.9,5-6
			C293.9,219.6,298.1,218.4,298.4,223.9z"/>
		<path fill="#AA3625" d="M298.4,223.9c-6.7-5.5-9.4-4.3-13.4,6c1.2-7-4.3-9.1-8.9-11.9c5.1-3.4,1.6-6.8-0.7-9.1
			c-3.2-3.2-4.3,1.2-6.1,2.7c-1.6,1.3-2.2,4.1-5.1,3.4c1.1-6.9,5.7-12.1,9-17.9c3.6-2.3,4.3,1.2,6,2.9c1,4.8,2.2,9.3,5.6,13.2
			c5.2,6.1,9.3,6.7,15.2,1.2c2-1.8,4-3.6,6-5.4c0.5,0,1,0.1,1.6,0.1c1,4.5-5.2,6-4.5,10.4C301.4,221,299.9,222.5,298.4,223.9z"/>
		<path fill="#C53927" d="M264.1,215c1.1-1.3,2.2-2.6,3.2-4c7-8.7,6.8-8.6,12.3,0.8c2.7,4.7,1.3,6.2-3.6,6.1c-3,0.3-6.5-1.1-8.7,2.5
			c-1,1.6-2,4.1-4.4,2.6c-2.4-1.5-0.1-3.5,0.4-5.2C263.7,216.9,263.9,216,264.1,215z"/>
		<path fill="#402427" d="M306.2,237.5c-4.3-0.7-7.2-3.1-7.6-7.1c-0.4-4.2,2.7-7.2,6.5-7.7c4.9-0.7,7.3,3.6,7.8,7.4
			C313.5,234.2,309.8,236.2,306.2,237.5z"/>
		<path fill="#352323" d="M282.1,227.7c-0.1,5.6-4.5,5.8-7.9,6.4c-4,0.8-7.1-1.7-6.9-5.6c0.1-3.6,2-7.4,6.5-7.6
			C278.4,220.7,280.5,224.2,282.1,227.7z"/>
		<path fill="#39231F" d="M292.5,254c-3.7-0.8-7.3-2.9-6.7-6.5c0.6-3.1,2.5-8,6.6-7.8c3.5,0.2,7.7,2.5,7.6,7.5
			C300,252.1,296.1,252.8,292.5,254z"/>
		<path fill="#BF3E29" d="M302.9,219.5c-3-0.4-3.2-1.8-1.4-3.9c1.9-2.2,3.9-4.4,5.8-6.6c2.8-1.9,5.7-1.5,6.9,1.3
			c1.3,3,4.1,5.9,3,9.6c-0.5,1.8-2.1,1.9-3.6,1.1C310.3,219.1,306.6,219.5,302.9,219.5z"/>
		<path fill="#883631" d="M279.1,200.1c-2.1-0.7-3.4-3.2-6-2.9c-0.5,0-1,0-1.5-0.1c1.1-2.3,3.1-3.4,5.5-2.7
			C280,195.2,278.8,198,279.1,200.1z"/>
		<path fill="#F1CD37" d="M267.1,180.7c-0.9,2.1-1.8,4.2-2.7,6.3c-0.6,1.9-1.1,3.8-1.7,5.7c-5.2,3.5-5.8,9.8-7.6,14.8
			c-2.6,7.3-5.8,14.8-4.7,23.3c2.7,20.2,13.3,33.8,32.4,40.8c1,0.4,2.6-0.1,2.8,1.9c-1.9,2.2-4.6,0.7-6.8,1.3
			c-2.2-0.4-4.5-0.4-5.9-2.6c-6.9-0.9-11.9-4.7-15.6-10.4c-1.4-2.1-2.7-1-4.3-0.2c-3.2,1.5-5.8,0.9-6.8-2.9
			c-0.3-6.9-5.7-11-8.9-16.3c-1.3-2.2-3.8-3.8-3.6-6.9c2.4-6.9,9.1-11.4,10.1-19.1c0.6-4.8,0.4-9.9,3.7-13.9c4.7-4.1,6.9-9,5.1-15.3
			c0-0.7,0.1-1.4,0.3-2.1c1.2-2.3,2.7-4.3,4.8-5.9c1.7-1,3.5-1.6,5.4-1.6C264.9,178,267.3,177.7,267.1,180.7z"/>
		<path fill="#EAC62E" d="M247.7,258.3c0.5,3.4,2.9,3.6,4.7,1.9c4-3.6,5.6-1.2,7.4,2.1c2.9,5.3,8.5,6.9,13.1,10
			c-5-1.5-6.2,1.3-6.1,5.5c-4.4,1.8-0.2,2.9,0.5,3.8c3.8,5,3,8.5-2.9,9.2c-3.2,0.4-2.8,0.8-2.2,3.2c1.1,4.8-0.4,8.4-5.7,9.1
			c-3.5,0.5-3.8,2.8-4.4,5.7c-2.1,10-1.1,20.1-1.5,30.2c-3.2-4.6-2.7-9.7-2.1-14.9c0.7-6.5,2.5-13.1-0.6-19.5
			c-8.8-2.8-11.8-0.7-13.2,8.6c-0.8,4.9,1,10.9-5.1,14c-1.1-1.2-1.4-2.7-1.6-4.3c-0.1-1.1-0.1-2.3-0.1-3.5c0.2-5.2-0.4-10.4,2.9-15
			c3.5-5,7.6-8.8,14.2-7c4,1.1,5.3-1.1,6.5-4.1c3.2-2.7,3.4,2.5,6.1,2.3c-0.4-6.2-3.8-9.6-9.2-11.1c-5.7-1.6-11.9,0.9-15.1,5.4
			c-3.5,4.9,3.4,2.7,3.3,5.1c-3,8-10.4,12.1-19.5,10.8c-2.9-1.5-5.2-3.3-5.5-6.9c2.7-2.8,2.8-5.5-0.5-8c-3.5-2.7-6.1-2.3-12.3,2.2
			c2,1.3,4.5-0.9,5.9,0.9c0.5,4.1-2.8,5.6-5.3,7.2c-8.5,5.3-13.1,14.3-19.9,21.3c-0.6,0.4-1.3,0.5-2,0.3c-2.1-2.1-2.6-5.1-3.9-7.5
			c-0.3-0.7-0.5-1.4-0.8-2.1c-3.3-9.3-2.7-10.1,6.9-9.7c-1.9-3.1-6.3-3.1-7.9-6.5c-8.3-4.9-17.6-6-27-7c-4.7-3.8-8.9-8-10.3-14.2
			c-1-4.2,0-6.3,5-4.6c5.6,2,11.2,4.1,17.3,2.2c2-0.6,4.4-0.8,4-3.4c-0.4-3-2.9-2.6-5.3-2.2c-3.1,0.6-6.4,1.3-9.4-0.5
			c2.1-2.4,5.2-2.5,8-3c3.4-0.6,4.3-2.7,4.3-5.6c3.8-0.8,7.7-1.6,11.5-2.4c3.9,2.1,7,0.6,9.9-2.1c4.7-4.4,10.6-6.4,16.5-8.6
			c1.7,2.6,3.9,4.7,6.1,7c1.3,3.9,1.6,7.9,2.6,11.9c0.6,2.5,2.3,0.2,3,1.3c1.9,4.5,4.5,5.5,8.1,1.6c1.3-1.4,3-2.5,4.7-3.5
			c7.6-4.6,15-7,21.2,1.7c3.9-2.7,0.6-6.2,2.4-8.6C246.1,255.7,246.8,257.2,247.7,258.3z"/>
		<path fill="#EAC62E" d="M273,280.6c4.5,0.6,9.3,0.5,13.4,3C281.8,283.3,276.7,285,273,280.6z"/>
		<path fill="#583518" d="M230,327c2.3-5.3,2-11.1,2.8-16.6c0.6-4.3,2.5-8.3,7.1-9.7c3.5-1.1,6.3,0.5,7.9,3.9
			c-0.1,3.1,0.3,6.5-4.5,6.1c-4.3-2.5-4.5,1.1-4.5,3.5c0.1,6.3-2.2,11.8-4.7,17.3c-4.5,5.1-10,5.9-15.9,2.9
			c-5.2-2.7-7.8-7.1-7.9-13.1c-0.1-4.3-1.1-10-5.4-9.9c-5.9,0-6.9,5.8-6.6,11.1l-0.1,0.1c-4.3,4.3-11.1,6.9-10.3,14.8
			c-6.4-4.6-10.8-11-10.3-15.2c0.4,0.2,0.8,0.3,1.2,0.5c7.7,1.7,8.8,1.1,12.1-6.5c5.3-12.1,9.6-14.8,19.7-12
			c4.1,3.4,4.2,8.3,5.2,12.9c0.5,1.3,1,2.6,1.6,3.8c2.4,3,1.8,9.1,8.2,8.1C227.1,328.2,228.3,327,230,327z"/>
		<path fill="#3D2C1F" d="M177.8,322.1c-0.5,2.3,0.6,4.3,2.4,5c5,1.8,6.2,6.1,8,10.2c1.7,2.8,4.3,3.5,7.4,3c0.5,0.5,1,1.1,1.5,1.6
			c-0.2,0.7-0.1,1.6-0.5,2.1c-1.6,2.2-3.1,4.8-6.1,4.9c-3.6,0.1-1.3-4.5-3.9-5.4c-4.7-9.1-13.5-15.8-15.1-26.7
			c-0.5-1.2-0.8-2.5,0.4-3.2c1.3-0.8,2.2,0.4,3,1.3C176.2,317.1,177.7,319.3,177.8,322.1z"/>
		<path fill="#B53B29" d="M198.4,322.4c1.9-1,1-3.3,2-4.5c2.1-2.7,4.5-3.8,6.9,0c2.2,3.6,1.6,7.7,2.2,11.5c0.4,2.8-2.8,2-4.5,1.9
			c-3.6-0.2-6.9,0.2-9,3.6c-0.9,1.5-2.2,3.2-4,1.6c-1.8-1.5-1-3.6,0.2-5.3C194.1,328.2,198.2,326.8,198.4,322.4
			C198.4,322.5,198.4,322.4,198.4,322.4z"/>
		<path fill="#C4B54F" d="M210.4,356.6c-3.1-2.2-3-6-4.3-9.1c-0.8-1.9,0.5-4.7-2.6-5.5c-3.6-0.9-3.1,3.2-5.2,4.1c0-1.4,0-2.8,0-4.3
			c2.4-4.3,5.3-5.4,9.1-1.5c0.1,4.2,0.5,8.4,2.7,12.1C210.2,353.9,210.3,355.3,210.4,356.6z"/>
		<path fill="#F7941D" d="M96.8,156c0.4,7,5.3,11.2,9.7,15.8c5.6,5.7,1.6,20-6.3,22.6c-5.7-17.5-13.6-34.2-19-51.9
			c-4.1-13.4-7-26.6-4.9-40.6c2-4.5,4.9-4.9,8.5-1.9c0.5,0.5,1,1,1.4,1.6c1.8,3.4,5.1,5.7,7.3,8.8c0.8,1.2,1.5,2.6,1.9,4
			c1.3,4.4-0.2,9.2,2.3,13.4c0,4.2,0.6,8.5-1.1,12.5C94.1,145.6,94.5,150.8,96.8,156z"/>
		<path fill="#EBAE8C" d="M99.8,88.1c2.2,0,4.4,0.1,6.5,0.1c9.1,0,9.6,0.9,5.4,8.9c-2.4,2.4-6.7,2.6-7.4,6.8
			c-0.6,1.4-0.7,2.9,0.2,4.3c1.7,4,6,4.6,8.9,7c-1.5,10.5-7.3,4-11.7,2.9c-2.8-3.8-3.6-9.2-8.8-11.2c-3.3-2-5.5-5.1-8-7.9
			c-0.5-2-1.6-4.1,0.4-6C90,90.6,94.8,89.2,99.8,88.1z"/>
		<path fill="#4B3C35" d="M171.7,68.9c-8.7,3.6-18,4.2-27,6C153.3,70.8,162.3,68.8,171.7,68.9z"/>
		<path fill="#694E44" d="M85.4,92.8c0.4,1.9,0.8,3.8,1.1,5.8c-0.9,0.9-0.2,2.5-1.6,3.1c-2.9-2.9-5.8-3.9-8.6,0.1
			C76.1,95.6,84.1,97.7,85.4,92.8z"/>
		<path fill="#ECC931" d="M144.8,131.5c8.7-3.7,17.6-3.6,26.9-1.9c8.7,1.6,17.2,0.4,25.3-3.8c3.7-1.9,7.1-3.1,7.8,3.8
			c0.7,6.5,3.9,12.7,5.4,19.1c1,4.1,3.6,5.5,7,4.9c6.3-1.1,12.6-2.5,18.7-4.4c3.4-1,5.8-2,5.9,2.9c0,1.6,0.6,2.9,2.5,3.1
			c2.2,0.2,3-1.1,3.6-2.9c0.9-2.9,2.7-5.1,5.5-6.7c3.7-2.2,7.1-4.4,4.2-10.1c-1-1.9-1.9-6.2,4.9-4.8c8.3,1.7,14.2,6.5,20.9,10.5
			c2.9,1.8,4.8,3.7,6.6-1.1c1.4-3.7,5.6-3.2,8.4-3.2c2.5,0,1.2,3.2,1.5,5c-2,2.4-4.5,4.2-5.5,7.6c-2,6.7-7.2,8.1-12.9,4
			c-2.9-2.1-4.5-5.2-6.7-7.8c-0.5-0.4-1.1-0.9-1.6-1.3c-7.6-2.8-13.5,1.1-14.5,10c-0.4,4-0.6,7.9-4.5,10.3c-6.9,2.6-11.6-1.3-16-5.8
			c-2-2-3.5-4.4-6.4-1.5c-1.9,1.2-4.2,1.9-5.4,4.1c-9.4,12.2-14.5,11.5-21.1-2.7c-4.2-9.1-10-15-17.9-17.6
			c12.3,7.1,16.3,20.1,22.5,31.4c2.1,3.8,4.9,4.3,8.2,1.7c2.4-2.5,4.6-5.1,7.3-7.3c3.4-2.9,6.2-2.6,8.2,1.7
			c1.5,4.1-0.1,9.2,4.1,12.3c1.2,1.3,2.4,2.5,3.6,3.7c2.2,2.5,3.3,5.1,0.2,7.6c-3.2,2.6-6,1.5-8.4-1.3c-1.6-1.8-3.2-3.8-5.2-5.3
			c-5.1-3.9-11.8-2.9-15.4,2.4c-1.1,1.5-1.7,3.3-0.6,4.8c3,4,2.7,8.8,4.1,13.2c1.9,6-0.5,7.7-5.6,8.3c-0.8,0.1-1.5,0-2.2-0.2
			c-1.5-0.5-2.8-1.3-3.5-2.9c-0.4-6.6-0.7-13.2-2.6-19.7c-0.6-1.9-0.9-3.8-2.9-4.8c-0.3,0-0.6,0-0.9-0.2c-1-1.6-1-3.6-1.5-5.3
			c-0.2-1-0.1,0.3-0.2-0.7c-0.6-17.6-15.8-23.8-27.1-31.5c-7.2-4.9-18.2-6.4-27.6-1.3c-1,1.1-2.4,2.2-0.7,3.8
			c9.4,3.8,10.2,6.6,3.4,13.4c-3.5,1.9-6.9,3.7-10.3,5.6c0.7-2.6,2.2-6.2-3-4c-5.9,2.4-11.5,5.5-13.7,12.2c-0.6,1.8-1.1,3.8-3.1,4.8
			c1.9-6.9,0-12.3-5.5-17c-4.1-3.5-7.3-8.1-8.7-13.5c-1.2-4.7-0.6-8.1,5.7-8.4C120.3,144,133.1,139.3,144.8,131.5z"/>
		<path fill="#DDA88D" d="M104.4,131.4c9.7,0.3,19.8,2.4,26.7-7.3c8.4,1.5,10-10.6,18.5-9.2c2.9,0.5,5.8,0.3,4.1,4.6
			c-9.9,3.9-17.4,12.4-28,15.1c-4.5,1.8-9.4,1.9-14,3.8c-2.5,1.1-6,1.2-8.2-1.3C101.7,135.1,102.4,133.1,104.4,131.4z"/>
		<path fill="#C59481" d="M104.4,131.4c-1.8,5.5,1.2,6.5,5.6,5.9c5.3-0.8,10.5-1.8,15.8-2.7c-2.9,3.3-7.7,1.8-11,4.1
			c-2.2,1.7-4.7,0.6-7.1,0.9c-5,0.6-7.3-1.5-7-6.7c0.1-3.6,0.7-7.3-0.5-10.9c0.6-2.2-0.4-3.8-1.7-5.4c-2.5-3.3-6.5-5.9-4.4-11
			c5,2.6,8.3,6.3,7.7,12.4C102.6,122.4,103.5,126.9,104.4,131.4z"/>
		<path fill="#5A4E43" d="M94,105.5c0.5,4.1,5,6.5,4.4,11c0,0-0.7,0-0.7,0l-0.7,0c-2.8,1.1-1.7-2.8-3.6-2.9
			c-1.3-0.4-1.5-1.3-1.2-2.4c-1-4.3-5.2-6.2-7.4-9.6c0,0,0,0.1,0,0.1c0.2-1.2,0.4-2.4,1.6-3.1C90,99.9,90.9,103.8,94,105.5z"/>
		<path fill="#614C2F" d="M240.3,113.7c10.9,3.4,21.9,1.2,32.8,0C262.1,117.8,251.2,118.8,240.3,113.7z"/>
		<path fill="#5A4E43" d="M96.8,156c-2.7-3.2-3.7-7.1-2.4-11c1.8-5.7,1.9-11.5,2.4-17.3c-0.6-1-0.4-1.8,0.5-2.5
			c2.3,4.4,2,9.5,0.7,13.6C96.1,144.7,95.8,150.2,96.8,156z"/>
		<path fill="#5A4E43" d="M100.1,122c1.6,2.4,1.4,5.2,1.4,7.9c0.2,9.6,0.4,9.8,10.3,9c1-0.1,2-0.1,2.9-0.2
			c-10.9,4.6-14.8,2.4-14.8-8.6C99.9,127.4,100.1,124.7,100.1,122z"/>
		<path fill="#694E44" d="M97.2,125.2c-0.2,0.8-0.3,1.7-0.5,2.5c-1.1-4.7-2.2-9.3-3.3-14c1.2,1,2.4,1.9,3.6,2.9
			C97.1,119.5,97.2,122.3,97.2,125.2z"/>
		<path fill="#E6CA40" d="M205.9,212c1.3,0.1,2.4,0.4,3,1.7c1.5,6.8,2,13.7,0,20.5c-0.2,0.7-0.4,1.4-0.8,2c-2.4,3.4-5.6,6.1-8.6,9
			c-0.8,0.7-1.7,1.2-2.8,1.2c-5.3,4.4-12.7,5-17.5,10.6c-2.4,2.9-6.7,5.1-9.4-0.6c16.8-7.5,28-19.7,31.8-38.1c0.2-1.1,1-2.2,1.5-3.3
			C204.2,214.1,203.1,211.1,205.9,212z"/>
		<path fill="#A63A26" d="M164.1,171.4c7.5,1.7,15.8,10,16.2,17.2c0.5,7.9,1.2,15.9-0.7,23.7c-0.6,2.5-1.2,5.7,1.8,6.3
			c3.2,0.7,4.8-2.3,4.9-5.2c0.3-6.9,0.3-13.9,0.4-20.9c0.8-0.4,1.5-0.3,2.2,0.2c3.5,9,1.5,18.1-0.7,26.7c-1.5,5.7-11.7,6.7-14,1.6
			c-2.1-4.9-4.5-6.2-9.2-4.9c-0.9,0.3-1.9-0.5-2.6-1.3c-0.5-3.6,3.5-3.2,4.6-5.4c0.8-0.7,1.6-1.4,2.5-2c4.6-5.6,3.7-8.8-3-10
			c-1.9-0.4-4-0.2-5.6-1.6c1.7-5.8,6.3-3.5,9.7-3.1c4.2,0.5,4.7-0.5,3.6-4.3c-1.7-5.8-4.6-10.4-10.2-13.1c-0.8-0.9-1-1.9-0.7-3.1
			C163.7,172,163.9,171.7,164.1,171.4z"/>
		<path fill="#52421B" d="M198.3,181.1c0.1,1.9,0.1,3.7,0.2,5.6c-3.7-3.8-4.8-9-7.5-14.3c-2.1,2.8-3.4,5.8-7.5,5.6
			c-4.1-0.2-6.2-2.7-8.6-5.1c-1.7-1.7-3.4-3.6-5-5.4c0,0,0.3-0.4,0.3-0.4c3.3-1.7,4.9,1.1,7,2.6c2.1,1.5,3.4,4.4,7.3,3.6
			c-3.8-8.1-11.7-11.8-17.2-17.7c-1.3-4,1-4.6,4.1-4.3C185.4,156.7,194,166.9,198.3,181.1z"/>
		<path fill="#DFCA3E" d="M158.3,258.7c3.8,3.2,3.9,5.7-1.4,6.9c-3.6,0.8-7.3,1.1-10.9,1.7c-2.3,0.6-3.7-1.5-5.8-1.7
			c-2-2.5-4.2-4.9-6.1-7.5c-1.6-2.2-1.6-4.2,1.8-4.6C143.1,256.6,150.6,258.3,158.3,258.7z"/>
		<path fill="#9F3A2D" d="M195.1,192.7c4.3,16,2,30.8-8.2,44.2c-6.2,8.1-14.4,12.4-24.2,14c-1.4,0.9-2.9,1-4.4,0.3
			c-0.2-4.7,4-4.4,6.7-5.2c15.8-5.1,23.7-16.9,28.1-32.1c1.9-6.6-1.7-12.6-1.6-19C192.1,193.3,193.2,192.4,195.1,192.7z"/>
		<path fill="#E9C22A" d="M205.9,212c-0.9,1-1.9,2-2.8,2.9c-0.2-9.5,0.3-19.1-3.7-28.1c5.8,4,5,10.6,6.4,16.3
			C206.5,205.9,205.9,209,205.9,212z"/>
		<path fill="#9F3B38" d="M195.1,192.7c-0.9,0.5-1.7,0.9-2.6,1.4c-2,1-3-0.8-4.4-1.5c-0.4,0-0.8-0.1-1.3-0.1
			c-0.2-1.4-0.3-2.8-0.5-4.3c-1.1-2.1-0.5-3.7,1.5-4.9c2.2-1.3,3.6-0.1,4.7,1.7C193.3,187.7,194.2,190.2,195.1,192.7z"/>
		<path fill="#763637" d="M192.4,185.2c-3.8-2.3-5.5-0.7-6.2,3.1c-3-0.8-3.2-2.9-2.2-5.2c0.7-1.8,2.1-3.9,4.3-3.4
			C190.9,180.3,192.4,182.4,192.4,185.2z"/>
		<path fill="#7A3427" d="M158.2,250.8c1.5,0,3,0.1,4.5,0.1c-5,3.4-10,5.4-15,0.1c2-0.1,4.1-0.1,6.1-0.2
			C155.2,249.6,156.7,249.6,158.2,250.8z"/>
		<path fill="#79231C" d="M152,169c0.6-0.6,1.2-1.2,1.7-1.8c3.9,0.3,8.5-1.2,10.4,4.2c0,0,0,0.5,0,0.5c-0.8,0.6-1.8,1-2.9,0.9
			C158.5,170.6,153.9,173.3,152,169z"/>
		<path fill="#E0CA3D" d="M168.3,155.8c6.4,3.3,11.8,7.8,16.5,13.3c1.5,1.8,3.8,4,1.1,6.2c-2.1,1.7-4.5,0.7-6.6-1.2
			c-2.8-2.6-4.7-6.5-9.1-7.1c-8.1-5.7-16.9-2.7-25.5-2c4.6-9,4.6-9-6-12.3C146.9,147.9,159.8,149.3,168.3,155.8z"/>
		<path fill="#AF4038" d="M152,169c2.5,2.8,7.2-1.9,9.1,2.7c0.8,2.8-1,3.9-3,4.9c-5.3-2.2-9.5-0.9-12.8,3.8c-0.8,1.2-2,2.2-3.6,2.4
			c-9.4-0.2-6.2,7.4-7.4,12.2c-0.9,2.1-1.6,4.6-4.8,3.5c-1.5,0-3.1,0.2-4.2-1.3C127.6,181.6,139,174.6,152,169z"/>
		<path fill="#BA3727" d="M158.2,250.8c-1.5,0-3,0-4.5,0c-5-1.7-10.1-2.9-14.6-6c-2.3-1.6-5-2.7-4.5-6c0.5-3.4,3.6-1.5,5.5-2.1
			c3.4-1.2,7.5-1,9.1-5.4c0.9-10.5-3.7-13.6-13.6-9c-0.9,0.4-1.8,0.7-2.8,0.1c-1.4,1-1.3,2.5-1.5,4c-0.3,2.2,1.4,5.6-2.3,6.1
			c-3.1,0.4-3.8-2.8-5-4.8c-3.1-5.2-1.5-11.1-1.3-16.6c0.1-2.3,2.8-4,5-1.7c5,5.2,10.2,3.4,15.5,1.1c3.3,4.6,9.3,6.4,12.1,11.6
			c0.3,0.6,1,1.2,1.8,0.7c0.9-0.5,1.2-1.5,1.1-2.5c-0.2-2-2-2.6-3.3-3.7c-4.9-4.1-3.8-12.5,2.1-16.6c1,4.9,4.2,8.8,5.7,13.4
			c2.9,3.1,5.3,1.2,7.6-0.9c3.2-2.8,4.4-1.4,4.2,2.1c-0.3,5,0.8,8.3,6.8,7.8c5.5-0.5,7.3-4,6.6-8.7c-1.1-7.1,2.8-14.1,0.1-21.1
			c1.5,0.5,3,1,4.4,1.5c2.1,8.1,4.5,15.9,1.2,24.5c-5.5,14.1-13.6,25-28.8,29.2C162.5,248.6,159.9,248.8,158.2,250.8z"/>
		<path fill="#C43828" d="M156.7,200.1c-2.9,3.3-1,8-3.7,11.6c-1.4,1.9,2.2,3.4,4.2,4.1c2.5,1,4.8,1.9,3.7,5.1
			c-0.7,2.3-1.4,5.1-4.3,5.6c-3.6,0.6-2.5-2.9-3.3-4.6c-1.2-2.4-3.2-3.7-5.5-4.7c-3.1-1.3-4.9-3.2-4.5-6.8c0.5-1,1.1-2,1.6-3
			c0.6-7.4,3.7-13,10.5-16.4c3.8-1.9,5.6-5.2,5.5-9.7c-0.1-2.7,0.1-5.5,3.3-6.8c7.2,1.5,14.4,11.9,13.4,19.2
			c-0.4,3.1-1.6,2.8-3.9,1.6c-4-2-8.3-2.6-12.4,0.1C161.4,198.9,160,200.5,156.7,200.1z"/>
		<path fill="#3B1F1E" d="M129.5,198.5c1.9-0.7,3.1-2,3.4-4c3.8-3.7,6.9-1.2,10,1.3c2.3,3.1,4.9,6.1,1.7,10.1
			c-2.2,1-3.9,2.7-6.4,3.4c-4.1,1-7.2,0.2-9.9-2.8C125.3,203.3,128.7,201.1,129.5,198.5z"/>
		<path fill="#6C2017" d="M132.8,222.5c4.7-3.8,9.3-7.3,15.3-2c4.1,3.5,5,6.9,1,10.9c-0.5,0.1-1.1,0-1.4,0.3
			C138.2,238.1,130.6,233.3,132.8,222.5z"/>
		<path fill="#BA3727" d="M144.6,206c0.8-3.5-1-6.1-2.6-8.9c2.5-1,4.4-2.8,5.8-5.1c0.8-0.5,1.7-0.8,2.7-1.1c8.5-3,9.1-4.2,7.7-14.6
			c1-1.5,2-3,3-4.4c1,0,2,0.1,3,0.1c0,0.9,0,1.9,0,2.8c-0.5,1.1-1.4,2.3-1.3,3.4c1.5,9.1-3.7,14-10.9,17.7c-2.8,1.5-4.4,3.7-4.2,7.1
			c0.1,2.2-0.9,3.7-2.9,4.7C144.7,207,144.7,206.5,144.6,206z"/>
		<path fill="#3A3722" d="M174.7,314.9c-2-0.9-3.3-0.5-3.4,2c-3.7-5.7-4.4-12.9-8.9-18.1c-0.3-1.7-1-3.8,2.1-2.8
			c2.4,0.8,4.7,1.4,7.2,1c4,1.2,7.8,3,10.9,5.7c1.2,1,1.6,2.6,0.9,4c-0.6,1.2-2,1-3.3,0.7c-7.8-1.8-7.8-1.8-5.5,6
			C174.9,313.9,174.7,314.5,174.7,314.9z"/>
		<path fill="#E7AB88" d="M173.1,86.7c-7.9-4.8-16.8-6.8-27.1-9.9c19.8-3.8,37.8-7.3,55.9-10.8c0.3,0.6,0.5,1.3,0.8,1.9
			c-8.4,3.9-16.1,8.9-23.6,14.1C178.1,85,176.7,87.3,173.1,86.7z"/>
		<path fill="#D6936A" d="M246.3,77.7c0.1-2.7,2-3.3,4.1-2.9c3.6,0.6,6.8,1.8,10.4-1c2-1.6,3.9,0.7,5,2.8c1.5,2.9,2.2,5.8-0.6,8
			c-3.5,2.7-7,5.5-11,7.4c-3.9,1.8-8.1,0.5-10.3-3.3C241.5,84.8,240.3,80.3,246.3,77.7c1.6,1.7,0.6,3.7,0.6,5.6
			c0,2.4,0.8,4.4,3.5,4.7c2.5,0.3,4.4-1,5-3.4c0.7-2.9-1.1-4.5-3.6-5.5C250,78.5,247.8,79.3,246.3,77.7z"/>
		<path fill="#D0996A" d="M173.1,86.7c2-1.5,4-3.1,5.9-4.6c2,0.4,4.5-0.8,5.9,1.8c-1.7,1.9-4.6,1.9-6.2,3.9c-1.2,1.4-2,2.9-1.2,4.7
			c0.8,1.8,2.3,2.5,4.2,2.3c2.2-0.2,3.5-1.5,4-3.7c0.6-2.5-1.6-4.7-0.8-7.3c1-0.1,2-0.2,2.9-0.4c2.1-0.4,3.3-6.8,6.3-0.9
			c1.8,3.5,5.3,7.3-1.1,10.1c-1.9,0.8-3.4,2.8-5.2,4.1c-3.2,2.3-6.5,5.1-10.6,2.1C173.1,95.8,170.7,92,173.1,86.7z"/>
		<path fill="#3E291F" d="M155.3,107c-0.9,4.5-3.9,6.5-8.3,6.6c-4.4,0.1-6.3-2.8-6.3-6.6c0.1-4,2-7.1,6.7-7.3
			C152.4,99.5,154.3,102.6,155.3,107z"/>
		<path fill="#754F3C" d="M213.4,89.6c3.2-4.9,6.5-3.2,9.6,0c3.4,3.4,3.5,6.9,0.1,10.4c-2.3,2.4-5.3,2.6-8.2,2.9c0,0,0,0,0,0
			C211.6,98.9,206.4,95,213.4,89.6c1.6,1.6,0.6,3.8,1.3,5.6c0.6,1.5,1.7,2.4,3.3,2.3c1.3,0,2.3-0.7,2.7-2c0.4-1.8-0.7-2.7-2.1-3.4
			C216.9,91.3,214.8,91.2,213.4,89.6z"/>
		<path fill="#C59481" d="M113.4,115.1c-5.5,0.4-9.2-1.8-10.5-7.3c2.6-1.3,4,1.1,5.8,2c2.4,1.2,4.3,0.6,5.9-1.4c1.6-2,1.6-4.2-0.1-6
			c-1.7-1.9-3.8-1.8-6.1-0.7c-1.9,0.9-2.6,3.9-5.5,2.8c0-6.1,3.8-7.5,8.9-7.3c3.9,0,6.6,1.5,7.5,5.7
			C120.5,108.4,117.9,112.1,113.4,115.1z"/>
		<path fill="#9E8730" d="M213.4,373.2c-2.8-1.9-1.8-4.6,0.3-5c4.2-0.8,8.9-1.3,12.8-0.2c3.5,1.1,2.3,4.7-0.5,6.1
			C221.9,376.1,217.3,378,213.4,373.2c1.5-1.7,3.6-1.3,5.5-1.5C217,371.8,214.9,371.4,213.4,373.2z"/>
		<path fill="#442F26" d="M314.9,83.7c1.7-0.4,3.4-1.2,5-1.1c4.2,0.4,7,2.8,7,7.1c0,4-2.9,6.1-6.8,6.3c-1.7,0.1-3.4-0.4-5.1-0.7
			C312.9,91.5,312.2,87.6,314.9,83.7z"/>
		<path fill="#3C271A" d="M350.4,110.1c-1.4,4.2-4,6.8-8.5,6.8c-4.1,0-6.5-2.1-6.4-6.3c0.1-4.2,2.2-7.3,6.5-7.4
			C346.3,103.1,349,105.9,350.4,110.1z"/>
		<path fill="#332418" d="M286.2,89.5c4.5,0.8,6.3,4,6.5,8c0.2,4.5-3.1,6-6.9,5.9c-3.9-0.1-6.9-2.4-6.5-6.5
			C279.6,93.1,281.7,89.9,286.2,89.5z"/>
		<path fill="#DEBE39" d="M274.4,143.6c4.5,0.2,4,5,6.6,7.2c6,5,9.6,4.4,11.8-2.9c1.1-3.5,2.8-6.4,7.2-6.1c5.3,2.7,9.4,5.7,4.5,12.3
			c-2,2.8-1.7,6-0.6,9.3c1.1,3.3-1.7,6.8-3.7,4.9c-6.7-6.3-13.1-0.8-19.5-0.9c-2.4-2.4-4.1-5.5-6.7-7.8c-1.3-1.1-2.5-2.7-4.4-2.1
			c-2,0.7-1.9,2.8-1.9,4.4c0,6.3-1.5,12.1-4.9,17.4c-1.7,0.4-3.3,0.8-5,1.3c-1.5-2.5-0.1-4.8,0.6-7.1c1.6-5.5,3.9-10.7,4.3-16.5
			c0.2-3.3,1.4-6.6,4.7-7.8c3.7-1.4,5.9,1.7,8.2,3.8c3.2,3.1,6.2,6.4,11,7.1c7.8,1.1,14.2-5,12.3-13c-2.4,6.6-4.6,12.6-12.8,10.8
			C279.3,156.2,274.8,150.9,274.4,143.6z"/>
		<path fill="#F0C936" d="M262.6,179.2c0.7-7.3,4-14.1,3.3-21.8c-0.3-2.8,2.9-4.8,5.2-2.7c3.9,3.5,9.4,6,9.4,12.5
			c-3.4,0.2-6.2,0.2-5,5.4c1.5,6.5-6.3,4.5-8.4,8.1C266,178.9,264.2,179.3,262.6,179.2z"/>
		<path fill="#E9C22A" d="M210.4,213.4c1.7-0.8,3.5-1.6,5.2-2.3c-3.1-4.4-0.1-10.4-3.5-14.4c-3.5-4.2-4.7-7.9,0.3-11.1
			c4.6-2.9,9-8.7,15.4-2.3c2.1,2.1,4.8,3.5,6.3,6.2c1.4,2.4,3,4,6,2.3c3.9-2.1,1.5-4.4,0.2-6.7c4.5-1.3,9-1.4,13.4,0.1
			c0,0.5,0,1,0,1.4c-0.6,1.6-1.5,3.1-3.1,3.8c-3.1,1.3-3.3,2.8-1.1,5.3c2,2.3,1.3,4.9-0.3,7.3c-3.6,4-2.5,9.2-3.4,13.9
			c-1.6,7.6-6.7,13.2-11.4,19c-0.6,0.4-1.2,0.5-1.9,0.2c-1.7-4.6-6.3-1.4-9-3.3c-0.6-3.9,3.5-4.7,5.3-7.3c-4.4-1.3-7.6,3.5-11.6,1.1
			C215.7,221.9,215.5,216.4,210.4,213.4z"/>
		<path fill="#524019" d="M253.7,185.2c-4.5,1.5-9,2.1-13.4-0.1c-1-1-2-2-3-3c-3.8-3.6-3.3-8.6-4.5-13.1c-1.6-3.5-3.6-4.5-6.5-1.1
			c-2.3,2.6-4.7,5.1-7.1,7.6c-4.3,3.1-7.4,1-10.3-2.3c-7.2-10.3-10.1-24-22.9-30.2c-1.4-0.7-2.5-2-1.5-3.6c1.3-2.2,3.3-2,5.1-0.8
			c6.4,4,12.2,8.4,15.6,15.5c1.5,3.1,2.9,6.3,4.6,9.3c4.1,7.2,6.4,7.4,11.9,1.2c1.3-1.5,2.5-3,3.7-4.6c7.3-4.4,13.6-1.9,16.1,6.5
			c0.9,3,0,6.5,2.2,9.2c1.8,2.2,3.6,2,5.2-0.2c1.4-1.9,2.5-4,3.8-6c2.9-5.2,4.5-10.8,5.6-16.7c1.8-9.9,7.6-12.9,16.2-9.4
			c0,0-0.1,0-0.1,0c2.2,5,4.6,9.8,10.4,11.9c6.3,2.3,10.1,0.3,11.1-6.2c0.3-2.2-0.6-5.9,3.3-5.2c3.3,0.6,4.2,3.8,3.5,7.1
			c-2.5,10.4-15.1,14.5-23.8,7.6c-2.1-1.7-3.8-3.9-5.7-5.8c-1.5-1.5-2.7-4.1-5.3-3c-2.1,0.9-3.1,3.3-3.3,5.6
			c-0.5,8.8-4.2,16.7-6.9,24.9C256.3,182,255,183.6,253.7,185.2z"/>
		<path fill="#F0C936" d="M249.2,203.1c0-1.7,0.6-4.3-0.3-5c-11.7-9.4,2.7-7.9,4.7-11.4C257.1,193.5,254.6,198.7,249.2,203.1z"/>
		<path fill="#E4CA3F" d="M233.2,235.9c0.4,0,0.8,0.1,1.2,0.1c3.5,4.7,6.8,9.7,10.6,14.2c2.1,2.5,2.9,5,2.7,8.1
			c-0.9-0.5-1.8-1-2.7-1.5c-5.5-4.5-8.5-11-12.8-16.5C231.1,239,231.3,237,233.2,235.9z"/>
		<path fill="#432414" d="M233.2,235.9c-1.5,2.3,0,3.8,1.5,5c5,4.3,7.6,10.1,10.3,15.9c0.2,1.2,0.4,2.4,0.6,3.6
			c0.5,2.6,1.8,5.8-0.7,7.6c-3.1,2.1-4.8-1.3-6.5-3.2c-3.5-4.1-7.3-4.4-11.8-1.9c-3.7,2-7.4,3.8-10.5,6.8c-1.7,1.7-3.3,4-6.2,3.1
			c-3.6-1.1-2.1-4.5-2.7-7c-0.4-0.6-0.6-1.3-0.6-2c0.3-3.9,1.4-7.7,2-11.6c3.5-7.6,7.3-15,15.2-19
			C227.7,231.7,232.5,226.7,233.2,235.9z"/>
		<path fill="#EACA38" d="M216.4,304.6c9.2,0,17-4.4,19.2-11c0-5.4,4-6.3,7.9-6.7c4.3-0.5,7.5,1.4,8.7,6c-0.2,4.8,1.4,10.8-7.5,6.3
			c-5.9-3-14.2,4.4-14.9,12.3c-0.2,2.7-0.1,5.4-0.1,8.1c-3,4.7-6.7,3.2-10.2,0.8c-2.3-1.5-3.8-3.9-5-6.4c-0.6-1.4-0.4-3-0.4-4.5
			C214.2,307.5,214.7,305.8,216.4,304.6z"/>
		<path fill="#E6D03C" d="M216.4,304.6c-0.1,1.6,0.3,3.4-1.5,4.5c-2.3-0.7-3.1-3.1-4.9-4.3c-9-2.1-12.7,0.9-17.2,12.1
			c-1,2.5-1.6,5.2-3.7,7.1c-3.9,3.5-7.6,5.1-10.1-1.4c0.2-2.6-0.5-5.6,3.4-6.4c0.9-0.2,2.1-0.9,2.3-1.7c3.3-9.9,13.6-12.8,19.7-19.9
			c4.8-3.3,6.4-0.2,7.6,3.8C213.4,300.4,214.9,302.5,216.4,304.6z"/>
		<path fill="#E4CA3F" d="M223.9,233.1c-4.5,6.4-10.3,11.9-13.6,19.2c-2.4,3.7-2.6,8-2.7,12.3c0.3,0.5,0.2,0.9-0.3,1.2
			c-1.1,0.3-1.9,3.7-3.4,0.2c-2-4.5-2.6-9.2-2.5-14c2.4-8,9.3-13.5,12-21.4c1.4-1.3,1.7-4,4.4-3.7c3.4-1.4,6.8-2.9,10.3-4.1
			c1.9-0.6,3.6,0.2,4.1,2.1c0.5,1.7-0.7,2.9-2.3,3.2C227,228.9,224.9,230.3,223.9,233.1z"/>
		<path fill="#523F19" d="M252.2,292.8c-6.8-6.5-11.3-6.3-16.6,0.8c-1.8,2-4,3.7-6.2,1.2c-1.5-1.7,0.4-3.7,1.5-5.2
			c7-10,19.1-10.6,26.3-1.4c1.4,1.8,2.4,3.8,2.5,6.1c0.1,2,0.1,4.4-2.1,5.1c-2.9,0.9-2.9-1.8-3.5-3.6
			C253.7,294.5,253.6,293.2,252.2,292.8z"/>
		<path fill="#4B4019" d="M214.6,231.3c-2.9,7.9-7.9,14.4-13.3,20.7c-3.7-0.1-5.5-1.8-4.5-5.6c0.6-0.5,1.1-0.9,1.7-1.4
			c3.4-2.5,6.7-5.3,8.8-9.1l0-0.1c2.2-4.8,2.8-9.8,2.1-15c-0.3-2-0.4-4.2,2.2-4.7c2.8-0.5,4,1.5,4.4,3.8
			C216.7,223.8,216.3,227.6,214.6,231.3z"/>
		<path fill="#352F15" d="M212,298.4c-2.1-2.1-3.5-5.6-7.6-3.8c-0.5-0.1-1-0.2-1.4-0.1c-2.4,0.4-4.8,4.7-6.8,1.3
			c-1.8-3.2,2.2-5,4.4-6.6c4.9-3.4,12.6-1.4,15.3,3.8C217.8,296.7,216.9,299.1,212,298.4z"/>
		<path fill="#E6D03C" d="M215,313.5c4.4,3.1,7.1,10.6,14.7,6c0,1,0,2,0,3c-2.4,2.3-5.5,3-8.6,3.6c-3.1-0.3-2.9-3.6-4.7-5.1
			c-1.1-0.8-1.6-1.9-1.5-3.3C213.9,316.3,213.7,314.9,215,313.5z"/>
		<path fill="#E9DA4C" d="M220.8,325.5c2.6-2.1,5.6-2.9,8.9-2.9c0.1,1.5,0.2,3,0.3,4.5c-0.6,1.6-1.5,2.8-3.3,3.1
			C222.8,331.1,219.9,330.7,220.8,325.5z"/>
		<path fill="#EAC62E" d="M220.8,325.5c0.2,3.8,2.9,4.5,5.9,4.7c-8.8,3.1-8.3-4.5-10.4-9.1C218.7,321.6,219,324.3,220.8,325.5z"/>
		<path fill="#EAC62E" d="M215,313.5c-0.1,1.4-0.1,2.8-0.2,4.2c-2.2-4.1-1.5-9.3-4.9-13c2.4,0.5,3.8,2.3,4.9,4.3
			C214.9,310.5,215,312,215,313.5z"/>
		<path fill="#694E44" d="M84.9,101.7c3.5,2.4,7.5,4.4,7.4,9.6C89.9,108,86.1,105.8,84.9,101.7z"/>
		<path fill="#442D22" d="M102.9,104.3c1.2-1.2,2.3-2.5,3.5-3.7c3.3-3.1,6.9-2.8,9.8,0.3c2.7,2.9,2.7,6.5-0.4,9.2
			c-2.9,2.6-6.2,4.5-9.6,0.4c-0.9-1.1-2.2-1.9-3.3-2.8C101.6,106.6,101.7,105.5,102.9,104.3z"/>
		<path fill="#E0CA3D" d="M198.3,181.1c-4.1-3.2-4.2-8.7-7.1-12.8c-5.3-7.1-11.3-13-19.9-15.9c-8.1-2.4-16.3-4.7-24.9-4.1
			c-2,0.2-4.4,1-6.1-1.1c0.4-2.2,2.2-2.7,3.9-2.8c12.1-0.9,23.9-1.7,34.1,7.5c5.5,5,9.5,12.1,17.5,14.2c2.6,0.7,3.4,3.4,2.3,5.5
			C196.4,175.1,198.3,178,198.3,181.1z"/>
		<path fill="#F0CF39" d="M253.7,171.7c-1.3,2.3-2.4,4.8-4.1,6.8c-2.3,2.7-4.8,3.5-6.5-0.8c-0.9-1.7-2.4-3.3-2.1-5.4
			c1.1-7.9-3.3-12.4-9.7-15.6c1.2-4,3.7-5.3,6.1-1.6c4,6,9.4,8.7,16.2,9.2C255.3,166.7,254.6,169.2,253.7,171.7z"/>
		<path fill="#756026" d="M140.2,147.2c11-2.2,21.6-1.7,31.1,5.2c-2.6-0.3-4,0.5-3,3.4c-9.6-3.7-19.5-4.2-29.6-3.1
			C136.1,150.1,139,148.9,140.2,147.2z"/>
		<path fill="#9F8B31" d="M214.6,231.3c0.1-3.7,0.3-7.4,0.2-11.1c0-1.6-0.9-3.1-2.5-3.1c-2,0-1.7,2-1.8,3.4
			c-0.6,5.2,1.5,10.9-3.2,15.3c2.2-7.2-0.6-14.9,1.7-22.1c0.5-0.1,1-0.2,1.4-0.3c9,1,7,7.9,7.3,13.5
			C216,227.9,217.1,230.8,214.6,231.3z"/>
		<path fill="#DEBE39" d="M253.7,171.7c0-2.5,0-4.9,0-7.4c1.8-3.5,3.1-6.8,3.2-11c0.1-5.4,3.5-9.6,8.5-12c3.6-1.7,6.7-0.9,9.1,2.3
			c-9.2-1.9-11.6-0.5-14.6,8.7C257.7,158.7,257.9,165.9,253.7,171.7z"/>
		<path fill="#EBC12B" d="M231.3,156.7c7,1.5,10.5,5.8,10.5,13.1c0,2.6,0.8,5.3,1.3,7.9c-3.1-1.8-2.9-4.8-3.2-7.8
			c-0.9-9.3-5.4-12.3-14.5-9.8C226.2,156.9,228.7,156.8,231.3,156.7z"/>
		<path fill="#E9C22A" d="M232.8,169.1c1.5,4.4,3,8.7,4.5,13.1C231.1,179.4,233,173.9,232.8,169.1z"/>
		<path fill="#E9C22A" d="M208.9,173.2c3.3,1.3,6.3,3.9,10.3,2.3C214.8,179.2,211.1,179.4,208.9,173.2z"/>
		<path fill="#9F8B31" d="M207.3,235.9c-1.2,4.7-4.1,7.8-8.8,9.1C201.4,241.9,204.3,238.9,207.3,235.9z"/>
		<path fill="#441D1B" d="M170,209c-0.5,0.4-1,0.9-1.6,1.3c-5.1,3.5-8-0.3-10.2-3.7c-2.7-4.1,0.5-7.2,3.7-9.2
			c3.9-2.5,7.8-1.3,10.4,2.3C175.1,203.5,174.1,206.8,170,209z"/>
		<path fill="#84211B" d="M170,209c3.6-3.7,3.9-7.2-0.7-10.4c-4.5-3.2-7.5-0.7-9.9,2.7c-3.1,4.4,1.3,8.7,9,9c-0.8,3-3.2,3.2-5.8,3.1
			c-4.6-3.3-7.6-7.3-6-13.3c1.5-1.5,3-3,4.5-4.4c2.5,0,5-0.2,7.4,0c3.4,0.3,5.5,2.3,5.8,5.6C174.8,204.8,175.2,208.6,170,209z"/>
		<path fill="#BC3F2B" d="M147.7,192.8c0.4,4.5-1.7,5.8-5.8,4.2c-2.6-2.4-5.7-3-9.1-2.5c0-2.7-0.6-5.5,0-8.1
			c1.1-4.6,3.6-7.8,8.9-4.2C143.7,185.8,146.3,189,147.7,192.8z"/>
		<path fill="#79231C" d="M147.7,192.8c-3.8-2.5-6.7-5.6-5.9-10.6c1.2-1.5,2.4-3,3.6-4.5c3.7-4.9,7.8-6.1,12.7-1.5
			C164.1,185.4,160.4,191.4,147.7,192.8z"/>
		<path fill="#331C1A" d="M147.7,226.2c-1.6,3.5-3.5,6.4-7.4,6.5c-3.7,0-6.1-2.3-5.9-6c0.2-4.1,3.1-5.8,7.1-5.7
			C145,221.1,146.7,223.3,147.7,226.2z"/>
		<path fill="#432F22" d="M246.3,77.7c4.4-1.7,8.3-1.2,11.1,2.9c1.8,2.6,1.3,5.1-1,7.3c-2.6,2.4-5.3,3.5-8.7,1.7
			c-3.2-1.7-3.5-4.5-2.8-7.6C245.1,80.5,245.7,79.2,246.3,77.7C246.2,77.8,246.3,77.7,246.3,77.7z"/>
		<path fill="#402C1F" d="M184.9,83.8c0.1,0.2,0.2,0.5,0.3,0.7c2.8,3.2,4.7,6.7,1.3,10.6c-2.1,2.4-5.1,3.3-8.1,1.7
			c-2.5-1.3-4.6-3.5-3.7-6.6C176.2,85.3,179.6,82.9,184.9,83.8C184.9,83.8,184.9,83.8,184.9,83.8z"/>
		<path fill="#39261C" d="M213.4,89.6c1.5,0,3-0.2,4.4-0.1c3.6,0.5,6.2,2.4,5.5,6.3c-0.5,2.8-3,4.7-6.1,4.1
			c-3.6-0.7-5.7-2.8-4.8-6.8C212.7,92,213,90.9,213.4,89.6C213.4,89.7,213.4,89.6,213.4,89.6z"/>
		<path fill="#624E1F" d="M213.4,373.2c2.8-5.9,7.3-1.4,11-2.2C221.3,374.8,217.1,372.6,213.4,373.2
			C213.4,373.2,213.4,373.2,213.4,373.2z"/>
		<path fill="#85271F" d="M231.3,246.2c2.5,1.5,4.5,3.9,3.8,6.6c-0.9,3.1-4.3,3.6-7.3,4c-1.7,0.2-3.5,0.3-5,0.9
			c-1.9,0.7-3.7,3.4-5.7,0.8c-1.5-1.9-0.2-4.3,0.9-6.2c1.5-2.4,1-6,4.3-7.4c0.9,0.7,1.3,1.7,1.4,2.7c0.5,1.5-1.3,3.9,1.1,4.4
			c2.9,0.6,4.1-1.9,5.1-4.2C230.3,247.1,230.7,246.6,231.3,246.2z"/>
		<path fill="#7E363A" d="M231.3,246.2c0,0.6,0,1.2-0.1,1.7c-3,0.8-6,0.9-8.9-0.1c0-1,0-2-0.1-2.9
			C226.2,239.2,228.7,242.9,231.3,246.2z"/>
		<path fill="#EAC62E" d="M207.5,264.6c-2.2-4.8-1.1-8.8,2.7-12.3C209.7,256.5,209.3,260.7,207.5,264.6z"/>
		<path fill="#371C1C" d="M151.4,176.2c3.6,1.3,6.5,3.3,6.6,7.2c0.1,5.7-5.1,5.4-8.6,6c-3.4,0.6-4.7-2.1-4.6-5.2
			C144.9,179.9,147.7,177.8,151.4,176.2z"/>
		<path fill="#BA3B34" d="M222.3,247.8c3-1.9,6-1.9,8.9,0.1c0.7,6.7-5,6.9-8.4,6.4C218.6,253.8,223.1,250.1,222.3,247.8z"/>
	</g>
</g>
</svg>
