<?xml version="1.0" encoding="utf-8"?>
<!-- Generator: Adobe Illustrator 22.0.1, SVG Export Plug-In . SVG Version: 6.00 Build 0)  -->
<svg version="1.1" id="Layer_1" xmlns="http://www.w3.org/2000/svg" xmlns:xlink="http://www.w3.org/1999/xlink" x="0px" y="0px"
	 viewBox="0 0 567.1 556.7" enable-background="new 0 0 567.1 556.7" xml:space="preserve">
<linearGradient id="SVGID_1_" gradientUnits="userSpaceOnUse" x1="386.4548" y1="567.5856" x2="139.1206" y2="139.1902">
	<stop  offset="0" style="stop-color:#F1F2F2"/>
	<stop  offset="1" style="stop-color:#86888A"/>
</linearGradient>
<path fill="url(#SVGID_1_)" stroke="#EC1D25" stroke-width="2" stroke-miterlimit="10" d="M547,437l-65.9-234.2
	c-4.5-16.1-17.3-26.9-31.7-26.9h-49.6c-13,0-24.3-9.2-26.6-22.1c-8.6-48.9-45.5-85.7-89.6-85.7s-81,36.8-89.6,85.7
	c-2.3,12.8-13.6,22.1-26.6,22.1h-49.6c-14.4,0-27.1,10.8-31.7,26.9L20.1,437c-7.1,25.4,8.9,51.6,31.7,51.6h463.6
	C538.1,488.7,554.2,462.4,547,437z M283.6,112.1c15.4,0,29.2,7.5,39.1,19.6c14.4,17.7,1.8,44.2-21,44.2h-36.1
	c-22.8,0-35.4-26.5-21-44.2C254.3,119.6,268.2,112.1,283.6,112.1z"/>
<g>
	<g>
		<path fill="#F04B23" stroke="#FBB040" stroke-miterlimit="10" d="M150.5,369.6c-2.3,7.7-3.5,11.6-5.8,19.3c-1.4,0-2.1,0-3.5,0
			c-11.5,0-20.5-2.4-26-7.2c-4.1-3.6-5.8-8.6-5.2-14.5c-0.6,0-0.8,0-1.4,0c-5.3,0-10.1-0.6-14.2-1.9c-4.1-1.3-7.4-3.1-9.7-5.4
			c-5.3-5.4-5.3-13-0.5-22.8c10.5-21.7,21-43.5,31.5-65.2c3.8-8.7,11.8-17.9,19.7-23c7.2-4.6,14.7-7.2,22.8-7.2
			c8.1,0,13.7,2.4,17.1,7.2c3.9,5.4,4.6,13,1.6,23c-6.7,21.7-13.3,43.5-20,65.2c-2.3,9-10.3,18.7-18.6,22.8
			c-0.5,0.3-0.7,0.4-1.2,0.7c-0.8,3.4-0.5,5.7,0.9,7c1.6,1.4,4.6,2.1,9,2.1C148.5,369.6,149.1,369.6,150.5,369.6z M116.3,347.8
			c4.3,0,7.7-0.7,10-2.1c2.8-1.6,5-4.6,6.6-8.8c7.9-21.7,15.9-43.5,23.8-65.2c1.6-4.3,1.6-7.3,0.5-8.8c-0.9-1.3-3.1-2.1-6.5-2.1
			c-3.3,0-6.1,0.7-8.2,2.1c-2.5,1.6-4.6,4.6-6.4,8.8c-9.2,21.7-18.5,43.5-27.7,65.2c-1.7,4.1-1.9,7.1-0.4,8.8
			C109.2,347.1,112.1,347.8,116.3,347.8z"/>
		<path fill="#F04B23" stroke="#FBB040" stroke-miterlimit="10" d="M224.2,243c4.3,0,6.4,0,10.7,0c-6.2,40.9-12.5,81.8-18.7,122.7
			c-10.3,0-15.5,0-25.8,0c6.3-29.7,12.5-59.4,18.8-89c-8.5,6.1-17.1,12.1-25.8,17.9c2.8-10.4,4.2-15.7,7.1-26.1
			C201.8,260.2,213.2,251.9,224.2,243z"/>
		<path fill="#F04B23" stroke="#FBB040" stroke-miterlimit="10" d="M271.6,367.1c-8,0-19.8-1.9-26.6-7.2c-7.2-5.6-10-13.3-8.9-23
			c2.5-21.7,5-43.5,7.5-65.2c1.1-9.7,5-17.4,11.2-23c5.4-4.8,12.1-7.2,20.2-7.2c8.1,0,14.6,2.4,19.8,7.2c5.9,5.5,9.4,13.3,10,23
			c1.3,21.7,2.7,43.5,4,65.2c0.6,9.7-2.6,17.4-10.1,23C291.6,365.2,279.8,367.1,271.6,367.1z M274.4,260.9c-3.3,0-5.8,0.7-7.4,2.1
			c-1.9,1.6-3,4.6-3.2,8.8c-1.2,21.7-2.4,43.5-3.7,65.2c-0.2,4.2,0.7,7.1,2.9,8.8c1.9,1.4,4.9,2.1,9.1,2.1c4.3,0,7.5-0.8,9.2-2.1
			c2.1-1.5,3.3-4.4,3.3-8.8c-0.1-21.7-0.2-43.5-0.2-65.2c0-4.3-1.1-7.2-2.7-8.8C280.3,261.7,277.9,260.9,274.4,260.9z"/>
		<path fill="#F04B23" stroke="#FBB040" stroke-miterlimit="10" d="M364.7,367.1c-8.8,0.2-20.6-2.1-28.2-7.2
			c-8.4-5.6-12.8-13.3-13.8-23c-2.1-21.7-4.2-43.5-6.3-65.2c-0.9-9.7,1.3-17.4,6.4-23c4.4-4.8,10.6-7.2,18.6-7.2
			c8.1,0,15.1,2.4,21.3,7.2c7.1,5.5,12.2,13.3,14.9,23c5.9,21.7,11.9,43.5,17.8,65.2c2.6,9.7,1,17.5-5.3,23
			C384.7,364.7,375.8,366.9,364.7,367.1z M345.1,260.9c-3.3,0-5.7,0.7-7,2.1c-1.5,1.6-2,4.6-1.3,8.8c3.4,21.7,6.7,43.5,10.1,65.2
			c0.7,4.2,2.2,7.1,4.7,8.8c2.2,1.4,5.4,2.1,9.6,2.1c4.3,0,7.3-0.8,8.8-2.1c1.8-1.5,2.4-4.4,1.5-8.8c-4.7-21.7-9.3-43.5-14-65.2
			c-0.9-4.3-2.6-7.2-4.6-8.8C351.2,261.7,348.6,260.9,345.1,260.9z"/>
		<path fill="#F04B23" stroke="#FBB040" stroke-miterlimit="10" d="M457.9,367.1c-9.4,0.2-21.5-2.6-29.7-7.2
			c-7.9-4.4-16.3-13.9-18.6-23c-6.7-21.7-13.3-43.5-20-65.2c-3-9.7-2.3-17.4,1.6-23c3.4-4.8,9-7.2,17.1-7.2c8.1,0,15.6,2.5,22.8,7.2
			c7.9,5.1,15.8,14.3,19.7,23c10.5,21.7,21,43.5,31.5,65.2c4.7,9.7,4.7,17.5-0.5,23C477.4,364.7,468.9,366.9,457.9,367.1z
			 M415.9,260.9c-3.3,0-5.5,0.7-6.5,2.1c-1.2,1.6-1,4.6,0.5,8.8c7.9,21.7,15.9,43.5,23.8,65.2c1.5,4.2,3.7,7.1,6.6,8.8
			c2.5,1.4,5.8,2.1,10,2.1c4.3,0,7.1-0.8,8.3-2.1c1.4-1.5,1.5-4.4-0.4-8.8c-9.2-21.7-18.5-43.5-27.7-65.2c-1.8-4.3-4.1-7.2-6.4-8.8
			C422.1,261.7,419.3,260.9,415.9,260.9z"/>
	</g>
</g>
</svg>
