<?xml version="1.0" encoding="utf-8"?>
<!-- Generator: Adobe Illustrator 22.0.1, SVG Export Plug-In . SVG Version: 6.00 Build 0)  -->
<svg version="1.1" id="Layer_1" xmlns="http://www.w3.org/2000/svg" xmlns:xlink="http://www.w3.org/1999/xlink" x="0px" y="0px"
	 viewBox="0 0 567.1 556.7" enable-background="new 0 0 567.1 556.7" xml:space="preserve">
<linearGradient id="SVGID_1_" gradientUnits="userSpaceOnUse" x1="386.4548" y1="567.5856" x2="139.1206" y2="139.1902">
	<stop  offset="0" style="stop-color:#F1F2F2"/>
	<stop  offset="1" style="stop-color:#86888A"/>
</linearGradient>
<path fill="url(#SVGID_1_)" stroke="#00AEEF" stroke-width="2" stroke-miterlimit="10" d="M547,437l-65.9-234.2
	c-4.5-16.1-17.3-26.9-31.7-26.9h-49.6c-13,0-24.3-9.2-26.6-22.1c-8.6-48.9-45.5-85.7-89.6-85.7s-81,36.8-89.6,85.7
	c-2.3,12.8-13.6,22.1-26.6,22.1h-49.6c-14.4,0-27.1,10.8-31.7,26.9L20.1,437c-7.1,25.4,8.9,51.6,31.7,51.6h463.6
	C538.1,488.7,554.2,462.4,547,437z M283.6,112.1c15.4,0,29.2,7.5,39.1,19.6c14.4,17.7,1.8,44.2-21,44.2h-36.1
	c-22.8,0-35.4-26.5-21-44.2C254.3,119.6,268.2,112.1,283.6,112.1z"/>
<g>
	<g>
		<path fill="#0091D2" stroke="#34C5F1" stroke-miterlimit="10" d="M146.3,369.6c-2.4,7.7-3.6,11.6-5.9,19.3c-1.3,0-2,0-3.3,0
			c-10.9,0-19.4-2.4-24.5-7.2c-3.8-3.6-5.3-8.6-4.6-14.5c-0.5,0-0.8,0-1.3,0c-5.1,0-9.6-0.6-13.5-1.9c-3.9-1.3-6.9-3.1-9.1-5.4
			c-4.9-5.4-4.7-13,0-22.8c10.5-21.7,21-43.5,31.6-65.2c3.8-8.6,11.5-17.8,19.3-23c7-4.6,14.2-7.2,21.8-7.2c7.7,0,12.9,2.4,16.1,7.2
			c3.6,5.4,4.1,13,0.9,23c-6.9,21.7-13.7,43.5-20.6,65.2c-2.3,8.9-10,18.5-18.2,22.8c-0.4,0.3-0.7,0.4-1.1,0.7
			c-0.9,3.4-0.6,5.7,0.7,7c1.5,1.4,4.3,2.1,8.5,2.1C144.4,369.6,145.1,369.6,146.3,369.6z M114.4,347.8c4.1,0,7.3-0.7,9.6-2.1
			c2.7-1.6,4.9-4.6,6.4-8.8c8.1-21.7,16.2-43.5,24.2-65.2c1.6-4.3,1.7-7.3,0.7-8.8c-0.9-1.3-2.9-2.1-6.2-2.1c-3.2,0-5.8,0.7-7.8,2.1
			c-2.4,1.6-4.5,4.6-6.3,8.8c-9.3,21.7-18.6,43.5-27.9,65.2c-1.8,4.1-2,7.1-0.6,8.8C107.7,347.1,110.4,347.8,114.4,347.8z"/>
		<path fill="#0091D2" stroke="#34C5F1" stroke-miterlimit="10" d="M196,367.3c-10.5-0.2-19-2.4-24.1-7.2c-5.9-5.5-7.3-13.3-4.5-23
			c1.2-4.3,1.8-6.5,3.1-10.9c8.9,0,13.4,0,22.3,0c-1,4.3-1.5,6.5-2.5,10.9c-1,4.2-0.6,7.1,1.2,8.8c1.5,1.4,4.3,2.1,8.3,2.1
			c4.1,0,7.2-0.8,9.1-2.1c2.3-1.5,3.9-4.4,4.7-8.8c0.7-4.1,1.1-6.2,1.8-10.3c0.9-5.5-0.8-10-4.9-13.7c-1.3-1.3-2.7-2.3-4-3.1
			c-1.3-0.8-2.2-1.2-2.5-1.3c-0.1,0-0.1,0-0.2,0c-0.9-0.2-2.5-1.1-5-2.5c-2.5-1.4-4.8-3.3-7-5.6c-3.6-3.7-5.9-8-6.9-12.9
			c-1-4.8-0.7-10,0.9-15.5c2.7-9.8,5.5-19.5,8.2-29.3c17.8,0,35.7,0,53.5,0c-0.9,7.7-1.3,11.6-2.2,19.3c-12.7,0-25.3,0-38,0
			c-0.9,4-1.4,6-2.3,10c-1.2,5.5-0.1,10.2,3.6,14c1.5,1.5,2.9,2.6,4.2,3.3c1.3,0.7,2,1.1,2.1,1.2c1.2,0.4,2.9,1.2,5.2,2.5
			c2.3,1.3,4.6,3,6.9,5.3c7.4,6.2,12.4,18.6,10.8,28.2c-0.5,4.1-0.7,6.2-1.2,10.3c-1.1,9.7-5.5,17.3-13.6,23
			C215.7,365.1,204.4,367.5,196,367.3z"/>
		<path fill="#0091D2" stroke="#34C5F1" stroke-miterlimit="10" d="M282.9,367.1c-10.7,0-19.4-2.4-25.5-7.2c-7-5.5-9.9-13.3-9-23
			c1.8-21.7,3.7-43.5,5.5-65.2c0.8-9.7,4.3-17.4,10.1-23c5-4.8,11.3-7.2,19-7.2c7.7,0,14,2.4,19,7.2c5.8,5.5,9.3,13.3,10.1,23
			c1.8,21.7,3.6,43.5,5.4,65.2c0.8,9.7-2.1,17.4-9.1,23C302.3,364.7,293.6,367.1,282.9,367.1z M283,260.9c-3.2,0-5.5,0.7-7,2.1
			c-1.7,1.6-2.7,4.6-2.8,8.8c-0.6,21.7-1.3,43.5-1.9,65.2c-0.1,4.2,0.8,7.1,2.9,8.8c1.8,1.4,4.7,2.1,8.7,2.1c4.1,0,7.1-0.8,8.7-2.1
			c2-1.5,3.1-4.4,2.9-8.8c-0.6-21.7-1.2-43.5-1.8-65.2c-0.1-4.3-1.2-7.2-2.8-8.8C288.6,261.7,286.3,260.9,283,260.9z"/>
		<path fill="#0091D2" stroke="#34C5F1" stroke-miterlimit="10" d="M371.4,367.1c-8.4,0.2-19.7-2.2-26.9-7.2
			c-8.1-5.6-12.5-13.3-13.6-23c-2.5-21.7-5-43.5-7.5-65.2c-1.1-9.7,0.9-17.4,5.5-23c4-4.8,9.9-7.2,17.5-7.2c7.7,0,14.4,2.4,20.4,7.2
			c6.9,5.5,11.9,13.3,14.7,23c6.2,21.7,12.3,43.5,18.5,65.2c2.8,9.7,1.4,17.5-4.5,23C390.3,364.7,381.9,366.9,371.4,367.1z
			 M350.2,260.9c-3.2,0-5.4,0.7-6.6,2.1c-1.4,1.6-1.8,4.6-1.1,8.8c3.7,21.7,7.4,43.5,11.2,65.2c0.7,4.2,2.3,7.1,4.7,8.8
			c2.1,1.4,5.1,2.1,9.1,2.1c4.1,0,6.9-0.8,8.3-2.1c1.6-1.5,2.2-4.4,1.2-8.8c-5-21.7-9.9-43.5-14.9-65.2c-1-4.3-2.6-7.2-4.6-8.8
			C355.9,261.7,353.5,260.9,350.2,260.9z"/>
		<path fill="#0091D2" stroke="#34C5F1" stroke-miterlimit="10" d="M459.8,367.1c-9,0.2-20.6-2.7-28.4-7.2c-7.7-4.5-15.9-14-18.2-23
			c-6.9-21.7-13.7-43.5-20.6-65.2c-3.1-9.7-2.6-17.4,0.9-23c3.1-4.8,8.4-7.2,16.1-7.2c7.7,0,14.9,2.5,21.8,7.2
			c7.8,5.2,15.4,14.4,19.3,23c10.5,21.7,21,43.5,31.6,65.2c4.7,9.7,4.9,17.5,0.1,23C478.3,364.7,470.4,366.9,459.8,367.1z
			 M417.4,260.9c-3.2,0-5.2,0.7-6.2,2.1c-1.1,1.6-0.9,4.6,0.7,8.8c8.1,21.7,16.2,43.5,24.2,65.2c1.6,4.2,3.7,7.1,6.4,8.8
			c2.4,1.4,5.6,2.1,9.6,2.1c4.1,0,6.8-0.8,7.9-2.1c1.3-1.5,1.3-4.4-0.6-8.8c-9.3-21.7-18.6-43.5-27.9-65.2c-1.9-4.3-4.1-7.2-6.3-8.8
			C423.3,261.7,420.6,260.9,417.4,260.9z"/>
	</g>
</g>
</svg>
