<?xml version="1.0" encoding="utf-8"?>
<!-- Generator: Adobe Illustrator 22.0.1, SVG Export Plug-In . SVG Version: 6.00 Build 0)  -->
<svg version="1.1" id="Layer_1" xmlns="http://www.w3.org/2000/svg" xmlns:xlink="http://www.w3.org/1999/xlink" x="0px" y="0px"
	 viewBox="0 0 567.1 556.7" enable-background="new 0 0 567.1 556.7" xml:space="preserve">
<path fill="#A7A9AC" stroke="#F26522" stroke-width="2" stroke-miterlimit="10" d="M547,437l-65.9-234.2
	c-4.5-16.1-17.3-26.9-31.7-26.9h-49.6c-13,0-24.3-9.2-26.6-22.1c-8.6-48.9-45.5-85.7-89.6-85.7s-81,36.8-89.6,85.7
	c-2.3,12.8-13.6,22.1-26.6,22.1h-49.6c-14.4,0-27.1,10.8-31.7,26.9L20.1,437c-7.1,25.4,8.9,51.6,31.7,51.6h463.6
	C538.1,488.7,554.2,462.4,547,437z M283.6,112.1c15.4,0,29.2,7.5,39.1,19.6c14.4,17.7,1.8,44.2-21,44.2h-36.1
	c-22.8,0-35.4-26.5-21-44.2C254.3,119.6,268.2,112.1,283.6,112.1z"/>
<g>
	<g>
		<path fill="#F04B23" stroke="#FBB040" stroke-miterlimit="10" d="M156.4,243.3c4.2,0,6.3,0,10.5,0
			c-17.6,47.9-35.2,95.9-52.8,143.8c-10.7,0-16,0-26.7,0c14.8-34.8,29.6-69.6,44.3-104.4c-10.3,7.2-20.7,14.2-31.2,21
			c4.9-10.2,9.9-20.4,14.8-30.6C129.3,263.5,143,253.7,156.4,243.3z"/>
		<path fill="#F04B23" stroke="#FBB040" stroke-miterlimit="10" d="M171.2,388.8c-11.4-0.2-20.4-2.9-25.7-8.4
			c-6.2-6.5-6.5-19.1-3.1-26.9c8.4-25.5,16.8-50.9,25.2-76.4c3.3-10.3,9.2-19.9,17.4-26.9c6.6-5.6,13.9-8.4,21.8-8.4
			c8,0,13.9,2.8,17.8,8.4c4.5,6.5,6.1,15.5,4.4,26.9c-4,25.5-7.9,50.9-11.9,76.4c-1.5,10.8-7.3,20.6-16.1,26.9
			C193.2,386,180.6,389,171.2,388.8z M201.4,264.3c-3.3,0-6,0.8-8,2.5c-2.3,1.9-4.1,5.3-5.5,10.3c-6.9,25.5-13.9,50.9-20.8,76.4
			c-1.3,4.9-1.1,8.4,0.7,10.3c1.6,1.6,4.5,2.5,8.8,2.5c4.5,0,7.9-0.9,10-2.5c2.6-1.8,4.6-5.2,5.6-10.3c5.4-25.5,10.9-50.9,16.3-76.4
			c1.1-5.1,0.8-8.5-0.5-10.3C207.1,265.2,204.9,264.3,201.4,264.3z"/>
		<path fill="#F04B23" stroke="#FBB040" stroke-miterlimit="10" d="M267.7,388.8c-8.3,0-20.7-2.7-27.5-8.4
			c-6.9-5.9-10.5-18.1-8.7-26.9c3.1-25.5,6.2-50.9,9.3-76.4c0.7-9.1,5.3-20.4,11.8-26.9c5.5-5.6,12.1-8.4,20.1-8.4
			c8,0,14.4,2.9,19.5,8.4c6.1,6.6,9.9,18,10,26.9c1.4,25.5,2.7,50.9,4.1,76.4c1.2,9.1-3.4,21.2-10.5,26.9
			C288.7,386,276.2,388.8,267.7,388.8z M272,264.3c-3.3,0-5.8,0.8-7.4,2.5c-1.9,1.9-3,5.3-3.3,10.3c-1.6,25.5-3.2,50.9-4.9,76.4
			c-0.3,4.9,0.6,8.4,2.8,10.3c1.9,1.6,5,2.5,9.4,2.5c4.5,0,7.7-0.9,9.5-2.5c2.2-1.8,3.5-5.2,3.5-10.3c0.1-25.5,0.2-50.9,0.4-76.4
			c0-5.1-1-8.5-2.6-10.3C277.8,265.2,275.4,264.3,272,264.3z"/>
		<path fill="#F04B23" stroke="#FBB040" stroke-miterlimit="10" d="M364.2,388.8c-8.9-0.1-21.6-2.7-29.2-8.4
			c-8.5-6.4-13.5-16.3-14.3-26.9c-2.2-25.5-4.4-50.9-6.6-76.4c-1.2-8.4,0.8-20,6.2-26.9c4.4-5.6,10.4-8.4,18.3-8.4
			c8,0,15,2.8,21.3,8.4c7.8,7,13,16.7,15.6,26.9c6.7,25.5,13.3,50.9,20,76.4c2.9,8.1,1.5,20.7-4.9,26.9
			C384.3,386.4,372.1,388.8,364.2,388.8z M342.5,264.3c-3.3,0-5.6,0.8-6.9,2.5c-1.5,1.9-1.9,5.3-1.2,10.3c3.7,25.5,7.4,50.9,11,76.4
			c0.7,4.9,2.3,8.4,4.9,10.3c2.2,1.6,5.5,2.5,9.9,2.5c4.5,0,7.5-1,9-2.5c1.8-1.8,2.4-5.2,1.4-10.3c-5.2-25.5-10.4-50.9-15.5-76.4
			c-1-5.1-2.8-8.5-4.8-10.3C348.5,265.2,345.9,264.3,342.5,264.3z"/>
		<path fill="#F04B23" stroke="#FBB040" stroke-miterlimit="10" d="M506.6,387.1c-9.5,0-19.1,0-28.6,0c-13-15.1-25.7-30.3-38-46
			c-0.6,7.1-1,10.7-1.9,17.9c3.3,9.4,6.7,18.8,10,28.1c-10.7,0-16,0-26.7,0c-14.3-47.9-28.6-95.9-42.9-143.8c7.4,0,11,0,18.4,0
			c6.9,19.4,13.9,38.9,20.8,58.3c1.2-19.4,1-39-0.4-58.3c8,0,11.9,0,19.9,0c2.8,22.8,4.3,45.3,4.3,68.2
			C462.2,337.6,484,362.7,506.6,387.1z"/>
	</g>
</g>
</svg>
