<?xml version="1.0" encoding="utf-8"?>
<!-- Generator: Adobe Illustrator 22.0.1, SVG Export Plug-In . SVG Version: 6.00 Build 0)  -->
<svg version="1.1" id="Layer_1" xmlns="http://www.w3.org/2000/svg" xmlns:xlink="http://www.w3.org/1999/xlink" x="0px" y="0px"
	 viewBox="0 0 567.1 556.7" enable-background="new 0 0 567.1 556.7" xml:space="preserve">
<path fill="#A7A9AC" stroke="#61CDF6" stroke-width="2" stroke-miterlimit="10" d="M547,437l-65.9-234.2
	c-4.5-16.1-17.3-26.9-31.7-26.9h-49.6c-13,0-24.3-9.2-26.6-22.1c-8.6-48.9-45.5-85.7-89.6-85.7s-81,36.8-89.6,85.7
	c-2.3,12.8-13.6,22.1-26.6,22.1h-49.6c-14.4,0-27.1,10.8-31.7,26.9L20.1,437c-7.1,25.4,8.9,51.6,31.7,51.6h463.6
	C538.1,488.7,554.2,462.4,547,437z M283.6,112.1c15.4,0,29.2,7.5,39.1,19.6c14.4,17.7,1.8,44.2-21,44.2h-36.1
	c-22.8,0-35.4-26.5-21-44.2C254.3,119.6,268.2,112.1,283.6,112.1z"/>
<g>
	<g>
		<path fill="#20C4F4" stroke="#AEE1F7" stroke-miterlimit="10" d="M97.8,388.8c-10.9-0.2-19-2.8-23-8.4c-6-8.3-1.4-18.6,1.6-26.9
			c2.5-5.1,3.7-7.6,6.2-12.7c9.1,0,13.7,0,22.8,0c-2.2,5.1-3.3,7.6-5.5,12.7c-2.1,4.9-2.5,8.4-1.1,10.3c1.2,1.6,3.9,2.5,8,2.5
			c4.3,0,7.6-0.9,10-2.5c2.8-1.8,5.2-5.2,7.1-10.3c1.8-4.8,2.7-7.3,4.5-12.1c2.4-6.4,1.8-11.8-1.4-16c-1-1.5-2.1-2.7-3.2-3.6
			c-1.2-0.9-1.9-1.4-2.2-1.5c-0.1,0-0.1,0-0.2,0c-0.8-0.3-2.3-1.2-4.4-2.9c-2.1-1.6-4-3.8-5.6-6.6c-2.7-4.4-3.8-9.4-3.4-15.1
			c0.3-5.7,2.2-11.7,5.3-18.2c5.5-11.4,11.1-22.8,16.6-34.3c17.6,0,35.3,0,52.9,0c-2.9,9-4.3,13.5-7.2,22.6c-12.6,0-25.3,0-37.9,0
			c-2,4.7-3,7-5,11.7c-2.8,6.4-2.9,11.9-0.2,16.4c1.1,1.8,2.2,3.1,3.3,3.9c1.1,0.8,1.7,1.3,1.8,1.4c1.1,0.4,2.6,1.4,4.6,2.9
			c2,1.5,3.9,3.6,5.6,6.2c6.7,9.7,7.4,22,3.7,33c-1.5,4.8-2.3,7.3-3.8,12.1c-3.4,11-10.5,20.5-19.9,26.9
			C119.6,385.8,107.3,388.9,97.8,388.8z"/>
		<path fill="#20C4F4" stroke="#AEE1F7" stroke-miterlimit="10" d="M187.9,388.6c-10.9-0.3-19.4-2.9-24.6-8.4
			c-6.1-6.5-6.7-19-3.6-26.9c7.4-25.4,14.7-50.9,22.1-76.3c2.9-10.1,8.1-19.8,15.9-26.9c6.1-5.6,13-8.4,20.6-8.4
			c7.6,0,13.2,2.8,17.1,8.4c4.5,6.5,6.2,15.5,4.8,26.9c-3.1,25.4-6.3,50.9-9.4,76.3c-1.2,10.6-6.3,20.4-14.7,26.9
			C208.8,385.8,196.8,388.8,187.9,388.6z M213.6,264.3c-3.2,0-5.7,0.8-7.5,2.5c-2.1,1.9-3.8,5.3-5,10.3c-6,25.4-11.9,50.9-17.9,76.3
			c-1.2,4.9-0.9,8.4,0.9,10.3c1.5,1.6,4.4,2.5,8.5,2.5c4.3,0,7.4-0.9,9.5-2.5c2.4-1.8,4.2-5.2,5.1-10.3c4.5-25.4,9.1-50.9,13.6-76.3
			c0.9-5.1,0.5-8.5-0.7-10.3C219,265.2,216.9,264.3,213.6,264.3z"/>
		<path fill="#20C4F4" stroke="#AEE1F7" stroke-miterlimit="10" d="M279.6,388.6c-8,0-19.9-2.8-26.3-8.4
			c-6.7-5.9-10.4-18.1-8.9-26.9c2.3-25.4,4.7-50.9,7-76.3c0.4-8.9,4.4-20.2,10.6-26.9c5.1-5.6,11.3-8.4,18.9-8.4
			c7.6,0,13.7,2.8,18.7,8.4c6.1,6.7,9.9,18,10.1,26.9c1.9,25.4,3.8,50.9,5.7,76.3c1.3,8.9-2.6,21-9.4,26.9
			C299.6,385.8,287.7,388.6,279.6,388.6z M280.7,264.3c-3.2,0-5.5,0.8-7,2.5c-1.8,1.9-2.8,5.3-2.9,10.3c-0.9,25.4-1.9,50.9-2.8,76.3
			c-0.2,4.9,0.8,8.4,2.9,10.3c1.8,1.6,4.8,2.5,9,2.5c4.3,0,7.3-0.9,9-2.5c2-1.8,3.2-5.2,3.1-10.3c-0.5-25.4-1-50.9-1.5-76.3
			c-0.1-5.1-1.2-8.5-2.8-10.3C286.2,265.2,283.9,264.3,280.7,264.3z"/>
		<path fill="#20C4F4" stroke="#AEE1F7" stroke-miterlimit="10" d="M371.2,388.6c-8.8,0.2-20.8-2.8-28-8.4
			c-8.3-6.5-13.2-16.4-14.2-26.9c-2.7-25.4-5.4-50.9-8.1-76.3c-1.2-11.3,0.7-20.4,5.3-26.9c3.9-5.6,9.6-8.4,17.2-8.4
			c7.6,0,14.4,2.8,20.4,8.4c7.6,7.1,12.7,16.8,15.4,26.9c6.9,25.4,13.9,50.9,20.8,76.3c3,8,2.1,20.4-4,26.9
			C390.7,385.7,382.1,388.3,371.2,388.6z M347.7,264.3c-3.2,0-5.3,0.8-6.5,2.5c-1.4,1.9-1.7,5.3-0.9,10.3
			c4.1,25.4,8.2,50.9,12.3,76.3c0.8,4.9,2.4,8.4,4.9,10.3c2.2,1.6,5.3,2.5,9.4,2.5c4.3,0,7.1-1,8.5-2.5c1.7-1.8,2.2-5.2,1.1-10.3
			c-5.5-25.4-11.1-50.9-16.6-76.3c-1.1-5.1-2.8-8.5-4.8-10.3C353.5,265.2,351,264.3,347.7,264.3z"/>
		<path fill="#20C4F4" stroke="#AEE1F7" stroke-miterlimit="10" d="M506.5,386.9c-10.9,0-16.3,0-27.2,0
			c-12.8-15-25.2-30.3-37.1-45.9c-0.4,7.1-0.7,10.7-1.4,17.8c3.4,9.4,6.8,18.7,10.2,28.1c-10.1,0-15.2,0-25.4,0
			c-14.7-47.9-29.5-95.7-44.2-143.6c7,0,10.5,0,17.5,0c7,19.4,14.1,38.8,21.1,58.3c0.3-19.5-0.2-38.8-1.8-58.3c7.6,0,11.3,0,18.9,0
			c3.2,22.7,5.1,45.2,5.7,68.1C463.2,337.4,484.4,362.5,506.5,386.9z"/>
	</g>
</g>
</svg>
