<svg id="Capa_1" enable-background="new 0 0 512 512" height="512" viewBox="0 0 512 512" width="512" xmlns="http://www.w3.org/2000/svg"><g><path d="m447.812 167.186h-383.624c-31.308 0-56.688 25.38-56.688 56.688v202.275c0 31.308 25.38 56.688 56.688 56.688h383.624c31.308 0 56.688-25.38 56.688-56.688v-202.275c0-31.308-25.38-56.688-56.688-56.688z" fill="#6ad6bd"/><path d="m64.188 167.186c-31.308 0-56.688 25.38-56.688 56.688v202.275c0 31.308 25.38 56.688 56.688 56.688h163.645c-77.241-60.827-78.443-206.956-67.419-315.651z" fill="#2bbcb9"/><path d="m7.5 397.058v29.091c0 31.308 25.38 56.688 56.688 56.688h383.624c31.308 0 56.688-25.38 56.688-56.688v-29.091z" fill="#e58996"/><path d="m7.5 426.149c0 31.308 25.38 56.688 56.688 56.688h163.645c-26.011-20.483-43.401-50.634-54.601-85.779h-165.732z" fill="#dd5c6e"/><path d="m449.448 254.633h-35.011c-6.789 0-12.293-5.504-12.293-12.293v-19.51c0-6.789 5.504-12.293 12.293-12.293h35.011c6.789 0 12.293 5.504 12.293 12.293v19.509c0 6.79-5.504 12.294-12.293 12.294z" fill="#f6ee86"/><path d="m67.552 254.633h-60.052v142.425h60.052c12.302 0 22.274-9.972 22.274-22.274v-97.876c0-12.303-9.972-22.275-22.274-22.275z" fill="#f6ee86"/><ellipse cx="256" cy="325.012" fill="#fff" rx="120.781" ry="120.781" transform="matrix(.707 -.707 .707 .707 -154.837 276.213)"/><ellipse cx="256" cy="325.012" fill="#4e5660" rx="72.046" ry="72.046" transform="matrix(.973 -.23 .23 .973 -67.824 67.511)"/><circle cx="288.021" cy="300.436" fill="#f6ee86" r="23.088"/><path d="m190.282 129.574h131.435v37.612h-131.435z" fill="#dd5c6e"/><path d="m324.056 129.574h-136.112c-16.517 0-29.906-13.389-29.906-29.906v-40.599c0-16.517 13.389-29.906 29.906-29.906h136.112c16.517 0 29.906 13.39 29.906 29.906v40.599c0 16.517-13.389 29.906-29.906 29.906z" fill="#4e5660"/><path d="m304.481 86.868h-96.962c-4.142 0-7.5-3.358-7.5-7.5 0-4.143 3.358-7.5 7.5-7.5h96.962c4.142 0 7.5 3.357 7.5 7.5s-3.358 7.5-7.5 7.5z" fill="#f6ee86"/><path d="m453.395 303.714h-42.905c-4.142 0-7.5-3.357-7.5-7.5s3.358-7.5 7.5-7.5h42.905c4.142 0 7.5 3.357 7.5 7.5 0 4.142-3.358 7.5-7.5 7.5z" fill="#fff"/><path d="m48.663 288.714c-4.142 0-7.5 3.357-7.5 7.5v59.264c0 4.143 3.358 7.5 7.5 7.5s7.5-3.357 7.5-7.5v-59.264c0-4.143-3.358-7.5-7.5-7.5zm207.337-43.248c-43.862 0-79.546 35.685-79.546 79.546s35.684 79.546 79.546 79.546 79.546-35.685 79.546-79.546-35.684-79.546-79.546-79.546zm0 144.092c-35.591 0-64.546-28.955-64.546-64.546s28.955-64.546 64.546-64.546 64.546 28.955 64.546 64.546-28.955 64.546-64.546 64.546zm193.448-186.521h-35.011c-10.914 0-19.793 8.879-19.793 19.793v19.51c0 10.914 8.879 19.793 19.793 19.793h35.011c10.914 0 19.793-8.879 19.793-19.793v-19.51c0-10.914-8.879-19.793-19.793-19.793zm4.793 39.303c0 2.643-2.15 4.793-4.793 4.793h-35.011c-2.643 0-4.793-2.15-4.793-4.793v-19.51c0-2.643 2.15-4.793 4.793-4.793h35.011c2.643 0 4.793 2.15 4.793 4.793zm-6.429-82.654h-118.594v-22.976c18.191-2.523 32.245-18.168 32.245-37.042v-40.599c0-20.626-16.781-37.406-37.407-37.406h-136.112c-10.717 0-20.937 4.608-28.038 12.643-2.743 3.104-2.451 7.844.653 10.587s7.844 2.449 10.586-.653c4.256-4.815 10.378-7.577 16.798-7.577h136.111c12.355 0 22.407 10.052 22.407 22.406v40.599c0 12.354-10.052 22.406-22.407 22.406h-136.11c-12.355 0-22.407-10.052-22.407-22.406v-25.375c0-4.143-3.358-7.5-7.5-7.5s-7.5 3.357-7.5 7.5v25.375c0 18.874 14.054 34.518 32.245 37.042v22.977h-118.594c-35.394-.001-64.188 28.793-64.188 64.187v202.275c0 35.394 28.794 64.188 64.188 64.188h367.418c4.142 0 7.5-3.357 7.5-7.5s-3.358-7.5-7.5-7.5h-367.418c-27.123 0-49.188-22.065-49.188-49.188v-21.592h140.433c51.456 64.917 149.585 65.035 201.135 0h140.432v21.592c0 20.158-12.625 38.596-31.415 45.881-3.862 1.498-5.779 5.842-4.282 9.704 1.497 3.861 5.84 5.776 9.704 4.282 24.52-9.506 40.994-33.565 40.994-59.867v-202.275c-.001-35.394-28.795-64.188-64.189-64.188zm-250.03-22.612h116.436v22.612h-116.436zm-115.456 237.709c0 8.146-6.628 14.774-14.774 14.774h-52.552v-127.424h52.552c8.146 0 14.774 6.628 14.774 14.774zm173.674 63.51c-62.463 0-113.281-50.817-113.281-113.281s50.817-113.281 113.281-113.281 113.281 50.817 113.281 113.281-50.818 113.281-113.281 113.281zm241-48.735h-130.18c11.092-18.972 17.46-41.028 17.46-64.546 0-70.734-57.546-128.281-128.281-128.281s-128.281 57.547-128.281 128.281c0 23.518 6.368 45.574 17.46 64.546h-51.793c2.502-4.357 3.941-9.399 3.941-14.774v-97.876c0-16.418-13.357-29.774-29.774-29.774h-52.552v-23.259c0-27.122 22.065-49.188 49.188-49.188h383.624c27.123 0 49.188 22.066 49.188 49.188z"/></g></svg>