<?xml version="1.0" encoding="utf-8"?>
<!-- Generator: Adobe Illustrator 22.0.1, SVG Export Plug-In . SVG Version: 6.00 Build 0)  -->
<svg version="1.1" id="Layer_1" xmlns="http://www.w3.org/2000/svg" xmlns:xlink="http://www.w3.org/1999/xlink" x="0px" y="0px"
	 viewBox="0 0 435.1 435.1" enable-background="new 0 0 435.1 435.1" xml:space="preserve">
<g id="D2gdZv.tif_1_">
	<g>
		<g>
			<path fill="#D0C6BD" d="M239.9,24.1c0,0.3,0,0.6,0.1,1c-4.4,3.2-9.4,1.6-14.1,1.9c-5.1-0.5-10.6,1.5-15.3-1.9
				c0.1-0.3,0.1-0.6,0.1-0.9C220.4,24.1,230.1,24.1,239.9,24.1z"/>
			<path fill="#D3A48C" d="M134.6,356.4c-5.6-5.6-7.4-12.9-9.4-20.2c-1.6-5.7-3.2-11.5-4.7-17.2c-1.8-7.9-2.5-15.7,0.6-23.4
				c1.9-4.7,5.2-7.6,10.2-7.1c5.3,0.6,7.9-1.9,10.1-6c1.3-2.4,2.4-5,4.9-6.3c4.7-2.7,9.5-0.2,14.3-0.5c1.1,1.8,0.1,3.4-0.3,5.1
				c-3.1,10.8-8.2,20.8-11.2,31.7c-1.1,4-1,7.2,2.2,10c0.6,0.5,1.2,1.1,1.4,1.8c2,6.7,6.2,12.2,9.6,18.2c-4.4,10.1-4.1,20,2,29.4
				c1.2,1.8,2.4,3.5,4.4,4.5c4.1,2,7.5,5.1,11.4,7.5c2.2,1.4,3.5,3.5,3.4,6.2c-0.1,0.6-0.3,1.1-0.6,1.6c-2.9,1.6-4.9-0.5-6.7-2
				c-8.9-7.4-17.2-15.5-25.3-23.7C146.7,361.5,142.4,355.2,134.6,356.4z"/>
			<path fill="#201B15" d="M368.5,116.5c6.4,14.1,6.4,28.9,3.2,43.4c-3.2,14.7-6.7,29.6-13.8,43.2c-4-0.4-3-3.3-2.5-5.5
				c1-4.5,2.3-8.8,2.3-13.5c0-2.4-0.3-4.5-1.5-6.6c-1.7-5.6-0.3-11.4-1.2-17c-1-6.7-2.5-13.3-5.4-19.5c-1-4.5-2.8-8.9-1.4-13.7
				c0.8-2.9-1.6-3.7-3.6-4.3c-4.1-1.2-6.9-3.3-7-8.1c0-2.3-1.7-3.8-3.3-5.3c-1.6-1.5-2.2-3.2-0.8-5.2c1.3-1.8,3.2-2.2,5.2-1.5
				c8.3,2.7,17.7,2.7,23.6,10.8C363.6,115.6,366.8,114.7,368.5,116.5z"/>
			<path fill="#967263" d="M338.2,301.5c-12.4,10.8-19.3,26.3-31.3,37.4c-4,1.7-8.2,3-11.8,5.7c-1.6,1.2-3.5,2.5-5.8,1.6
				c-0.5-4.3,3.5-6.3,5.1-9.6c0.5-1,1.7-1.6,2.3-2.6c0.8-1.3,2.3-2.7,0.8-4.1c-1.4-1.3-3-0.1-4,0.9c-2.3,2.2-4.7,4-8.1,3.3
				c-1.1-0.3-2.1-0.7-2.3-2c0.6-1.7,2.3-2.5,3.4-3.9c1.2-1.5,2.5-3.1,1.6-5.2c-0.8-2-2.7-1.7-4.4-2c-3.5-0.5-7-1.3-5.7-6.2
				c5.5-1.1,11-2.1,16.6-0.9c3.8,0.9,6.7-1.2,10-2.1c8.6-7.5,17.8-14.4,24.9-23.3c4.5-5.6,2.7-9.4-4.3-11.5
				c-0.9-0.3-1.8-0.6-2.3-1.6c6.4-5.5,13.5-7.4,21.6-4.4c2.5,1,4.5,2.3,4.3,5.4c-0.5,2.6-2.4,4.8-2.6,7.6
				C342.8,289.5,340.8,295.6,338.2,301.5z"/>
			<path fill="#E8B7A0" d="M147.5,276.8c-4.3,2.5-4.6,7.9-7.8,11.2c-1.2,1.3-1.8,2.8-4,2.6c-11.6-0.7-14.9,2.5-15,14.4
				c-0.1,4.7-0.1,9.3-0.1,14c-3.5-9.4-7-18.7-10.5-28.1c-0.8-6.1,1.6-11.5,5.9-14.9c7.6-6.2,11.3-14.5,14.8-23.1
				c3.2-7.8,8.2-11.5,15.6-11c3.4,1.8,2.4,4.8,2,7.6c-0.5,3.3-0.4,6.3,3.9,6.7c2.8,0.8,5.2,2.1,7.3,4.1
				C156.7,266.7,153,272.5,147.5,276.8z"/>
			<path fill="#2E2920" d="M368.5,116.5c-4,0.2-7-0.5-10-4.1c-3.2-3.8-7.7-7.9-14.1-5.6c-2.3,0.8-3.4-1.3-5-2.4
				c-1.8-1.2-3.8-1.3-5.2,0.5c-1.5,2.1,0.1,3.2,1.7,4c1.9,0.9,3.5,2.6,3.2,4.5c-0.9,5.9,3,6.9,7.2,8.4c3.1,1.1,6,2.1,3.1,7
				c-2.1,3.6,1,8.1,1.6,12.3c-1.2,0.7-2.2,0.1-3.2-0.5c-0.7-0.6-1.1-1.3-1.4-2.1c-0.5-2.6-1.3-4.9-4.6-5c-2.2-0.1-5.1,0.7-6.4-1.8
				c-1.6-3.3-5.3-6.5-4.2-10c2.3-7.4-0.7-11.6-6.5-15.1c0.1-2.3,1.2-4.4,1.4-6.7c1.3-1.9,3.2-2,6.5-1.4c-3.4-2.1-5.6-3.9-8.5-3
				c-2.1,0.7-0.6,2.7-0.9,4.1c-5.8,3.7-12.3,3.3-16.7-1.5c-4.2-4.6-9.2-7.5-15.3-8.5c-1.2,0.1-2.4,0-3.5-0.6
				c-0.5-0.4-0.9-0.8-1.2-1.4c-0.4-4.5,1.2-6.7,5.1-7.1c2.8-0.3,4.9,2.7,8.6,0.7c2.3-1.3,6,1.8,9,3c5.6,2.3,11.6,1.5,17.5,1.4
				c2.8-0.1,5.7-0.9,8.6-1c6.3-0.2,8,1.7,7.2,8c-0.1,0.8-0.3,1.5-0.3,2.3c0.1,2.3,2,2.6,3.7,3.1c3.7,1.2,7.4,2.6,9.9,5.8
				c2.5,3.2,6.3,1.2,9.2,2.4C366.3,109.5,368,112.8,368.5,116.5z"/>
			<path fill="#998C7A" d="M174.2,33.3c3.8-2,7.7-3.7,11.9-4.4c9.9,1,19.5-1.4,29.2-2.6c1.8-0.2,3.8-0.9,4.6,1.2
				c2.5,6.6,9.4,7.6,14.1,11.5c-0.2,4.2-3.7,2.8-5.6,2.9c-4.6,0.2-8.7,1.5-13.3,4.2c4.7,0.5,8.2-0.6,11.6-2.5
				c6-3.2,9.4-2.7,13.5,1.5c0.2,1.2-1,2.3,0.3,3.6c1.6,1.5,3.6,3.7,1.5,5.9c-2,2.1-5.1,1.8-7.5,0.5c-2.6-1.4-4.9-2.9-8-2.5
				c-2.8,0-5.7,0.1-8.5-0.4c-0.8-0.1,0.2-0.2-0.6-0.1c-10.7,1.3-21.3-1.3-32-1.3c-2.8,0-5.4,0.3-7.4-2.2c-2.1-2.7-0.7-5.1,0.6-7.5
				c1.1-2.1,1.8-4.3,2.4-6.4C178.3,36.5,176,36.5,174.2,33.3z"/>
			<path fill="#696155" d="M103.2,92c1.4-2.7,2.8-5.4,5.4-7.2c4.9,1.5,1.9,4.9,1.6,7.4c-0.3,3.2-2.1,6.5,2.4,8.2
				c2-0.7,2.9-3,5.1-3.4c4.7,1.7,6.6,6.2,9.5,9.6c0.9,1.1-0.1,3.2-1.7,3.9c-4.4,1.9-4.9,4.9-3,9c0.9,1.8,0.7,3.8,0.2,5.7
				c-0.2,0.8-0.6,1.5-1,2.2c0.4,3.2,2.6,5,5.3,4.8c3.2-0.2,7.2-0.2,8.4-4.6c0.4-1.5,0.8-3.1,2.7-3.4c2.8,0.5,5.6,1.6,8.5,0.3
				c1.2-0.6,2.8-0.6,3.5,0.9c0.8,1.7,0.1,3-1.2,4.1c-1.2,1.1-2.5,1.9-4,2.2c-3,0.7-5.4,2.1-7.3,4.4c-1.2,1.4-2.6,2.7-4.5,2.1
				c-3.7-1.1-6.2,1.1-9.2,2.5c-3.1,1.5-4.1,3.1-2,6.3c1.3,1.9,2.3,4,3.5,6c-3.7,2.7-8.6,0.9-9.4-4.2c-0.9-5-2.4-6.9-7.5-4.7
				c-2,0.9-4.2-0.1-5.9-1.5c-1.3-2.1-1-4.2,0.3-6c2.4-3.5,2.8-7,0.8-10.9c-1.3-2.5-1.2-5.3-0.4-7.9
				C106.1,109.1,104.7,100.6,103.2,92z"/>
			<path fill="#554D42" d="M275,33.5c4.3,1.4,8.9,2.2,12.9,4.6c-3,4.3-0.9,6.6,3.2,7.9c5.8,1.8,9,8.2,15.4,8.9c2,1,3.8,2.4,5.6,3.7
				c4.2,3.8,7.9,7.9,10.6,12.9c1.5,2.8,1.7,5.1-1,7.1c-1.7,0.8-2.5,2.8-4.4,3.3c-4.2,0.7-7.3-0.1-7.9-5c-0.2-1.6-1.1-2.8-3.3-3.2
				c0.1,3.2-1.2,5.4-4.8,5.1c-4.7-1.1-9.4-1.7-13.7-4.5c-2.7-1.8-6.2-2.1-9.5-0.6c-1.7,0.8-3.7,2.2-5.4,0.4
				c-1.6-1.7-0.5-3.6,0.4-5.4c0.4-0.5,0.8-0.8,1.4-1c5.3,1.4,9.3-0.9,12.3-4.9c-3.7-0.2-8.1-0.4-10.6-4.8c2-2.4,4.7-0.8,7.1-1.2
				c1.2-1.5-0.9-2.8-0.4-4.2c2.1-2.9,4.6-1,6.8-0.4c-3.6-2.8-7.6-4.9-11.8-6.9C271.9,42.5,271.3,39.5,275,33.5z"/>
			<path fill="#797266" d="M121.7,125.9c-0.1-2.1,0.4-4.7-0.5-6.3c-3-5-2.5-8.2,3.4-10.2c2.6-0.9,2.6-3.4,0.5-4.3
				c-3.2-1.4-5.4-2.9-5.4-6.7c0-0.2-1.7-0.4-2.7-0.6c-0.3-0.2-0.5-0.6-0.8-0.8c-1.1-1.3,0.1-4.9-2.7-4.1c-3,0.9-1.7,3.7-0.8,5.8
				c0.5,1.2,1.3,2.4,0.8,3.8c-4.7-0.8-6.1-3.5-5.4-8.1c0.5-3.1,3.7-6.3,0.5-9.6c0.9-1.8,1.9-3.6,3.6-4.7c3-0.7,6.1,0.4,9.2-0.2
				c3.6-0.7,5.6-1.7,5-5.9c-0.3-2-0.9-4.8,2.4-5.5c3.3,5.1,5.2,5.4,9.9,1.6c1.6-1.3,2.9-3.1,4.9-4c3.2,0.4,2.4,4,4.5,5.4
				c0.4,1.7-0.7,2.9-1.6,4.1c-1.3,1.7-3.8,2.7-1.7,6c1.3,2.1-1.8,3.9-3.5,5.4c-3.3,3-8.5,3.8-10.2,8.8c-0.4,1.1-2.1,0.6-3.2,0.9
				c-2.9,1.1-2.5-2.4-4.2-3c0,3.4,0,3.4,4.3,2.9c7.7,4.4,7.8,4.4,12.6-1.6c1.3-1.5,3.2-3.2,4.9-2.4c3.6,1.6,5.7-0.6,8.1-2.3
				c0.9-0.2,1.7,0,2.4,0.6c0.8,4.2-2,6.4-4.6,8.8c-4.1,0.1-7.7,1.9-11.3,3.7c-4.1,2.1-4.7,5.3-1.4,8.6c2.9,2.8,4.4,5.4,0.6,8.5
				c-0.5,0.1-1.1,0.1-1.6-0.1c-1.5-0.9-2.4-2.4-3.9-3.3c-5-2.8-6.6-2.1-8.5,3.3C124.5,122.3,125.2,125.5,121.7,125.9z"/>
			<path fill="#ECC3A8" d="M146.3,242.9c-6.9,0.2-11.5,3.6-14,9.8c-3.6,9-6.9,18.2-15.6,24.3c-4.3,3-4.9,9-6.6,13.9
				c-4.6-9.5-9.9-18.7-11.5-29.3c1.1-0.4,2.4-0.5,3.3-1.4c2.3-1.7,4.3-4.1,7.7-3.8c1.1,0.2,2.2,0.6,3.4,0.3c7-1.7,7-1.7,10.1,5.2
				c3.8-3,4.4-7.4,5.7-11.5c1.8-5.6,4.4-10.5,10.7-11.7C142.7,237.9,146.1,238,146.3,242.9z"/>
			<path fill="#BE9780" d="M134.6,356.4c3-4.6,5.6-1.3,8.1,0.5c8.8,6.6,15.7,15.2,23.8,22.4c5,4.5,9.5,9.7,16.1,12.1
				c2.5-0.7,3.9,0.9,5.2,2.6c0.4,1.7-0.2,2.9-1.6,3.9c-3.4,1.8-6.1-1.2-9.2-1.4c-2.5-0.1-4.8-1.3-7.3-1.4
				C153.4,386.3,144,371.3,134.6,356.4z"/>
			<path fill="#716A5D" d="M103,142.2c2.6-0.1,5.1,1.5,7.8-0.2c4.7-3.1,6-0.3,6.3,4.1c0.3,5.6,3.3,7.9,8.1,6.7
				c-0.1-1.1,0.2-1.5,1.3-1c0.4,0.4,0.8,0.8,1.3,1.2c0.5,0.4,1,0.5,1.6,0.4c-1-0.5-2.2-0.8-3-1.7c1.6-4.3,4.9-3.1,7.6-1.9
				c3.1,1.3,6.2,2.1,9.5,2.5c2.4,3.2-1.6,7.1,1.2,10.3c0.5,0.6,1.1,1,1.8,1.4c5.3,3,11.9,2.7,16.7,6.9c0.8,0.9,1.4,1.8,1.7,3
				c0.5,1.9,0.3,3.9,1.3,5.7c0.7,1.6,1.4,3.2,0.3,5c-0.5,0.3-1,0.4-1.6,0.3c-2.7-2.8-4.8-6.4-9.4-6.7c-1.2-0.1-2.4-1.1-2.4-2.8
				c0.9-1.7,3.4-0.3,4.5-2.5c-4.1-1-7.8-2.8-11.7-4.2c-4.3-2.9-9.7-3.9-13.8-7.3c-1.9-1.6-3.2-0.7-3.9,1.4c-0.7,2.1-1.7,3.9-3.4,5.3
				c-2,1.2-3.4,4.1-6.5,2.6c-1-1.7-0.2-3.3,0.1-4.9c1.2-2.9,0.1-5.1-2.6-6.1c-4.2-1.7-6.3-4.7-7.3-8.9c-0.4-1.7-1.2-4.2-3.8-3.2
				c-2,0.8-1.3,2.9-0.8,4.6c0.5,1.6,1.5,3.2,0.1,4.9c-2.2,1.3-4.6,1.1-6.9,1.2c-1-0.2-1.7-0.7-1.4-1.9c1.1-4.8,2.5-9.4,4.7-13.8
				C101.3,141.6,102.1,141.6,103,142.2z"/>
			<path fill="#887968" d="M174.2,33.3c2.4,1.7,5.1,1.3,8.3,0.9c-0.8,3.1-0.6,6.2-2.9,8.6c-1.3,1.3-2.2,2.8-0.9,4.6
				c1.2,1.7,2.8,2.8,5,2.1c6.3-1.9,12-0.4,17.9,1.7c2.2,0.8,5.2-0.4,7.8-0.9c2.8-0.5,5.6-1.4,8.3,0.6c-0.4,0.5-0.8,0.9-1.4,1.1
				c-5.9,1.8-12.3,1.9-18,4.6c-6.9,2.1-14.1-0.7-21.2,0.9c-3.5,0.8-10.1-6-10.7-9.8c-1.2-6.8-3.1-7.6-8.7-3.9
				c-1.9,1.3-3.4,3.2-5.4,4.4c-5.3,2.4-5.3,2.4-7.3,0C153.9,41.8,163.2,35.9,174.2,33.3z"/>
			<path fill="#8A7C6A" d="M234,39.3c-5.1-1.5-10.3-2.8-13.4-7.9c-2.7-4.6-7-5.9-13.3-2.6c-6.7,3.5-13.5,0.2-20.2,1.4
				c-0.3,0-0.7-0.9-1-1.3c7.5-5.2,16.1-3.4,24.4-3.8c5.1,0.1,10.2,0.3,15.4,0.4c1.5,3.7,3.3,6.2,7.4,2.4c2.2-2.1,5.1-1.6,7.7-0.7
				c5.9,2,11.9,3,18.1,3.8c7.1,0.8,8.8,3.6,7,10.6c-2.9,1.6-5.5,0-8.3-0.6c-6.7-1.4-13.4-2.9-20.4-2.1
				C236.3,39.3,235.2,39.9,234,39.3z"/>
			<path fill="#F8C0B7" d="M80.9,227.8c-1.5-5-2.1-9.9-1.5-15.3c0.9-8.1,0.3-16.3,0.4-24.5c2.7,0.5,2.1,2.7,2.5,4.5
				c0,7.2,0,14.4,0,21.6c0,1.7-0.2,3.5,0.4,5.2c1,2.7,1.8,6,4.9,6.8c2.6,0.7,3.8-2.2,5.4-3.8c1.7-1.6,3.2-3.5,5.8-3.4
				c2.7,0.7,3.8,2.9,4.9,5.1c0.7,1.4,1,2.9,2.2,4c3.3,2.6,3.4,5.7,0.4,8.2c-2.8,2.4-1.4,6.3-3.8,8.7c-0.8,0.2,0.2,0.1-0.5,0.3
				c-14.2,3.5-17.6,1.4-20-12.8C81.8,230.7,81.8,229.1,80.9,227.8z"/>
			<path fill="#2E2C26" d="M311.3,59.2c-1.7-1-3.8-1.4-4.7-3.5c-4.5-1.5-6.6-4.5-5.9-8.9c0.3-1.9,0.6-4.1,3.5-2.8
				c14.6,3.7,24.4,13.7,33,25.3c-3,3.3-14.4,3.6-16.1,0.1C318.9,64.9,314.8,62.3,311.3,59.2z"/>
			<path fill="#46453F" d="M311.3,59.2c4.3,1.8,8.1,4.2,10.2,8.6c0.8,1.6,2,3.7,3.7,2.9c4-1.8,8.1-0.8,12.1-1.4
				c6.8,9.8,15.4,18.2,22.9,27.4c-0.2,1.6-0.4,3.2-2.3,3.5c-1.9,0.3-2.9-1.1-3.5-2.5c-1.6-3.9-4.1-6.5-8.5-6.9
				c-3.8-2.6-6.3-6.8-11.5-7.7c-2.7-0.5-5.3-1.9-8.3-1.8c-2.4,0.1-5.1,0.1-5.5-3.4c2.7-1.5,2.2-3,1-5.7
				C319.1,67,314.5,63.7,311.3,59.2z"/>
			<path fill="#74675A" d="M265.7,41.6c-0.2-8.8-0.3-8.7-9.1-9.4c-5.5-0.5-11-1.5-16.2-3.7c-2.4-1-4.8-1.8-6.7,1
				c-1.7,2.6-3.9,3.6-6.9,2c-3.4-1.7-0.1-4.1-0.8-6.1c4.7-0.1,9.4-0.2,14.1-0.4c11.7,2.9,23.7,4.3,35,8.4
				c-2.3,6.2-0.5,10.5,6.1,11.8c4.9,1,7.2,5.5,11.4,7.3c-2.9,2.8-6.3-2.1-9.2,0.8c-5,0.3-8.1-4.2-12.6-5.1c-0.4-0.4-0.7-0.9-0.7-1.4
				c0.5-2.1-0.1-3.5-2.3-4C266.8,42.7,266.1,42.3,265.7,41.6z"/>
			<path fill="#81695A" d="M289.1,345.9c5.1-1.5,8.8-5.8,14-7.3c1.6-0.4,2.5,0,3.8,0.3c-4,5.4-8.3,10.5-13.1,15.2
				c-7.5,5.4-12.7,13-19.1,19.4c-2.7,2.7-5.6,5.3-8.4,8c-1.1,0.3-2.2,0.5-3.3-0.3c-1.4-5.4,2-9.1,4.7-12.9
				c3.5-4.8,8.4-8.5,11.6-13.6C281.9,351,285.8,348.8,289.1,345.9z"/>
			<path fill="#595247" d="M103,142.2c-0.8,0-1.6,0.1-2.4,0.1c0.8-13.9-3.5-27.6-1.1-41.6c0.6-3.4,1-6.4,3.7-8.7
				c5.5,3.2,1.8,8.8,3,13.1c1.1,3.9,0.5,8.3-1.3,12.3c-1.2,2.6-1.3,5.3,0.2,7.8c2.5,4.3,2.6,8.3-1.1,12
				C102.7,138.7,103.1,140.5,103,142.2z"/>
			<path fill="#332A22" d="M356.9,177.4c4.4,5,1.8,10.6,1,15.9c-0.4,3.3-3.6,6.5-0.1,9.8c-1.1,2.5-1.9,5-3.2,7.4
				c-3.1,5.9-5.4,11.8-2.5,18.5c1,1.5,0.5,2.3-1.2,2.7c-6.9-2-7.4-2.7-6.8-9.2c0.4-1.2,1.2-2.1,2-3c2.6-10.9,5.1-21.9,8.3-32.7
				c0.5-1.6-0.4-3.5-0.1-5.2C354.6,179.9,353.8,177.4,356.9,177.4z"/>
			<path fill="#837B6E" d="M144,66.2c-2.3,2.9-4.4,5.9-8.1,7.2c-5.5,1.9-6.6,1.3-7.2-4.8c-1.5-2.1-0.7-5.1-2.6-7.1
				c4.2-5.8,11.2-7.6,16.6-11.7c0.6,3-1.1,6.2,1.2,8.9C144.7,61.2,146.1,63.7,144,66.2z"/>
			<path fill="#997467" d="M183.7,405.5c-1.6-1.1-3.2-2.2-4.8-3.3c-0.4-1.9,1.1-1.9,2.3-2.1c8.4,1.4,16.8,2.2,25.3,0.8
				c2-0.3,4.2,0,5.3,1.7c2.4,4,6.1,4.2,10.1,4.2c2.6,1,4.2-1.1,6.2-1.8c2.8-1,5.8-3.5,8.6,0.1c-2,5-6.7,6.4-11.1,7.3
				c-5.9,1.1-11.9,1.2-17.9,0.2C200.6,407.3,192.6,405,183.7,405.5z"/>
			<path fill="#3B3833" d="M346.3,89.6c4.6,0.1,7.5,2.3,8.8,6.8c1.2,4.3,3.2,3.4,5.1,0.3c3.2,2.3,4.4,5.6,4.8,9.3
				c-4.2,1.9-7.9,2.1-11.1-2.3c-2.5-3.5-6.8-4.5-10.7-5.1c-2.6-0.4-2.7-1.4-2.7-3.2C341.9,93,344,91.2,346.3,89.6z"/>
			<path fill="#696054" d="M126.1,61.4c5.7,0.6,2.1,4.6,2.6,7.1c-2,2.4-1.4,5.2-0.7,7.7c0.7,2.5-0.4,4.5-2.1,4.5
				c-4.5,0.1-9.3,2.6-13.7-0.7C116.9,73.8,121.5,67.6,126.1,61.4z"/>
			<path fill="#DD8A88" d="M80.8,192.7c-0.2-1.6,0.4-3.4-1-4.7c0.1-5.1,0.5-10.2,1.9-15.2c2.8-0.8,1.4-5.5,5.1-5.5
				c3-0.2,6-1.5,9,0.3c1.1,2.1-0.8,2.6-1.9,3.3c-2.6,1.7-3.6,4.3-4.9,6.8c-1,4-3.7,8.1,0.6,11.8c1,2.9-0.7,5.2-1.7,7.6
				c-0.6,1.4-1.5,2.9-3.3,2.6c-1.8-0.3-2.3-1.9-2.2-3.5C82.5,194.6,81.9,193.5,80.8,192.7z"/>
			<path fill="#433C33" d="M304.2,44c-3.5,3.3-2.5,8.3,2.4,11.7c-2.8,0.3-5.2-0.3-7.4-2.4c-2.9-2.9-6.3-4.9-10.1-6.6
				c-7.1-3.3-7-3.6-1.3-8.5C293.5,39.6,299,41.5,304.2,44z"/>
			<path fill="#6E564B" d="M207.1,411.3c4.8,0,9.6-0.2,14.4,0.1c6.3,0.3,10.8-2.8,14.9-7c6.6-5.7,13.6-11,19.4-17.7
				c2-2.3,3.2-6,7.2-5.9c1.2,0,2.4,0.1,3.6,0.1c0.6-0.4,1.1-0.4,1.5,0.2c-8.4,6.5-16.7,13.3-23.2,21.7c-5.4,6.9-12.4,9.4-20.5,10.7
				c-6.4,0.2-12.8,1.3-19.2-0.4c-0.6-0.4-0.8-1-0.8-1.6C205.4,410.6,206.3,410.7,207.1,411.3z"/>
			<path fill="#F2AFA0" d="M80.9,227.8c4,2.9,2.4,7.8,4.1,11.6c2.4,5.3,5.8,6.4,10.5,5.3c2.5-0.6,5-0.5,7.5-0.7
				c2.9-0.2,6.2-2.4,8.3,1.5c1.9,3.5,0.9,8.2-2.4,11.4c-2.3,1.5-4.7,3.1-7,4.6c-1.8-2.3-0.5-3.9,1.1-5.5c0.7-0.6,1.6-1.1,2.3-1.7
				c1-0.9,2.2-1.9,1.4-3.4c-0.6-1.2-2-0.9-3.1-0.8c-5.1,0.2-10-0.5-14.7-2.6c-1.2-0.7-2.4-1.4-3.4-2.3
				C80.5,240.3,81.7,233.8,80.9,227.8z"/>
			<path fill="#986663" d="M347.5,276.8c0.4-2.8-1.5-3.8-3.6-4.7c-1.8-2.2-0.3-4.5-0.2-6.8c0.5-2.7,1.4-5.4,3.8-6.9
				c3.9-2.5,5.4-6.4,6.9-10.3c0.4-1.1,0.9-2.1,1.9-2.7c0.3-0.1,0.6-0.1,0.8-0.2c0.6,7.8-2,15.1-3.6,22.6c-2.5,1.6-2.3,4.6-3.7,6.7
				C349.2,275.4,349.6,277.3,347.5,276.8z"/>
			<path fill="#56463B" d="M268.3,381.1c-0.5-0.1-1-0.1-1.5-0.2c4.7-7.3,11.3-13,17.3-19.1c2.9-2.9,4.6-7.5,9.7-7.7
				C285.5,363.3,278.9,374.1,268.3,381.1z"/>
			<path fill="#6E564B" d="M201.3,413.5c-5.7,0.6-10-2.2-14.1-5.6c1.1-4.4,4.4-1.7,6.6-1.7c4.4-0.1,8.5,1,11.1,5.1l0,0.1
				C203.9,412.6,202.5,412.8,201.3,413.5z"/>
			<path fill="#5B463F" d="M201.3,413.5c0.7-1.5,1.8-2.2,3.4-2.1c4,2.4,8.4,0.6,12.5,1.1c2.4,0.3,5.1-0.8,7.3,1
				C216.9,417.2,209.1,415.8,201.3,413.5z"/>
			<path fill="#503E39" d="M351,231.2c1-0.5,1-1.4,1.1-2.2c1.6,3,3.1,6,4.9,8.8c1.8,2.6,1.8,5,0,7.4c0,0-0.3-0.1-0.3-0.1l-0.3,0.1
				c-4,1.9-4.8-1.1-5-3.7C351.2,238.1,350.7,234.6,351,231.2z"/>
			<path fill="#8A6758" d="M204.8,411.3c-5.3-4.2-11.3-4.8-17.6-3.4c-1.1-0.8-2.3-1.7-3.4-2.5c9-3,16.7-0.5,23.4,5.9
				C206.4,411.3,205.6,411.3,204.8,411.3z"/>
			<path fill="#B57A71" d="M104.2,256.9c-2,1-2.4,2.7-2.3,4.7c-1.1,0.7-2.3,1-3.4,0c0.1-0.4,0.1-0.8,0.2-1.2
				c2.2-4.3,0.3-5.8-3.9-5.8c-3.3-3-6.9-5.6-9.3-9.5c1.2,0.4,2.3,0.9,3.5,1.3c3.5,2,6.9,3.8,10.9,4.7
				C102.7,251.7,105.6,252.9,104.2,256.9z"/>
			<path fill="#827262" d="M142.8,58c-3.7-2.7-1.2-5.5,0-8.3c0.7-0.5,1.5-0.9,2.2-1.4c2.6,1.9,4.7-0.9,7.1-0.9
				c0.8,1.7,0.1,3.2-1,4.1C148.3,53.7,146.1,56.7,142.8,58z"/>
			<path fill="#4B342F" d="M338.2,301.5c-0.6-7.1,4.1-12.1,6.9-17.8c1.1-0.2,1.7,0.1,1.3,1.4C344,290.7,343.2,297.2,338.2,301.5z"/>
			<path fill="#704F4C" d="M346.4,285c-0.4-0.5-0.9-0.9-1.3-1.4c-0.2-2.7,1-4.8,2.5-6.8c1.6-3.4,2.8-6.9,4.8-10.1
				c1-1.6,0.8,0.7,1.3,1C351.7,273.7,349.3,279.5,346.4,285z"/>
			<path fill="#AF8686" d="M95.8,156.2c0.4,0.4,0.9,0.8,1.3,1.2c3.9-0.1,8.4-2.8,10.8,2.8c0,0.7-0.3,1.1-0.9,1.4
				c-5.3-1-10.7-3.2-15,2.3c-1.6,0.9-2,3.4-4.4,3.2c-1.2-1-1.2-2.4-1.2-3.8C89.6,160.9,92.7,158.5,95.8,156.2z"/>
			<path fill="#9C796A" d="M181.4,400.8c-1,0-1.9,0.3-2.4,1.3c-3.2-2.2-6.7-4.1-9.4-7c2.3-2.9,4.7,0.7,7.1-0.1
				C177.5,397.6,181.9,397.2,181.4,400.8z"/>
			<path fill="#81554A" d="M94.7,254.6c2.2-2.1,4.8-1.3,6,0.4c1.1,1.7,1,4.5-2.1,5.4C98.7,257.5,96.3,256.3,94.7,254.6z"/>
			<path fill="#88575B" d="M86.5,163.2c1.6,0.7,1,2.2,1.1,3.4c0,0.8-0.4,1.2-1.1,1.3c-2.3,0.9-2.3,3.2-3.1,5c-0.9,2-1.3,1.1-1.8-0.2
				C82.8,169.4,83.1,165.5,86.5,163.2z"/>
			<path fill="#D59E8F" d="M187.2,393.8c-2,0.1-3.1-1.7-4.7-2.4c0-0.4,0-0.8,0-1.2c2.1-2,4.8-1.4,7.2-1.5c2.7-0.1,5.5,0,8.1-0.8
				c1.3-0.4,2.8-0.8,3-2.4c0.2-1.6-1.1-2.4-2.3-3c-2.7-1.2-5.2-2.7-7.8-4c-5.9-3-9.6-7.4-11.3-14c-1.7-6.5-6.1-8.5-12.5-7
				c-4.2,1-5.4,3.4-4.1,7.3c0.8,2.4,2.1,4.6,3.5,6.7c1.1,1.7,2.9,3.3,2.2,5.7c-6.6-1.9-8.4-8.4-9.6-13.3c-1.7-7.1-3.4-15.2,2.6-21.8
				c0.5-0.6,0.9-1.3,1.6-1.6c5.7-2.5,8.6-6.7,8.7-12.9c5.6-3.1,8.9,1.5,11.8,4.5c3.1,3.2,5.7,7.3,7.5,11.6c1.8,4.4,2.5,8.5,0,13.3
				c-3.5,6.5,0.5,13.9,8.8,18.3c1.5,0.8,3.2,1.3,4.8,2.2c1.4,0.8,2.9,1.3,3.8,2.7c2,3,3.8,6.2,2.6,9.8c-1.2,3.8-4.8,5-8.4,5.1
				C197.5,395.4,192.1,397,187.2,393.8z"/>
			<path fill="#DE9E91" d="M147.5,276.8c3.9-5.5,7.8-10.9,11.7-16.4c6.6-5.1,14.4-6.7,22.3-8.3c8-1.6,16.1-0.4,24.2-1.4
				c1.9-0.2,3.9,0,5.7-1.5c-0.5-3.3-5.5-2.9-5.5-6.5c0.9-0.9,2.1-1.2,3.3-1.3c1.2-0.1,2.4,0.1,3.5,0.4c8.4,2.8,16.3,8.2,25.9,5.5
				c0.3,4.1-2.2,7.8-2.1,12.1c0,2.9-4,3.7-6.9,4.2c-2.2,0.4-4.4,1-4.6,3.6c-0.2,2.7,2.6,2.4,4.1,3.4c2.6,1.7,5.7,0.9,8.4,1.8
				c1.6,0.7,3.2,1.5,4,3.2c0.1,0.6-0.1,1.2-0.6,1.6c-1.4,0.9-2.8,0.9-4.4,0.7c-2.3-0.5-4.6-0.8-6.8-1.5c-0.8-0.3-1.5-0.8-2.2-1.3
				c-0.8-0.5-1.6-1.1-2.5-1.5c-6.3-2.7-8-7.3-5.1-13.5c0.6-1.4,1.9-2.4,2.3-4.4c-5.4-2.3-10,0.8-14.8,2c-0.5,0.2-1.1,0.3-1.7,0.4
				c-15.3,1.8-29.6,6.3-41.7,16.3c-1,0.8-2.1,1.8-3.6,1.2c-2.4,1-4.5,3.3-7.3,0.6C151.3,274.7,149.4,276.9,147.5,276.8z"/>
			<path fill="#D9A696" d="M168.5,377.4c-1.7-3.5-4.8-6-6.2-9.7c-3.4-8.9,0.1-13.7,9.5-12.3c4.2,0.6,8.1,2.5,8.7,7.4
				c1.3,10.6,9.6,14.2,17.7,18c2.4,1.1,5,1.9,5,4.9c0,3.5-3.2,3.4-5.5,4c-5,1.3-10.1,0.3-15.1,0.6c-0.7-6.5-7.6-6.7-10.8-10.6
				C170.9,378.7,169.6,378.2,168.5,377.4z"/>
			<path fill="#C5937E" d="M172,328.3c1.2,8-0.9,10.8-10.5,14.1c-4.3-4.5-8.2-9.2-9.1-15.7c-0.1-0.5-0.4-1.2-0.8-1.5
				c-8-5.2-4.7-12.2-2.5-18.6c3-8.8,6.7-17.5,10-26.2c1-0.9,2.1-1.1,3.4-0.6c3,2,2.2,4.4,0.3,6.4c-3.7,3.8-3.8,8.3-2.9,13.1
				c1.1,6.2-0.1,12.8,3.9,18.6c3,4.4,4.3,4.8,7.3,0.4c0.4-0.6,0.7-1.4,1.2-2c2.7-3.3,4.4-2.7,5.1,1.4
				C175.5,321.1,173.7,324.6,172,328.3z"/>
			<path fill="#CC8C80" d="M162.7,280.4c-1.2,0-2.4,0-3.6,0c0.4-1.6,0.8-3.1,1.2-4.7c8-7.9,18-12.3,28.4-15.8c5.5-1.8,11.4-2,17.2-3
				c0.3,3.7-3.4,3.2-5.1,4.8c-6.3,4.9-13.9,7.4-21,10.7c-3.9,1.8-6.8,5-10.7,6.6C167.1,279.9,165.3,282,162.7,280.4z"/>
			<path fill="#3A3227" d="M356.9,177.4c-0.1,0.1-0.4,0.3-0.4,0.4c0.5,7.7-3.2,14.8-3.6,22.3c-0.1,1.3,0.4,2.7-0.5,3.9
				c-3.2,4.2-4,9.1-3.7,14.2c0.1,1-0.4,1.9-1.3,2.4c-2.5-2-3.8-4.6-2.5-7.6c2.4-5.7,2.7-11.9,4-17.9c3.8-10.7,5.5-21.5,2.5-32.6
				c-0.8-2.4-0.5-5.1-1.8-7.4c0.3-3.6,0.7-7.1-1.4-10.4c-0.9-1.4-1-3.3,0.4-4.8c0.8,0.4,1.6,0.7,2.5,1.1
				C356.6,152.6,357.1,164.9,356.9,177.4z"/>
			<path fill="#A17061" d="M305.4,313.1c-9,4.6-18.8,0.9-28.1,2.4c-0.7,0.8-1.6,1.1-2.6,1.3c-4.9-1.5-10.4,0.6-14.9-2.9
				c-0.3-0.5-0.4-1.1-0.3-1.7c4.7-2,9.4,0,14.2,0.1c2.4,0.1,4.9,0.6,6.3-1.7c1.4-2.3,4.2-4.5,2.5-7.8c-1.8-3.4-4.8-3.1-8.1-2.5
				c-3.2,0.6-6.6,1-9.7-0.7c-1.3-1.8,0.4-2.5,1.3-3.5c2.2-1.8,5.6-1.7,7.3-4.3c0.6-0.9,1.5-1.9,1-3.1c-0.5-1.4-1.8-1.2-2.9-1.2
				c-2.1,0-4.2,0.4-6.1-1c-0.5-0.8-0.5-1.6-0.3-2.5c0.6-1.1,1.5-1.8,2.6-2.2c0.4-0.1,0.7-0.2,1.1-0.3c5.5-0.4,11.2-0.1,12.8-7.4
				c0.3-1.4,2-2.4,3.6-2.6c0.6,0,1.1,0.1,1.6,0.4c1.6,3.8,3.4,7.5,6,10.7c2,6.2,5.8,11.8,6.3,18.6c0.2,2.7,2.2,4.9,3.9,7
				C304.3,309.6,306.1,310.8,305.4,313.1z"/>
			<path fill="#AB8574" d="M289.1,345.9c-0.8,4.8-6.5,5.3-8.3,9.3c-2.4,1.6-5.3,2.2-7.9,3.3c-6.3,2.6-7.8,1.7-9.6-5
				c3.9-6.5,5.3-14.7,13.1-18.4c2.9-1.5,6.3-0.5,9.2-2.1c2.6,0.2,4.6-0.4,6.3-2.9c1.5-2.2,4.7-3.8,7-2.2c3.1,2.2,0.3,5-1,7
				C295.2,338.8,292,342.3,289.1,345.9z"/>
			<path fill="#A77B6D" d="M305.4,313.1c-8.1-6-7.7-16.1-11.5-24.2c-0.9-2-2.7-3.8-2.6-6.2c2-0.8,3.1,0.9,4.4,1.7
				c4,2.4,5.7,6.7,8.4,10.2c2.2,2.9,4.3,3.4,7.9,2.2c5.8-2,10.3-4.9,12.9-10.7c2.6-5.9,1.7-7.7-4.7-7.8c-1,0-1.9,0.1-2.9,0.1
				c-4.1,0.1-7.8-1.7-11.7-2.8c-1.6-0.5-3.3-1.4-2.6-3.7c7.1-1.4,13.4,1.2,19.8,3.7c3.7,0.1,8.7-0.4,9.8,3.2
				c1.3,4.2-0.2,8.7-3.7,12.6c-6.9,7.6-16,12.9-22,21.3C306.8,313.1,306,313,305.4,313.1z"/>
			<path fill="#8E6357" d="M322.9,275.6c-6.9,0.3-13.1-3-19.9-3.3c-7.7,0.3-14.6-1.6-20.3-6.9c-1.4-2.1-3.8-3.4-4.9-5.7
				c-0.2-0.8-0.2-1.6,0-2.4c1.7-2.4-0.8-5.1,0.6-7.5c0.5-0.2,1-0.3,1.6-0.2c3.3,1.9,4.3,5.8,7.1,8.2c14.2,9,29.1,13.7,45.9,8
				c0.8-0.3,1.7-0.3,2.5-0.2c3.3,2,6.5-0.5,9.7-0.5c-0.4,2.3-0.8,4.7-1.2,7C336.3,269.4,329.6,272.2,322.9,275.6z"/>
			<path fill="#8D6553" d="M275,315.5c0.8,0,1.6,0,2.3,0c2,2.5,3.4,5.1,7.8,4.1c3.4-0.8,5.7,2.1,4.6,5.8c-0.9,3.1-2.8,5.9-6.6,6.5
				c-2.9,0-5.4,2.3-8.4,1.3c-0.3-0.5-0.4-1-0.4-1.5c4.6-3,3.9-6.8,1.8-10.9C275.9,318.9,274.2,317.5,275,315.5z"/>
			<path fill="#A17061" d="M275,333c2.8,0.1,4.8-5,8.2-1.2c0.5,1,1.4,1.2,2.3,1.2c-1.7,3.7-5.8,1.4-8.2,3.4
				c-1.8-1.4-4.4,1.1-6.1-1.1C271.5,332.9,272.5,331.7,275,333z"/>
			<path fill="#F7C5AE" d="M108.9,256.9c0.7-2,2-3.6,2.2-5.8c0.7-6.5-4.1-6.2-8.1-7c-0.9-3.5-0.9-6.6,2.5-9.1
				c2.5-1.8,2.9-3.9-0.3-5.8c-1.8-1.1-2.5-2.9-2.3-5c6.1,1.8,6.8,1.3,5.1-4.9c-1.2-4.2-0.6-8.1,0.6-12c0.9-3,2-5.7,4.9-7.2
				c0.6-0.2,1.2-0.3,1.8-0.3c6.2,1.7,3.4,7.3,4.9,11c0.2,0.9,0.3,1.8,0.2,2.6c-0.9,4.5-3,8.8-1.3,14.2c2.8-5.4,6.1-10,5.6-16
				c0.2-2.3-0.4-4.9,1.9-6.5c3.3,4.1,3.6,14.8,0.3,19.4c-2.2,3.1-3.6,6.3-4,10.2c-0.4,3.6-0.5,7.7-5.8,7.9c-0.9,0-1.4,0.8-1.1,1.7
				c0.4,1.2,1.3,1.4,2.3,0.8c12.5-7.3,26.4-12.4,36.3-23.6c1.2-1.4,2.2-2.6,2.3-4.5c0.2-2.4,1.1-4.2,3.9-4c3.6,1.4,3.4,5.6,5.8,8
				c1.8,2.1,3.7,4.2,5.1,6.6c0.5,0.9,1.2,2,0.7,2.7c-4.2,6.5-5.3,15.4-13.2,19.3c-3.4,1.7-4.2,5.6-7.3,7.3c-4.5,1-6.5-1.2-5.8-6.4
				c0.4-2.6,2.4-5.1-0.1-7.6c-4.2-4.8-10.5-4.1-13.8,2.3c-2.5,4.7-3.9,10.1-6,15c-0.8,1.8-1.1,4.8-3.9,4.4c-2.5-0.3-1.7-3-2.2-4.8
				c-0.9-3.6-2.6-5.5-5.9-2.1C112.2,260.2,110.5,258.8,108.9,256.9z"/>
			<path fill="#EEADA3" d="M152.1,256.9c1.2-4.3,3.6-7.6,7.9-9.3c2.1-0.8,3-2.8,4.4-4.4c3.1-3.7,2.7-9.3,7-12.3
				c1.1-0.8-0.2-2.1-0.5-3.2c1.9-1.4,3.3-0.2,4.7,0.9c8.2,6.7,18.2,9,27.9,12.1c1.2,0.4,2.1,0.9,2.5,2.1c2.1,1.4,4.1,2.7,6.1,4.2
				c1,0.7,3.2,0.2,2.6,2.3c-0.4,1.5-2,1.7-3.3,1.9c-5.3,0.8-10.4,2-15.9,1.3c-6.5-0.8-13,0.6-19.3,2.1c-5.8,1.4-11.4,3.8-17,5.7
				C156.3,260.3,154.4,258.2,152.1,256.9z"/>
			<path fill="#6D6655" d="M151,99c1.4-2.8,4.2-4.9,4.7-8.2c0-5.8,4.2-8.7,8.8-5.4c3.3,2.4,6.1,3.1,9.4,0.6c1.6-1.2,3.4-1,4.9,0.1
				c3,2.1,6.8,1.6,9.9,2.8c8.3,3.2,16.8,2.1,25.2,2.5c5.1,0.2,9.1-3.3,13.9-3.7c6.5-2.1,13.7-1.6,19.9-5.4c1.8-1.2,4.6-2.2,7.2-0.8
				c1.1,5.6-2.5,8.8-6.7,10.7c-3.1,1.4-6.8,4.8-10.5,0.6c-0.5-0.5-1.1-0.3-1.4,0.3c-1.5,3.2-5.3,3.9-7.6,8c12.3-1.8,23.6-4,35.8-9.2
				c-6-2.1-4.8-8.6-9.7-10.4c-0.8-1-0.9-2-0.3-3.2c3.6-1.5,6.3,0.9,9,2.4c2.4,1.4,4.8,2.5,7.6,2.1c2-0.3,4.3-0.1,5.5,1.4
				c3,3.6,6.8,4.4,11.1,4.4c1.2,0,2.3,0,3.5,0c3.7,0.7,7.2,5.8,6.8,10.1c-0.6,6.4-1.4,12.8-2.8,19.1c0.6,1.4-4-0.6-1.5,2.8
				c2.2,3.1-1,6.6-5.9,6.7c-3.7,0.1-7.4-0.4-11,0.9c-1,0.4-2.1,0.8-3.3,0.8c-1.4-0.3-2.8-0.6-3.6-1.9c1.2-3.6,4.9-2.6,7.4-4.2
				c-6.9,1.2-13.8-0.6-20.6,1c-2.1,0.5-4.5,1.2-6.7-0.2c-0.7-2.4,1-3.3,2.7-3.4c4.1-0.3,7-3,10.4-4.6c1.4-0.7,3.1-1.3,2.1-3.3
				c-0.8-1.6-2.4-1.7-4-1.4c-2.5,0.5-4.6,2.1-7.1,2.4c-3.1,0.4-6.1,0.3-9.2,0.1c-4.2-0.2-8.6-0.9-12.7-0.3c-6,0.9-8.6-0.8-11.3-8
				c-0.7-2,0.1-5.2-1.8-5.7c-3-0.8-6.4-0.7-9.6,0c-1.7,0.4-3.1,1.5-4.5,2.5c-2.3,1.3-4.6,1.4-7.1,0.4c-4.8-4-10.5-4.6-16.4-4.2
				c-4.1,0.3-8.1,0.2-11.8-1.9c-2.8-1.6-5.5-1.3-8.2,0.5c-2.3,1.5-4.7,2.7-7.4,3.2c-0.6,0.2-1.2,0.2-1.8,0.2
				C151.9,99.7,151.4,99.4,151,99z"/>
			<path fill="#655646" d="M276.1,127c3.2-1.7,6.6-1.6,10-1.2c2.3,0.2,4.7,0.4,6.4-1.8c1.2-1.6,1.9-3.1-0.8-3.9
				c-1.2-0.4-3.7,0.6-3.1-2c0.5-2.1,2.5-1,3.9-0.6c0.7,0.2,1.5,0.1,2.3,0.2c3.9-5.7,11.1-7.2,15.4-12.7c1.6-2.1,3.5,0,3.8,2.2
				c0.3,2.3-0.5,4.6-0.8,6.9c-0.3,2-0.2,4.6,2.3,4.5c5.8-0.3,6.6,3.4,7.2,7.7c0.1,0.9,0.6,1.8,0.8,2.8c-1.4,5-1.1,10.4-4.2,14.9
				c-1.7,2.4-0.1,3.8,2.3,3.6c4.7-0.4,9.7-0.1,13.4-4.4c2.4-2.8,6.3-3.7,9.2-6.1c1.7-0.5,2.7,0.3,3.4,1.8c0.4,0.4,0.7,0.8,1.1,1.1
				c0.1,1.9,0.1,3.7,1.4,5.5c2.3,3.1,2.2,6.4,0,9.6c-0.3,0.1-0.5,0.2-0.8,0.3c-2.3-1.3-1.6-3.6-2-5.6c-0.9-4.1-2.6-4.8-6.8-2.9
				c-2.9,2.7-5.9,5.3-9.5,6.9c-7.4,6.5-17.7,6.7-25.8,11.8c-1.1,0.7-2.5,1.1-3.8,0.7c-1.3-0.9-0.6-2-0.3-3c0.4-1.3,2.3-2.6-0.1-3.8
				c-1.7-0.8-3.3-0.9-4.6,0.8c-1.2,1.5-1.8,4.4-4.7,2.7c-2.6-1.5-2.1-3.8-0.9-6c0.8-1.6-0.3-2.9-0.7-4.4c4.4-4.2,8.9-7.4,15.7-6.2
				c2.3,0.4,5.9,1.9,7.6-1.9c-0.9-4.9,0.1-9.9-1-14.8c-0.6-2.5-1.2-5.2-4.9-3.6c-3.3,3.5-9.4,3.2-11.6,8.3c-1.2,1-2.6,1.8-3.5,3.1
				c-2.1,2.3-2.4,6.4-6.8,6.2c-1.1-1-1.6-2.3-1.3-3.8c2.9-3.3,5.2-7.2,8.8-11.5C286.4,129.6,280.9,130.7,276.1,127z"/>
			<path fill="#3A3327" d="M346.3,89.6c-1,2.9-3.5,4.3-5.8,5.8c0.3-1.5,0.8-3,0.9-4.5c0.4-3.4-0.4-5.8-4.8-5
				c-3.7,0.7-7.8-0.7-11.2,2.1c-1,0.8-2.6,0.3-3.8-0.5c-1-0.6-2.3-1.6-3.1-1.4c-5.2,2-9.4,0.2-13.9-2.3c-1.6-0.9-5-5.3-7.3,0.3
				c-0.4,0.9-1.3-0.8-1.9-1.5c-2.1-2.2-4.2-1.2-6.4-0.2c-2.4,1.1-2.3,2.8-1.2,4.8c-1.9,1.1-3.2-0.3-4.8-1c-4-1.6-7.7-4.2-12.5-3.2
				c-2.7,0.5-4.7-1.4-6.7-3c-4.9-3.7-10.3-5.3-16.3-3.8c-2.6,0.6-5,0.4-7.3-1c-3.4-1.5-6.7-3.3-9.2-6c-2.9-3.2-2.5-5,1.6-6.3
				c6.6-2,14.4-4.1,19.9-1.2c6.4,3.4,13.1,3.3,19.4,5.3c0.8,0.2,1.3,0.8,1.7,1.5c-0.2,1.7-0.3,3.4-0.7,6.5
				c4.9-4.5,10.7-5.3,14.8-2.6c4.5,3,9.6,3.3,14.1,5.4c3.4,0.7,7.2,0.1,9.8,3.3c1.6,2,3.6-0.4,5.4,0.2c1.6-0.8,0.9-3.7,3.5-3.5
				c0.9,0.6,1.9,1.9,2.8,1.8C333,78.6,339.6,84.2,346.3,89.6z"/>
			<path fill="#50483B" d="M322.9,129.4c-0.7-1.1-2-2.3-2-3.4c-0.1-4.4-0.9-6.6-6.4-5.8c-3.3,0.5-3.7-3.4-3-6.2
				c0.7-2.9,1.3-5.8,1.1-9.7c-5,7.1-11.9,9.6-17.8,13.4c-0.2-3.3-1.3-6.3,1-9.8c1.7-2.5-0.7-6.5,0.8-10.3c0.9-2.2-1.7-7.1-5.3-9.2
				c4.9-1.8,7.5,3.1,11.5,4.1c1.5,0.4,3.1,1.9,4,3.3c4.3,6.8,10.2,4.8,16.2,3.2c1.7-1.1,2.7-0.5,3.4,1.2c1.9,2.4,1,4.2-1.2,5.8
				c-1.3,1.7-5,0.5-5,3.2c0.1,2.9,2.7,4.6,5.2,5.7c2.5,1,5,1.7,3.9,5.2C327.1,123,325.1,126.3,322.9,129.4z"/>
			<path fill="#3A3227" d="M328.8,120.1c0.1-1.9-0.2-3.6-2.7-3.5c-4.3,0.2-5.1-4.3-8-6c-1.7-1,0.1-2.7,1.2-3.7
				c1.8-1.7,3.9-1.4,6-0.9c1.1,0.7,2.1,1.8,3.4,2.1c5.2,1.4,6.6,5.2,4.6,9.3c-2.9,5.9,2.5,9.2,3.3,13.9c0.3,2,2.7,0.5,4.1,0.4
				c5.2-0.4,7.5,1.9,6.8,7.1c-1.1-0.4-2.3-0.8-3.4-1.2c-6.7,2.4-11.7,0.7-16.8-5.1C322.9,127.6,326.7,124,328.8,120.1z"/>
			<path fill="#544C40" d="M241.2,74.3c1.7,1.1,3.5,1.4,5.5,0.8c5.9-1.7,11.9-1.6,16.2,2.8c4.7,4.9,10.8,4.6,16.1,5
				c4.2,0.3,5.1,4.7,8.8,4.4c0,0.4,0,0.7,0,1.1c-4,1.7-7.8,3.7-10.3-2.3c-0.4-1.1-2.8-2.4-3.9-2.1c-7.7,2.1-12.3-4.3-18.5-6.2
				c-3.4,0.9-6.9,0.6-10.4,0.3c-1.9-0.1-4-0.3-4.1-3C240.8,74.9,241,74.6,241.2,74.3z"/>
			<path fill="#201B15" d="M326.4,100.2c-1.1-0.4-2.3-0.8-3.4-1.2c-1.6-0.9-3.1-2.1-1.7-4.1c1-1.4,2.7-2,4.7-1.4
				c3.5,1.1,6.5,3,9.8,5.4C332.6,101.8,329,97.1,326.4,100.2z"/>
			<path fill="#8C8371" d="M227,51.1c2.7,0,5.2-0.4,7.3,2.3c1.7,2.2,5.2,2,6.8,0.6c1.8-1.7-0.8-4.1-2.1-5.1
				c-3.2-2.4,0.6-2.5,0.9-3.6c-0.2-1.2,0.6-1.7,1.5-2.2c3.2-0.9,6.5-0.5,9.8-0.4c1.5,0.1,3.5,0.2,3.9,1.9c0.4,1.7-1.2,2.7-2.5,3.5
				c-2.3,3-4.7-2.1-7.3,0.3c2.8,2.8,5.4,1.6,8.1-0.1c1.7,0,3,0.7,3.9,2.1c0.7,1.6,1.5,3.2,1.9,4.9c0.9,3.7-0.5,6.1-4.6,6.3
				c-3.3,0.2-6.6-0.3-9.9,0.4c-2.2,0.1-4.4,0.4-6.5,0.3c-3.3-0.8-6.7-1.6-10.2-1.7c-2.3-0.1-4.9-0.5-5.7-3c-0.8-2.5,1.9-3,3.2-4.2
				C226,52.7,226.5,51.9,227,51.1z"/>
			<path fill="#A49786" d="M241,44c-0.4,0.4-0.8,0.8-1.2,1.2c-4.9-3.5-9.7-2.9-14.2,0.8c-3.5,2.8-7.9,1-11.6,2.5
				c-0.3,0.1-1.6-1-1.5-1.3c0.2-0.9,0.8-1.9,1.5-2.3c3.8-2.2,7.6-4.2,12.2-4.3c2.6-0.1,5.4,1.1,7.7-1.1c0.8-0.4,1.5-0.8,2.3-1.2
				c3.7-0.8,7.2,0.3,10.9,0.6c1.2,0.1,2.5,0.2,2.5,1.8c0,1.6-1,2.5-2.5,2.8C245.2,43.7,242.9,42.3,241,44z"/>
			<path fill="#766D5B" d="M227,51.1c2.6,4.5-1.5,4.4-4.9,5.4c4.8,4.9,11.6,0.8,15.5,5.1c-2.7,1.8-5.9,1.3-8.9,2.1
				c-4.8,0.6-7.5-4.5-12-4.4c-1.1-0.3-2.1-0.9-2.8-1.9c-1.3-3,1.7-4.1,2.6-6.2c0.4,0,0.8-0.1,1.2-0.1C220.8,51,223.9,51,227,51.1z"
				/>
			<path fill="#645749" d="M126.4,151.7c-0.4,0.4-0.8,0.7-1.2,1.1c-4.6-1-3.7-6.1-6.5-8.6c-0.4-0.3,0.8-3.4,1.3-3.5
				c4.7-0.2,7.5-6.6,13-3.9c0.5,0.2,1.5,0.4,1.6,0.3c3-5.4,8.9-6.2,13.7-8.8c0.9-0.5,1.6-1.4,1.1-2.4c-0.8-1.6-2.1-0.7-2.9-0.1
				c-3.2,2.1-5.9,1-8.5-1.1c-0.4-0.4-0.5-0.9-0.4-1.5c0.4-1.6,1.6-3.3,3-3.1c4.5,0.6,3.6-2.9,4.4-5.1c2.5-1.3,4.6-0.1,5,2.2
				c0.8,4.9,4.2,6.1,8.2,6.7c1.1,0.1,2.2,0.3,3.3,0.4c2.6,0.3,5.2-0.2,7.7,0.9c0.5,0.3,0.8,0.8,0.9,1.3c-1.8,8.2-7.3,1.5-11.4,2.7
				c0.6,1.3,2.2,2.1,1.9,3.6c-1.1,2.1-2.6,3.6-4.8,4.4c1.4,2.1,4.9,2.4,6,5.3c-0.4,1.7-1.8,1.9-3.2,2.2c-4.7,0.5-9.3,1.1-11.3,6.5
				c-0.4,1.2-1.8,2.1-3.4,1.5c-3.4,0.2-6.6,0.6-9.8-1.7C131.9,149.4,128.9,149.2,126.4,151.7L126.4,151.7z"/>
			<path fill="#897F74" d="M121.7,125.9c1.9-1.3,0.8-3.7,2.1-5.2c1.6-2.1-0.7-7,3.5-6.8c4.2,0.2,9.2,0.6,10.7,6.1
				c-2.2,4.2-2.2,9.9-8.4,11.1c-4,0.7-7.5,0.7-9.1-4C120.9,126.7,121.3,126.3,121.7,125.9z"/>
			<path fill="#797266" d="M120.6,127.1c6,5.3,11.4,4.1,13.6-3c0.6-1.9,2.3-3,3.9-4.1c0,0,0.1,0.1,0.1,0.1c0.9,1.2,0.8,2.3,0,3.5
				c0,0.4,0,0.8-0.1,1.2c-0.9,5.5-4.2,8.2-9.8,9.1c-5.2,0.8-6.4-3.8-9.6-5.7C119.3,127.8,119.9,127.4,120.6,127.1z"/>
			<path fill="#948B81" d="M113.5,102.5c-1.1-1.8-2.4-3.6-3.1-5.6c-0.7-1.8-1-3.9,1.3-5.1c1.3-0.7,2.6-2.2,4.2-1.2
				c1.8,1.1,1,3.2,1.2,4.8c0.1,0.8,0,1.6,0,2.3C115.9,99.4,114.7,100.9,113.5,102.5z"/>
			<path fill="#7E7565" d="M244.5,61.5c2.3-2,5.1-1,7.7-1.1c6-0.3,6.4-0.9,4.4-6.6c-0.4-1.2-0.3-2.6-0.4-4c-0.4-3.7,1.2-5.7,5.1-6.2
				c2.2-0.3,4.7-0.3,6.6-1.9c2.2,0,3.7,1.1,4.3,3.1c0.4,1.3-0.9,1.3-1.9,1.5c-1.9,1.9-4.4,1.1-6.6,1.7c-1.2,0.3-2.3,0.8-2.8,1.9
				c-0.7,1.6,1.1,1.7,1.8,2.5c3.5,3.8,7.6,5.9,12.8,5.1c0.2,0.2,0.4,0.3,0.6,0.5c3.5,1.9,6.9,4,11.1,3.6c1.5-0.2,3.6,0.2,3.5,2.1
				c-0.1,1.7-1.8,2.3-3.5,1.3c-1.1-0.6-2.2-0.4-2.3,0.5c-1,8.7-6.3,3-9.9,3c-7.4-3.4-15.2-5-23.1-6.4
				C249.5,61.7,246.9,62.8,244.5,61.5z"/>
			<path fill="#585042" d="M244.5,61.5c9.4-2,18.1,3.2,27.5,2.7c2.5-0.1,1.7,3.1,3,4.4c-0.4,0-0.9,0-1.3,0.1c-4-0.7-8-1.3-12-1.3
				c-2.5,0-6.8,2.1-6.4-3.7c0.1-1.2-1.5-0.9-2.4-0.9c-7.7,0-15.4-0.4-22.9,2.8c2.5,4.7,7.1,6.4,11.2,8.8c0,0-0.2,0.2-0.2,0.2
				c-2.3,2.7-4.7,0.7-7.1,0.2c-1.1-0.2-2.3-0.5-3.3-0.9c-6.5-2.6-7.2-5.9-2.3-11.1c2.9-2.3,6.3-0.5,9.4-1.2
				C239.9,61.5,242.2,61.5,244.5,61.5z"/>
			<path fill="#483E33" d="M270.3,47.4c5.1,0.3,8.9,3.4,12.9,6c1,1.6,4.3,2.5,2.8,4.9c-1.2,2-3.5,0.2-5.3-0.1
				c-1.5-0.2-3.1-0.2-4.6-0.2c0,0-0.1,0.1-0.1,0.1c-2.7-0.9-5.5-1-8-2.5c-1.5-0.9-4.4-1-3.6-3.5C265.3,49.5,266.4,46.4,270.3,47.4z"
				/>
			<path fill="#46453F" d="M317.1,81.4c-6,2.8-10.1-2.6-15.2-3.5c3.5-1.9,3.5-1.9,0.6-4.8c6.2-1.8,7.6-1.2,8.2,4.8
				C311.1,82.8,315.4,79.6,317.1,81.4z"/>
			<path fill="#81796B" d="M228.2,88.4c-11.3,5.4-22.9,6.2-35,2.7c-2.5-0.7-5-1.7-7.9-1.1c-1.5,0.3-3.8-0.2-4.9-1.2
				c-2.7-2.5-4.8-3-7.8-0.3c-1.9,1.7-4.9,2.1-7.3-0.3c-4.7-4.7-6.4-4.2-9.6,2.5c-0.8,0-1.6,0-2.3,0c-1.5-3.9,1.5-6.6,3.5-8.5
				c4.9-4.8,7.8-11.1,13.2-15.5c-1.6-1.4-3.7-0.1-5.1-1.6c2.8-5.7,11.9-7.6,15.7-3.1c1.8,2.1-1,5.3,1.2,7.5c0.4,2.6-1.4,4.3-2.6,6.2
				c-1.3,1.9-2.8,3.7-3.1,6.8c3.7-0.3,6.8-1.3,9.6-3.5c2.6-2,5.1-3.5,6.3,1.4c0.7,2.9,2.9,2.9,5.1,2.2c3.8-1.2,7.5-1.7,11.5-1.1
				c1.1,0.2,2.3-0.2,3.4-0.6c2.5-0.8,5.9-1.2,5.9-4.6c0-3.2-1.8-5.6-5.1-7.1c-3.7-1.6-7.3-3.4-10.6-5.9c4.5-3.8,13.3-3.3,17.7,1.3
				c2.5,2.7,5.8,4.5,7.9,7.7c1.5,2.3,4.2,1.5,6.4,1.9c2,0.4,4.1,1.2,3.5,3.6c-0.8,3-0.4,6.7-4.1,8.3
				C231.8,87.2,229.8,87.5,228.2,88.4z"/>
			<path fill="#736757" d="M181.4,69.8c-2.1,0-1.8-2.3-2.8-3.1c-2-1.6,4.9-3.4-0.2-4.3c-3.6-0.6-7.3-3.4-10.7,0.5
				c-0.7,0.9-1.7,1.5-2.6,2.2c0.1,1.1-0.6,1.7-1.5,2.1c-3.4,0.9-6.6-0.1-9.7-1.4c-2.1-2.3,0.3-3.4,1.4-4.7c1.6-1.9,2.9-3.7,1.2-6.8
				c-0.7,1.8-1.6,3.2-3.1,4c-7.2,3.9-7.2,4.3-3.4,11.7c-0.5,1.3-1.3,1.7-2.6,0.9c-3.9,0.4-1.9-3.5-3.5-4.8c-0.4-2.7-0.8-5.4-1.2-8.2
				c1.3-5.1,8.2-5.3,9.3-10.5c2-2.9,4.7-4.8,7.9-6.6c5.1-2.8,7.5-0.6,7.3,3.8c-0.3,6.2,4.5,7.9,7.9,11c0.6,0.6,2,1.1,2.6,0.8
				c6.6-3.6,13.4,0.8,20-0.9c0,0.2,0.2,0.4,0.1,0.5c-0.2,0.4-2.3,9.4-2.2,9.9C191.3,68.9,187.3,73.2,181.4,69.8z"/>
			<path fill="#837B6E" d="M153.3,65.1c3.5,0.4,7.1,0.8,10.6,1.2c1.5,2.7-0.6,4-2.2,5.3c-4,3.4-8.2,6.6-10.1,11.8
				c-0.7,2-2.7,2.7-4.5,3.4c-2,0.7-3.9,1.7-5.7,2.8c-3.6,2.2-2.7,4.1,0.2,5.9c-5.4,7.7-8,7.9-14,1.2l0,0c1.4-1.3,3.7-1.8,3.8-4.5
				c0.1-2,1.9-3.4,4-3.5c3.6-0.2,5.1-3.3,7.5-5.1c1.6-1.2,2.3-3.5-1.4-3.3c-1.1,0.1-1.9-0.3-2.1-1.5c-0.1-0.9,0.4-1.5,1.4-1.5
				c4.5,0.3,4.9-3.6,6.7-6.2c0.9-0.1,1.8-0.3,2.2-1.3C149.4,66.9,150,65,153.3,65.1z"/>
			<path fill="#A7A193" d="M141.6,95.5c-1.9-0.1-4.3,0.7-5.2-1.6c-1-2.3,1.3-4.1,2.8-4.5c8.5-2.5,12.3-10.1,17.7-15.8
				c2.3-2.5,6.6-3,7-7.3c0.4-0.4,0.8-0.8,1.2-1.1c1.1-0.2,2.3-0.3,3.4-0.7c1.7-0.6,3.4,0,4,1.3c0.9,2-1.1,2.5-2.5,3
				c-0.4,0.1-0.8,0.3-1,0.5c-4.7,7.6-12.2,13.1-15.7,21.5c-2,1.8-2.3,8.1-7.3,2.6C145,92.4,142.8,94.2,141.6,95.5z"/>
			<path fill="#6C6254" d="M138.1,123.6c0-1.2,0-2.3,0-3.5c3.3-2.5,3.5-4.6-0.3-7c-4.6-2.9-4.1-8.8,1-10.7c3.9-1.5,7.4-5.1,12.2-3.3
				c0.4,0,0.8,0,1.2,0c0.4,2.6-1.6,3.3-3.2,4c-9.1,4.4-9.2,4.3-3.8,12.3c0.4,1.2,0.8,2.5,1.3,3.7c0.9,2.3-0.1,3.9-2.2,2.5
				C140.9,119.4,139.9,122.2,138.1,123.6z"/>
			<path fill="#696155" d="M127.6,96.6c-3.2,2.6-6.2,2.1-6.8-1.1c-0.3-1.8,0.3-3.8,2.1-4.3c2-0.7,3.4,0.5,3,2.8
				C125.7,95.5,126.5,96.1,127.6,96.6C127.6,96.6,127.6,96.6,127.6,96.6z"/>
			<path fill="#BF8F84" d="M187.2,393.8c4.2,0,8.5-0.1,12.7,0c4,0.1,9.1,0,9.8-4.2c0.8-4.2-1.1-9.1-6.2-11.1
				c-0.4-2.2-4.8-1.7-3.3-5.1c1.1-0.7,2.2-0.7,3.4-0.3c8.5,6.5,17.9,10.4,28.8,10.5c3.1,0,5.8-1.8,9.1-1.5c6,0.5,8,3.5,5,8.8
				c-2,3.6-5.7,5.8-8.4,8.8c-0.5,0.4-1,0.7-1.6,0.9c-4.7,1.2-9.6,1.2-14.2,3.1c-2.3,1-4.6-0.1-6.7-1.1c-5.5-2.8-11.1-4-17.5-2.9
				c-4,0.7-8.7,1.5-12-2.5C186.5,396.2,186.9,395,187.2,393.8z"/>
			<path fill="#AB8477" d="M186.1,397.3c5.3,1.4,10.6,1.8,16,0.3c3.2-0.9,6.2-0.1,8.9,1.6c6,3.9,12.2,3.3,18.5,1.3
				c2.7-0.9,5.3-0.8,8-0.9c0.5,2.9-1.5,3.9-3.6,4c-4.4,0.1-8,2.2-11.6,4.2c-4.5,0.1-9.4,2-11.6-4.7c-0.6-2-3.7-1-5.8-0.7
				c-7.9,1-15.9,1.3-23.5-1.6c-0.7-1.5-1.8-2.2-3.4-2.4c-3-0.2-1.9-1.9-1.3-3.5C180.1,394.5,182.5,398.4,186.1,397.3z"/>
			<path fill="#D3B39E" d="M162.8,171.4c-5.4-3.6-12.4-3-17.6-7c-1.2-6.5,5.5-14.2,12.1-13.1c6.6,1.1,12.9,3.8,18.7,7.2
				c1,0.6,1.5,1.7,1.6,2.9c0,0.9-0.3,1.7-1,2.4c-1.7,1.3-4.2,1.8-4,4.9c0.1,1.7-1,3.3-2.9,3.9C167.2,173.3,164.9,173.1,162.8,171.4z
				"/>
			<path fill="#A8806F" d="M165.1,184.3c0.4,0,0.7,0,1.1,0c4.8-1.2,6.9-7,12.3-7.2c2.9-0.1,5.8-0.3,8.7,0.3c1.6,0.3,3.2,1,3.5,2.6
				c0.4,2-1.2,3.1-2.8,4c-0.7,0.4,0.2-0.1-0.5,0.2c-6.7,3.5-8.2,6.8-6.3,13.8c0.7,2.7,2.8,2.1,4.7,2.3c1.8,0.1,3.6-0.7,5.3,0.5
				c0.7,1.8,0,3-1.4,4c-2.7,1.1-5.4-0.3-8.1-0.2c-7.7-0.7-7.8-1-7.6-8.8c0.1-2,0.6-4.2-1.3-6.3c-5,4-3.3,10.3-5.5,15.1
				c-0.3,0.6-0.8,1-1.5,1.2c-3-0.2-3-2.5-3.2-4.5c-0.2-2.3-0.1-4.6,0-6.9c0-0.7,0.2-1.3,0.3-2C164,190,162.6,186.5,165.1,184.3z"/>
			<path fill="#6E5C4F" d="M118.2,170.3c2.7,0.1,3.7-2.8,5.9-3.5c3.5,1.3,7,1.7,10.8,1.4c3.1-0.2,6.6-0.2,9.2,2.3
				c0.1,0.6-0.1,1.1-0.6,1.5c-7.4-0.3-11,3.7-12.3,10.6c-0.3,1.9-1.7,3.5-2.9,5c-2,1.4-1.4,6.1-5.2,5c-3.5-1-2.9-4.6-2.9-7.4
				c0-3-0.5-5.7-2-8.3c-1-1.9-1.7-3.9-0.7-6C117.8,170.8,118,170.6,118.2,170.3z"/>
			<path fill="#59493F" d="M144,171.4c-3.7-1.1-7.4-2.5-11.5-1.4c-3.4,0.9-6.4,0-8.4-3.1c3.6-1.7,1.1-6.9,4.9-8.4
				c4.5-1.8,4.8,4.7,8.4,4.4c3.7-0.3,5.5,3.5,8.7,4C147.8,170.7,147.4,171.5,144,171.4z"/>
			<path fill="#C9AB96" d="M165.1,184.3c-0.6,2.7,0.8,5.8-1.3,8.3c-0.5-0.4-0.8-0.8-1-1.4c-0.9-2.7,0.3-6.1-2.5-8.1
				c-3.8-2.8-8.2-4.3-12.7-5.8c-1.7-0.6-3.5-0.1-4,1.5c-1.7,6.4-7.2,9.4-11.2,13.7c-0.5,0.3-1,0.4-1.6,0.2c-1-1.2-1-2.6-0.8-4.1
				c0.1-0.6,0.3-1.1,0.5-1.6c3-4.6,5.3-9.6,8.2-14.3c1.6-1,3.4-0.5,5.1-0.6c3.4,0,6.7,0.2,9.2,3c3,3.3,9.1,1.3,10.9,6.5
				C164.4,182.5,164.8,183.4,165.1,184.3z"/>
			<path fill="#837A6D" d="M104.1,156.2c-0.2-2.7-2.9-4.5-2.3-7.5c0.4-2.1,1.3-3.1,3.1-3.7c2.1-0.7,3.7,0.4,4,2.2
				c1.2,6.1,4.8,9.8,10.1,12.6c2.5,1.3,2.2,3.8,0.4,5.9C113.3,164.1,108.6,160.4,104.1,156.2z"/>
			<path fill="#BEA48E" d="M176.7,162.2c-0.9-5.1-6.3-4.2-9.4-6.4c-2.2-1.6-6-2.2-9.1-3c-5.5-1.4-11.4,3.9-13,11.6
				c-0.4-0.3-0.9-0.7-1.3-1c-1.4-10.3,4.8-16.5,14.8-15c2.9,2.3,6.4,2.8,9.8,3.6c3.4,3.5,8.4,1.3,12.2,3.3
				C181.8,159,181.4,161.8,176.7,162.2z"/>
			<path fill="#5B483E" d="M177.9,178.5c-2.9,0.6-5,2.3-6.8,4.7c-1.1,1.4-2.6,3.8-4.9,1.1c0.2-1.7-0.4-3.2-1.2-4.6
				c-0.8-4.7,1.4-6.8,5.9-7.1c3.3-0.5,6.6-0.6,9.4,1.8C182,177.3,179.5,177.6,177.9,178.5z"/>
			<path fill="#94806D" d="M159.1,149.4c-8.6-1.8-14.2,3.7-15.3,14c-3.6-3.5-1.5-7,0.1-10.5c0.8-0.6,2-1,2.2-1.8
				c1.6-6.2,6.5-7.1,11.7-7.6c2.6,1.2,5.8,2,4.5,6.1C161.3,150.3,160.2,150.2,159.1,149.4z"/>
			<path fill="#987F72" d="M104.1,156.2c1.5,0.1,3.4,0,4.2,1.4c2,3.6,4.9,5,9,4.6c2.1-0.2,2,1.9,2.1,3.4c0.2,1.7-0.4,3.2-1.2,4.7
				c0,0,0,0,0,0c-1.3,1.6-1.5,4.2-3.9,5c-0.2-0.1-0.5-0.1-0.5-0.2c-0.9-5.2-3.7-9.6-6-14.2c-2.4-4.7-6.8-3.2-10.6-3.5
				C99.2,155.5,101.8,156.7,104.1,156.2z"/>
			<path fill="#6E5C4F" d="M153.2,175.1c-3.1-0.8-6.2-1.6-9.2-2.4c-0.4-0.3-0.5-0.5-0.4-0.8c0.1-0.3,0.2-0.4,0.3-0.4
				c0,0,0.1-0.1,0.1-0.1c3.1-0.4,2.1-2.7,2.2-4.5c3.6,0.8,6.3,3.8,10.3,3.5c1.8-0.1,3.8,0.4,3.3,2.9c-0.4,2-1.5,3.1-3.8,2
				C155.2,175,154.1,175.2,153.2,175.1z"/>
			<path fill="#B2907D" d="M180.2,174.9c-3-0.7-6.1-1.4-9.3-1.2c-2.2-2.2-4.8,2-7-0.5c-0.4-0.6-0.8-1.2-1.1-1.9c2.7,0,5.4,0,8.1,0.1
				c3.6-0.6,7.2-1.1,10.5,1.2C181.6,173.8,181.1,174.5,180.2,174.9z"/>
			<path fill="#827C70" d="M126.5,151.7c0.6,0,1.1-0.1,1.7,0c1.8,0.1,4.1-0.5,4.7,2.1c0.3,1.2-1.1,1.3-2,1.4
				C128.3,155.3,126.1,155.2,126.5,151.7C126.4,151.7,126.5,151.7,126.5,151.7z"/>
			<path fill="#6E5C4F" d="M163.9,173.3c2.4-0.3,4.8-1.2,7,0.5c-3.8,0.1-5.1,2.8-6,5.9C163,177.8,164.1,175.5,163.9,173.3z"/>
			<path fill="#665E4D" d="M195.4,65.1c-7.7-5.2,0.1-6.6,2.3-9.3c5.7-3.6,12.3-3.7,18.7-4.6c3,3.4-2.8,3.3-2.3,5.7
				c-3.4,1.8-7.8-2-11,2.5c4.7,1.4,9.1,1.5,13.2-1.2c5.1-1.6,7.3,4.4,11.8,4.6c-3.1,7.7-2.3,9,7.1,10.6c0.6,1.3-0.5,1.7-1.3,2.2
				c-2.6-0.8-5.5,1.8-7.8-2.8c-2-4-7-7.2-11.4-9.2c-3.6-1.7-8.3-1.7-12.3,0.4C200.4,66.3,198.2,67,195.4,65.1z"/>
			<path fill="#998C7A" d="M267.9,41.7c0,2.5-2.3,2.8-3.7,2.8c-4,0-6.1,2.4-7.9,5.3c-1.2-0.4-2.4-0.8-3.5-1.2
				c-0.4,0.5-0.8,0.5-1.1,0c-0.4-2.1,2.5-2.2,2.5-4.7c-4.4,0-8.7,0-13.1,0c1-2.4,2.7-2.1,4.7-1.4c1.4,0.5,2.9-0.3,2.9-1.9
				c0-1.5-1.6-1.4-2.7-1.3c-3.3,0.2-6.5-0.2-9.6-1.2c0.6-1.1,1.2-1.8,2.7-1.6c8.9,1.5,18.1,1.5,26.6,5.1
				C266.4,41.6,267.1,41.7,267.9,41.7z"/>
			<path fill="#F6A39C" d="M80.8,192.7c2.9-0.2,4,0.8,2.8,3.7c-0.4,1-0.2,2,0.9,2.4c1.2,0.5,1.8-0.6,2-1.5c0.5-2.8,2.9-5.1,2.6-8.1
				c0.4-4.1,3.5-6.5,5.9-9.4c2.1-1.3,4.2-1.4,5.5,0.9c1.4,2.3,3.3,3.9,5.5,5.6c3.3,2.6,0.5,4.6-1.9,6.1c-8.8,4.4-11.4,9.1-10.5,18.6
				c0.4,4.5,4.5,4.3,7.1,5.9c0.8,1.4,0.1,2.1-1.1,2.7c-2.7,0-4.1,2.1-5.5,3.9c-2.1,2.5-4.2,6.8-7.5,4.9c-3.1-1.8-5.6-5.8-5.6-10
				C80.7,209.7,80.8,201.2,80.8,192.7z"/>
			<path fill="#F3AD99" d="M99.5,219.5c0.4-0.7,0.8-1.5,1.2-2.2c0.3-1.8,2.1-2.8,2.7-4.4c1.7-2.4,3-5.2,6.6-5.1
				c-1.9,4.5-1.2,9-0.1,13.6c0.4,1.8,2.7,4.6-0.8,6.1c-3.2,1.4-4.4-1.5-6.1-3.2C101.8,222.6,100.7,221.1,99.5,219.5z"/>
			<path fill="#675E4E" d="M270.3,47.4c-3,0.4-3,3.7-6.3,4.9c4.9,2,8.8,3.2,12.1,5.8c-5.2,1.3-16-2.2-17.4-6.4c-0.7-2,1.2-4.8,4-5.2
				c2.5-0.3,5-0.1,7.5-0.2C270.3,46.7,270.3,47.1,270.3,47.4z"/>
			<path fill="#A07C6E" d="M222.3,407.8c1.4-3.8,4.5-4.8,8.1-4.6c3.1,0.2,5.7-0.4,7.1-3.6c0,0,0,0,0,0c3.6-2.5,6.5-6,10.1-8.5
				c3.4-2.3,4.6-5.9,5.9-9c1.4-3.4-2.4-2.8-3.9-2.1c-5.8,2.8-12,2.4-18.2,2.6c-3.3,0.1-6.6-0.1-9.8-0.6c-1.5-0.2-3.3-0.2-2.9-2.6
				c3.6-3.4,8.1-2.4,12.2-2.2c4.4,0.2,8.7,0.8,11.4-3.8c0.2-0.3,0.4-0.3,0.5-0.4c9.3-1.7,11.8-10.4,16.9-16.5c1.3-1.5,1.9-4,4.7-3.7
				c2.1,6.9,2.1,7,8.5,3.9c2.5-1.3,5.1-1.7,7.9-1.5c-3.8,5.4-8.7,9.9-12.9,15c-2.1,2.6-4.4,6.6-4.8,10.6c-6.8,6.5-12.3,14.4-20.1,20
				c-2.1,1.5-4.4,2.4-6.6,3.6c-3.7-0.2-7.1,0.6-9.9,3.2C225.3,408.9,223.9,409.7,222.3,407.8z"/>
			<path fill="#705A4D" d="M349.9,195c-0.2,6.2-0.6,12.5-3.7,18c-1.8,3.2,1.6,5,1.1,7.6c-0.7,0.4-1.5,0.8-2.2,1.2
				c-2.4,4.1,1.8,8.6-0.9,12.6c-0.5,0.4-1,0.5-1.6,0.3c-2.3-3.2,0-8.6-5-10.6c-2.3-1.4-4.2-2.1-4.5,1.8c-0.2,2.5-1.1,4.9-0.5,7.4
				c0.5,2.1,1,4.2-0.9,5.9c-2.2,1.8-4.3,0.7-6.4-0.4c-0.5-0.3-1-0.5-1.6-0.8c-2.5-1.5-3.2-4.4-5.2-6.2c-2.3-2.3-4.1-3.1-4.9,1.2
				c-0.3,1.9-0.7,4-3.6,3c-1.7-2.2-2-5.2-5.1-6.6c-2.1-0.9-2.3-3.3-0.1-4.5c1.5-0.8,2.3-1.8,2.7-3.3c4-2.4,7.6-0.1,11.1,1.1
				c2.9,1,2.8-0.8,3.2-2.5c3.7-2.4,8.3-1.6,12.2-3.4c1.4-0.4,2.8,0.1,4.1,0.5c4-0.1,1.8-2.6,1.2-3.8c-3.1-5.3-7.3-9.3-13.9-9.8
				c-3.3,0.1-6.4,1.3-9.7,0.9c-4.5-1-9.2,0.7-13.6-1.4c-1.4-0.7-2.8-1.4-3-3.1c-0.2-2.1,1-3.2,3-3.4c2.6,2.6,5.8,3.1,9.3,2.6
				c6.5,0.1,13-0.2,19.7,0.3c-1-2.5-4.8-2.4-4.7-5.6c6.8-2.6,11.2,1.5,15.1,6c3.4,3.9,4.4,2.1,5.1-1.6c0.6-1.6,0.7-3.4,1.9-4.7
				C349.6,193.5,350.2,193.8,349.9,195z"/>
			<path fill="#63423C" d="M342.9,234.7c2.9-3.9-0.7-9,2.3-12.9c-1.5,5.3,2.2,7.3,5.9,9.3c2.7,2.6,1.9,6,1.7,9.1
				c-0.2,3.1,0.4,4.9,3.8,4.9c-0.3,0.8-0.6,1.6-0.8,2.4c-0.6,2.2-2.3,3.8-3.1,6c-1.1,2.9-4.3,2.2-4.7,0.4c-1.1-4.7-5.9-7.1-6.5-11.8
				C341.3,239.6,340.7,236.9,342.9,234.7z"/>
			<path fill="#948E7F" d="M138,60.6c2.3,1.7,2.6,3.8,2.4,5.9c-0.3,3.2-3,3-5.1,3.5c-0.9,0.2-2.1,0.9-2.5-0.2
				c-0.8-2.1,0.4-3.8,2.1-4.8C136.5,64.1,136.6,62.2,138,60.6z"/>
			<path fill="#BA4B47" d="M87.7,177.3c1.3-4.4,3.9-7.7,8.4-9.2c0.5-0.4,1-0.5,1.6-0.4c5.9,2.9,6,3.3,1.7,7.8
				c-1.6,1.7-3.1,3.4-4.8,4.9c-1.8,1.1-2.7,4.4-5.6,3C86.4,182.1,87,179.6,87.7,177.3z"/>
			<path fill="#EC9F9B" d="M97,168.1l-0.4,0c0,0-0.4,0-0.4,0c-3.2-1-6.4,1.2-9.6-0.2c0.4-0.4,0.7-0.9,1.1-1.3c1.7-0.6,1-3.6,3.5-3.4
				c1.3,0,2.8-0.3,4,0.2c4.3,1.9,8.2,1,11.9-1.6c1.8,1.7,3.4,3.5,2.4,6.3c-1.8,2.8-4,3.9-7.1,1.7C100.8,168.7,98.8,168.9,97,168.1z"
				/>
			<path fill="#CB6964" d="M87.7,177.3c0.7,6.4,0.7,6.4,7.1,2.4c0.4,0.2,0.5,0.5,0.4,0.8c-0.1,0.3-0.2,0.5-0.3,0.5
				c-2,2.7-4,5.5-5.9,8.2c-3.3,1.4-3.8-0.9-3.4-3.1C86.1,183.1,85.9,179.9,87.7,177.3z"/>
			<path fill="#DD8E82" d="M104.2,256.9c-0.3-2.7-1.9-4.5-4.5-4.5c-4.7-0.1-7.6-3.2-10.7-5.9c5.7,1.6,11.4,3.4,17.4,1.8
				c1.1-0.3,2-0.2,2.3,1c0.3,1.5,0.7,3.3-0.3,4.5C107.2,255,105.6,255.8,104.2,256.9z"/>
			<path fill="#784D47" d="M342.8,242.9c1.1,3.8,6.3,5.3,5.7,10.4c-0.1,1.2,3,2,3.6-0.7c0.5-2.3,2.2-3.5,3.6-5.1
				c-1.3,4.3-1.9,8.9-6.8,11.2c-2.4,1.1-3.3,3.7-3.8,6.3c-2.8,2.2-5.6,4.7-9.2,1.3c0.1-1.8,1.6-2.7,2.5-3.9c1.9-2.6,1.8-5.5,1.7-8.5
				c0.1-2.3-1-4.4-0.5-6.7C340,245.4,339.9,243,342.8,242.9z"/>
			<path fill="#C28C7C" d="M108.8,168.1c0.1-2.3-0.4-4.3-2.2-5.9c-0.3-0.2-0.4-0.5-0.3-0.8c0.1-0.3,0.2-0.4,0.3-0.4
				c0.4,0,0.8,0,1.2,0c5.1,3.3,6.7,8.4,6.9,14.1c2.8,0.7,3.4,2.9,3.8,5.4c-0.1,2.3,0.6,4.3,1.6,6.3c0.2,0.8,0.1,1.6-0.4,2.3
				c-4.9,1-3.8-4.7-6.7-5.9c-2.2-2.6-2-6.5-4.4-9C107.9,172.1,108.7,170.1,108.8,168.1z"/>
			<path fill="#F4B9B5" d="M106.6,161c0,0.4,0,0.8,0,1.2c-3.6,5.5-5.5,5.6-15.5,1.1C96.4,157.5,100.2,156.9,106.6,161z"/>
			<path fill="#CA9082" d="M200.1,373.9c0.5,2.1,3.6,2.2,3.5,4.7c-6.3-0.9-9.8-6-13.7-10c-3.1-3.2-2.9-9-0.5-11.9
				c4.8-5.9,1.4-10.8-1.1-14.8c-2.8-4.4-4.6-10.2-10.4-12.5c-2-0.8-3.7-2.1-5.9-1.1c-0.5-4.4,1.1-7.9,4.7-10.5
				c0.7-0.7,1.5-0.6,2.3-0.2c1.7,5.6,4.5,10.5,8.8,14.6c0.6,0.6,1.1,1.3,1.6,2c2.2,4.3,4.7,8.4,7.8,12.1c3.6,4.2,4.4,9.2,1.6,14
				c-2.4,4.1-3,7.3,1.1,10.5C200.9,371.5,201.1,372.8,200.1,373.9z"/>
			<path fill="#B77B6E" d="M168.5,278c9.2-8.3,21.9-10.1,31.6-17.5c3.6-0.9,7.6-0.9,10.5-3.9c2.8-1.2,5.4-1,7.5,1.3
				c2.1,2.4,0.9,4.7-0.5,6.9c-0.8,0.7-2.1,0.8-2.7,2.1c1,0.3,1.3-1,2.2-1c0.2,0,0.4,0,0.5,0.2c3.4,4.1,5.8,6,10.7,8.4
				c0.4,0.4,0.8,0.8,1.2,1.1c-2.5,2.3-5.3,1-7.7,0.2c-3.4-1.1-4.4,0.5-4.9,3.3c-0.3,0.3-0.6,0.7-1,0.6c-11.9-3.3-19.5,4.9-28.1,10.5
				c-3.3,2.2-4,5-1.7,8.3c-1.7,2.7-4.4,1.9-6.8,1.7c-2.4-0.2-3.3-1.6-2.7-4c0.9-3.8,1.6-7.5,4.6-10.4c1.8-1.7,3.3-3.8,5-5.7
				c1-1.1,1.6-2.4,0.5-3.7c-1.2-1.5-2.8-1.1-4.2-0.2c-2.1,1.4-3.6,3.6-5.8,4.7c-2.8,1.4-5.4,4.2-8.9,1.3
				C167.2,280.8,167.6,279.3,168.5,278z"/>
			<path fill="#E7AD9E" d="M237.5,273.3c-3.9,0.2-7.6-0.1-11.2-2.2c-1.6-0.9-4.1-0.6-3.4-3.5c0.6-2.5,1.4-5.3,4.5-5.3
				c2,0,3.8-0.4,5.6-1c1.5-0.5,3.6-2.1,2.8-3.2c-3.3-4.9,1.3-7.2,2.8-10.6c0.2-0.2,0.4-0.4,0.5-0.6c3-0.9,6.2-1.6,6.6-5.6
				c1.1-3.1,3.7-5,5.7-7.3c3.4-4,8.2-3.8,10.3,1c5.3,12.1,6.6,24.6,2,37.3c-1.2,3.3-3.7,5.9-6.9,7.7c-3.7,1.7-7.6,3-11.6,1.5
				c-2-0.8-4.4-1.7-4.3-4.6c0-0.4,0-0.8,0-1.2c4.2-0.6,8.4-0.3,12.5-1.4c2.8-0.7,4.7-2,5.2-4.8c1.1-6.8,1.3-13.5-0.2-20.3
				c-0.3-1.3-0.7-2.9-2.2-3.1c-1.6-0.3-2.4,1.2-3.1,2.3c-4.2,7.1-11.1,11.4-17.1,16.6c-3.1,2.7-5.6,4.1,0.1,6.1
				C237.2,271.4,237.9,272.1,237.5,273.3z"/>
			<path fill="#D4A091" d="M256.3,279.2c5.6-4.5,7.4-10.4,8.5-17.4c1.3-8.3-1.5-15.5-2.8-23.2c-0.5-2.7-1.8-5.2-4.8-6
				c-3-0.8-4,1.6-5.3,3.5c-1.6,2.3-4.7,3.5-5,6.9c-1.8,3.2-5.3,3.4-8.2,4.7c0,0,0,0,0,0c-3.7,3-8.3,1.3-12.4,2.3
				c-0.4,0.1-1,0-1.1-0.1c-2-6-9.3-2.3-12.2-6.7c4.3-3.1,8.8-0.8,12.7,0.4c5.7,1.9,9.7,0.7,14.2-2.9c5.7-4.5,11-9,14.1-15.7
				c0.4-0.8,1-1.6,1.6-2.3c0.8-1.4,1.8-2.5,3.1-3.4c5.3-3.6,10.2-1.4,10.7,5c0.4,4.3,0.3,8.5-0.5,12.8c-0.6,3.1-0.9,6.2,0.1,9.2
				c1.3,4.4-0.9,8.7-0.1,13.1c-0.5,4.9,0,9.8-1.7,14.7C265.2,279.4,262.1,281.1,256.3,279.2z"/>
			<path fill="#AD7466" d="M216.5,279.2c-0.3-2-0.6-4-1-6.8c4.9,1.6,9.2,3.4,14,3.2c2.4,0.1,4.8-0.1,6.9,1.2c1.6,1.1,3.9,1.3,4.9,3
				c3.3,4.9,7.2,5.2,12.6,3.5c3.7-1.2,7.9-1.4,11.8,0.6c0,0.8,0,1.6,0,2.3c-2.4,4.6-7,4.9-11.4,5.5c-3.5-0.6-7-0.1-10.5-0.3
				c-6.1-0.3-7.4,1.9-5.2,7.7c0.3,0.8,0.5,1.5,0.1,2.2c-3.4,1.6-5.4-1.2-7.8-2.5c-1.5-1.1-2.3-2.6-2.9-4.3
				c-1.9-5.3-3.8-10.6-10-12.7C217,281.7,216,280.6,216.5,279.2z"/>
			<path fill="#F5BCAC" d="M237.5,273.3c-2-2.5-7-1-7.5-4.5c-0.6-4,4.6-3.3,6.5-5.6c5.3-6.1,12.9-10,16.8-17.6
				c2.1-4.1,4.6-2.8,5.9,0.9c2.8,8.1,2.5,16.5,0.5,24.6c-1,4-11.5,7-16.5,5c-0.7-0.3-1.5-0.4-2.2-0.6
				C239.9,274.9,238.7,274.1,237.5,273.3z"/>
			<path fill="#CF9485" d="M163.8,193.8c0,2.8,0,5.6,0,8.4c0,1.6,0.2,3,2.3,3.2c2,1.6,2.3,4.1,2.4,6.3c0.5,9.8,7.1,14.5,15,17.9
				c4.4,1.9,8.9,3.7,13.5,5.3c3.6,2.3,8.4,0.8,11.8,3.7c0.8,1.4,1.4,2.8,0.7,4.4c-1.2,0-2.4,0-3.5,0c-12.5-3.1-24.6-7.3-35.1-15.2
				c-1.6-2-3.1-3.9-4.7-5.9c-4.3-6.9-6-14.5-5.1-22.6C161.3,197.1,160.6,194.4,163.8,193.8z"/>
			<path fill="#C99281" d="M265.6,283.9c-5.2,0.9-10.5-0.5-15.7,2c-2.8,1.3-6.5,0.8-8-3.4c-1-2.6-4.6-2.9-5.6-5.6c1.6,0,3.1,0,4.7,0
				c4.3,5.4,9.8,3.9,15.2,2.3c8.6-0.5,12.7-6.1,10.4-14.6c-0.7-2.4,1.8-3.3,1.3-5.2c3.1,2.5,5.5,12.3,3.9,16.4
				c-0.9,2.5-1.9,5-3.9,6.9C267.2,283,266.4,283.5,265.6,283.9z"/>
			<path fill="#BB887B" d="M209.5,242.9c-0.4-1.2-0.8-2.3-1.2-3.5c4-2.7,8.3-1.7,12.6-1.2c2.4,2.1,5.2,2.8,8,1.4
				c7-3.6,14.9-5.7,20.7-11.5c1.4-1.4,2.8-3.4,5.4-2.7c-2.3,6.4-7.6,10.2-12,15c-7.4,8.1-15.5,5.5-23.8,3.3
				c-2.1-0.6-4.2-0.7-6.3-0.6C211.8,243,210.6,242.9,209.5,242.9z"/>
			<path fill="#C99281" d="M216.5,265.1c2.6-6.8,1.9-7.7-5.8-8.2c-1.2,0.9-2.4,1-3.6-0.1c4.5-2.8,9.5-3.8,14.7-3.4
				c1.2,0.1,2.5,0,3.1,1.1c0.7,1.4-0.6,2.1-1.4,2.8c-2,2-3.4,4.2-3.5,7.1c-0.2,3.8,0.3,7.1,5.1,7.6c1.5,0.2,2.5,1,3.1,2.3
				c-5.7-0.2-9.3-3.3-11.7-8.2c-0.3-0.2-0.4-0.5-0.3-0.7C216.3,265.2,216.4,265.1,216.5,265.1z"/>
			<path fill="#CA887C" d="M207.1,256.9c1.2,0,2.4,0,3.6,0.1c-1.9,6.2-7,2.4-10.6,3.5c1.4-2,5-0.5,5.8-3.5
				C206.3,256.9,206.7,256.9,207.1,256.9z"/>
			<path fill="#B58170" d="M168.5,278c0,1.6,0,3.1,0,4.7c0.5,1,0.2,2-0.5,2.7c-5.5,5.3-3.4,11.9-3.1,18.2c0.2,3.2,2.8,3.1,5.2,3.4
				c6.4,0.9,9,3.8,9.4,10.2c-0.2,0.2-0.4,0.4-0.6,0.7c-0.8,0-1.5,0-2.3-0.1c-0.1-1.2-0.2-2.5-1.6-2.7c-1.2-0.2-1.5,1-1.8,1.8
				c-0.6,1.4-1,3-1.9,4.2c-3,3.7-5.8,2.7-8.3-1c-5-7.6-3.7-16.2-5-24.4c-0.6-4,0-7.7,3.7-10.3c1.9-1.3,2.3-3,1-5
				C164.7,279.6,166.6,278.8,168.5,278z"/>
			<path fill="#615042" d="M349.9,195c-0.4-0.4-0.8-0.8-1.2-1.3c-0.9-1.1-0.6-2.2,0-3.3c1.5-3.4,0.5-6.9,0.8-10.4
				c0.6-5.8,1.2-11.7,1.2-17.6c0.4-0.6,0.9-0.7,1.5-0.3c2,1.6,2.4,3.9,2.3,6.3c-0.1,8.1-0.8,16-2.4,23.9
				C351.8,193.6,351,194.4,349.9,195z"/>
			<path fill="#655646" d="M352.2,162.2c-0.4,0-0.8,0-1.2,0c-0.4,0.4-0.9,0.6-1.5,0.5c-1.6-0.7-1.8-1.9-1.4-3.4
				c1.3-1,1.4-2.6,1.8-4.1c0,0,0.1-0.1,0.1-0.1C353.9,156.4,351.5,159.8,352.2,162.2z"/>
			<path fill="#BF8D83" d="M283.1,264c5.4,5.7,13.1,5.8,19.9,8.3c4.6,3,9.8,4.3,15.3,4.6c2.6,0.9,6.1,0.8,5.8,5
				c-0.3,3.7-1.6,6.8-5.3,8.4c-2.4,1-5,1-7.4,0.1c-7.5-2.6-14.9-5.4-19.9-12.2c-2-1.7-3.1-4.1-4.8-6c-0.4,0-0.7-0.1-1.1-0.1
				c-2.4-1-3.7-3.2-4.8-5.3C279.7,264.6,280.2,263.1,283.1,264z"/>
			<path fill="#B18072" d="M283.1,264c-1.7,0.2-2.8,1.2-1.2,2.5c2,1.5,2.5,3.7,3.6,5.6c-3.5,1.7-4.3,5.3-5.4,8.5
				c-0.7,2-0.9,3.7-3.8,1.9c-2.5-1.6-5.5,0.9-8.4,0.1c0.1-1-0.1-2.2,0.4-2.8c5.3-7,0.7-13.7-0.4-20.5c-2.9-4.3,1.4-8.6,0-12.9
				c-0.1-1.9-0.3-3.8,2.6-3.5c1.8,2.6,1.9,5.7,2.7,8.6c1,3.4,2.8,5.7,5.1,7.8C279.9,261,282.4,261.6,283.1,264z"/>
			<path fill="#A06A5C" d="M259.8,311.9c0,0.4,0,0.7,0,1.1c-1.8,2.2-4.7,0.8-6.7,2c-0.6,2,3.7,2,1.7,4.4c-1.2,0.8-2.9,1.2-3.9,0.5
				c-4.7-3.3-10.4-2.4-15.4-4.4c-1.7-1.2-3.3-2.6-5-3.8c-3.2-2.3-7.2-2.8-10.6-2.5c-5.9,0.6-10.3-2.4-15.2-4.2c1-3-0.5-3.5-3.2-4
				c-2.9-0.5-6.2,0.1-8.6-2.3c-0.1-0.7,0.1-1.3,0.7-1.7c4.2-1.8,8.6-0.7,12.9-0.9c1,0,1.9,0.2,2.9,0.4c4.4,2.1,9,3.3,13.9,3.8
				c3.7,0.4,7.1,1.9,10.2,3.9c2.5,1.7,5.3,2.2,8.2,2.3c2.5,0,4.8,0.4,7.1,1.5C252.1,310.1,256.8,308.4,259.8,311.9z"/>
			<path fill="#AC7D70" d="M259.8,311.9c-3.8-1.2-8-0.5-11.7-2.4c5.8-3.1,11.7-0.7,17.6-0.6c0.9,0,1.8,0.7,3.2-0.1
				c-1.2-3.6-4.2-4-7.3-4.1c-3.3-0.2-6.7,0.2-9.2-2.5c-0.3-1-0.1-1.9,0.6-2.6c3.8-1.1,7.5-3.4,11.5-0.7c4.4-0.3,8.8,0.7,13.1-1.1
				c3.6-1.6,4.6,2.5,6.7,4.2c1.9,1.5,0.5,3.1-0.2,5c-4,11.4-12.9,5.1-19.8,5.7C262.8,312.9,261.3,312.2,259.8,311.9z"/>
			<path fill="#7E5043" d="M253.9,290.9c4-1.3,8.3-1.9,11.7-4.6c1.2,0,2.3,0,3.5-0.1c2.7-0.1,7-1.8,7.4,1.9c0.4,3.3-2.1,6.8-6.5,7.5
				c-1.1,0.2-2.2,0.8-3.2,1.2c-4.2,1.5-8.7,1.2-12.9,2.8c-1.9,0.7-4.4,1.3-5.6-1.2c-1.3-2.7,1-4.2,2.6-5.8
				C251.7,291.6,252.9,291.3,253.9,290.9z"/>
			<path fill="#906253" d="M253.9,290.9c-0.8,1-1.8,2-2.5,3.1c-0.9,1.3-3.5,2.1-2.1,4c1.2,1.7,4,1.6,5.3,0.7
				c3.9-2.8,8.1-1.7,12.2-1.9c-0.8,0.8-1.6,1.5-2.4,2.3c-3.9,0.4-7.8,0.8-11.7,1.2c-4,3.8-8.6,3-13.3,1.8c-0.2-0.2-0.5-0.5-0.7-0.7
				c-0.6-0.8-1.2-1.5-1.8-2.3c-3.4-4.5-2.5-7.8,3-8.7C244.5,289.6,249.3,289.2,253.9,290.9z"/>
			<path fill="#81584B" d="M255,319c-0.7-1.2-1.9-1.1-3-1.3c-1.6-0.4-2.3-1.7-2.2-3c0.1-2,1.9-1.5,3.1-1.5c2.3-0.1,4.6-0.1,6.9-0.1
				c4.8,2.2,10.3,0.5,15.2,2.4c0.7,1.6,2.5,2.6,2.3,4.6c-4.9,1.2-9-3.7-14-1.8c2.7,8.7,0.5,12.5-8,13.9c-4.3,0.1-8.6,0.2-12.8,0
				c-2.4-0.1-4.7-0.5-6.2-2.7c-0.4-2.5,1.6-2.1,2.9-2.1c1.5,0,3,0.5,4.4-0.4c1-0.5,2.1-0.8,3.3-0.7c1.1,0.1,2.3,0.5,3.4,0.4
				c2.4-0.2,5.5,1.3,7-1.2c1.3-2.2-2-3.4-2.5-5.5C254.8,319.7,254.9,319.3,255,319z"/>
			<path fill="#B07E70" d="M286.6,272.2c2.1,1,3.6,2.7,4.7,4.6c1.2,2.7,5,4.3,3.5,8.2c-1.2-0.8-2.3-1.6-3.5-2.3
				C288.9,279.6,286.6,276.4,286.6,272.2z"/>
			<path fill="#A46E66" d="M264.4,352.9c-3.7,5.6-8.5,10.3-11.3,16.6c-0.1,0.2-0.2,0.5-0.3,0.5c-7.3,1.7-11.3,10.7-20.3,8.9
				c-4.5-0.9-9.2-0.7-13.7,0.9c-3.8,2.1-6-1.5-9-2.5c-4.3-6.5-3.7-8.2,3.6-9.7c2.2-0.4,4.1-1.3,5.7-2.7c1.4-1.1,2.7-2.6,4.4-2.7
				c6.7-0.1,12.1-4.6,18.8-4.8c5.9-0.2-0.1-4.1,1.3-5.9c0.5-1.9,1.7-2.9,3.6-3.1c2.9,0.4,5.7,0.5,8-1.7c2.4-4.2,6.7-6.7,9.7-10.4
				c1.8-2.2,4.1-1.7,6.4-1.1c2,0.3,4.2-0.8,5.8,1.1c-3.7,0.4-6.2,2.5-6.4,6.1C270.6,347.4,265,348.5,264.4,352.9z"/>
			<path fill="#B78579" d="M294.9,285c-0.2-3.1-3.6-4.9-3.5-8.2c4,4,8.6,6.9,13.6,9.6c3.3,1.8,6.8,2.8,10.3,3.2c4,0.4,6-2.2,7.3-6
				c1.5-4.4-1.9-5.1-4.3-6.7c3.3,0.3,7.6-1.6,9.5,2.3c1.7,3.4-1.5,6.4-2.6,9.6c-2.7,7.6-10.5,7.7-16.2,10.9c-1.8,1-4.1-1.5-5.6-3.4
				C300.7,292.5,298.6,288.1,294.9,285z"/>
			<path fill="#BC9285" d="M333.5,266.3c-4.1,3.8-9.2,3.6-14.1,3.4c-12.4-0.5-24.1-3.3-33.8-11.7c-0.5-4.6,1-6.5,5.5-7.1
				c2.5-0.3,4.9,0.9,7.4,0.8c1.7,0.1,3.4,0.3,5,0.9c7.3,2.8,14.9,1.4,22.4,1.9C334.5,255,337,258.4,333.5,266.3z"/>
			<path fill="#A17C6F" d="M333.5,266.3c0-1.7-0.1-3.5,0-5.2c0.2-4.2-2.1-5.7-5.7-5.1c-7.3,1.1-14.4-1-21.6-0.3
				c-1.5,0.1-2.4-1-3.1-2.2c2.6-2.3,6.2-1.6,9.3-3c-1.6-2.4-5.3-3-5.1-6.4c0.2-2.1,2.1-3.1,3.7-4.1c3.4-0.8,5.7-3.7,9.2-4.3
				c2.2,1.5,3,3.9,4.2,6.1c1.2,2.1,2.8,3.5,5.1,4.3c9.2,3.2,11.8,7.9,9.7,17.9c-1.1,0.9-2.3,1.7-3.4,2.6
				C335.1,266.4,334.3,266.3,333.5,266.3z"/>
			<path fill="#997A6F" d="M279.6,249.9c-0.3,0-0.7-0.1-1-0.1c-1.9-3.7-4.3-7.3-2.3-11.7c3.7-7.3,10-8,17-6.5
				c1.4,0.5,2.4,1.5,3.4,2.4c1.7,1.8,4.6,2,5.8,4.4c0.6,3.2-0.6,4.1-3.8,3.6c-2.7-0.4-6.4-2.6-8,0c-1.5,2.5,3.1,3.7,4.1,6.1
				c0.2,0.5,0.3,1.1,0.3,1.7c-1.7,1.8-3.6,1.1-5.1-0.1C286.4,246.7,283.1,247.7,279.6,249.9z"/>
			<path fill="#7A584F" d="M277.4,238.3c-2.2,4.1,2.4,7.5,1.2,11.5c-1.1,2.4,4.1,4.9-0.2,7.2c-1.6,0.4-2.9-0.5-3.2-1.7
				c-1.2-4.2-4.4-7.6-4.3-12.2c0.5-2.7,0.8-5.2-0.3-7.9c-2.2-5.9-1-12.4-2.4-18.4c5.7-1.2,5.7,3,5.9,6.5c0.3,4.1-0.6,8.6,3.6,11.4
				C278.4,236,278.1,237.1,277.4,238.3z"/>
			<path fill="#AE877E" d="M279.6,249.9c1.1-3.4,6.6-5.3,9.3-3c1.8,1.5,3.3,3.3,5.9,2.9c1.8,0.5,3.8,0.9,3.5,3.5
				c-1.8-0.4-3.7-1-5.5-1c-3.8,0-7.4,0.6-7.3,5.7C283.6,255.3,281.6,252.6,279.6,249.9z"/>
			<path fill="#9E7268" d="M271.4,242.8c2.6,4.6,3,10.3,7,14.1c0,0.8,0,1.6,0,2.4c-5.9-1.9-8.1-6.3-8.1-16.4
				C270.7,242.6,271,242.5,271.4,242.8z"/>
			<path fill="#663B2F" d="M256.3,330.7c7-1.4,9-6.2,4.8-11.7c-0.6-0.8-1.5-1.4-1-2.4c0.6-1.2,1.6-0.4,2.5-0.4
				c5.3-0.2,10.1,1.6,14.7,4c2.1,4.5,5.2,9.1-2.3,11.7c-4.5,1.8-9.5,2.8-12.1,7.7c-0.6,1.1-1.8,1.2-3.1,0.9c-0.7-0.6-1-1.3-1.2-2.1
				C259.3,335.3,257.5,333.1,256.3,330.7z"/>
			<path fill="#895A53" d="M259.8,339.9c2.9-0.3,3.2-3.4,5.2-4.8c3.1-2.2,6.1-3.9,10-3.3c0,0.4,0,0.8,0,1.2c-1.7,0-2.9,0.7-3.5,2.3
				c-7.2,1.9-11,7.7-15.3,12.9c-5,0.1-6-3.9-7.4-7.4C252.1,336.5,256.1,339.9,259.8,339.9z"/>
			<path fill="#FCCCB1" d="M161.5,213.6c-1.2,0.1-2.8,0.4-2.8,1.6c-0.5,9.7-9.1,12.8-15.1,17.7c-3.8,3.1-8.9,4.6-12.9,7.8
				c-3.8,2.9-9.7,2.2-12.5,7.2c-0.5,0.9-1.7,0.5-2.4-0.6c-1-1.6-2.7-2.9-2.1-5.2c0.4-1.4,1.6-1.8,2.7-1.5c5.2,1.8,5-2.4,5.1-5.1
				c0.3-4.6,1-8.8,4.7-12c1.5-1.4,1.8-3.4,1.7-5.4c-0.1-4.3-0.3-8.5-0.5-12.8c-1.5-4,1.1-7,2.5-10.3c8.2-6.9,9-6.9,17,0.4
				c3.9,3.5,7.4,7.2,12.7,9C164.1,206,161.9,210.4,161.5,213.6z"/>
			<path fill="#EABEA3" d="M161.5,213.6c0.6-4.7,0.3-8.2-6-9.2c-4.6-0.7-7-5.8-10.5-8.7c-6.7-5.7-7.3-5.9-14,0.3
				c-0.9-1.2-1-2.3,0.1-3.4c1.4-2.5,2.7-4.9,5.8-5.9c2.7-0.9,3.5-3.4,4.2-5.8c1.4-4.9,3.7-7.7,9.1-4.1c1.2,0.8,2.9,0.8,4.4,1.3
				c6.8,2.5,11.1,6.6,9.3,14.5c0,0.4,0,0.8,0,1.2c-1.9,7.4-2.1,14.7,0.5,22c0.7,2,1.3,4,1.9,6.1
				C162.9,220.1,163.6,216.1,161.5,213.6z"/>
			<path fill="#CC675E" d="M109.9,207.7c-1.9,2-3.9,3.9-5.8,5.9c-7.7,2.7-12.1-0.3-10.3-7.9c1.5-6.2,4.5-12.1,11.8-13.8
				c3.2,1.9,0.9,5.9,3.4,8.5c2.4-2.2,2.2-4.6,1-7.1c-0.5-1.1-2.1-2-0.7-3.5c4.2-1.5,5.5,0.9,5.7,4.5c0.2,2.3,0.2,4.6-1.4,6.5
				C112,202.9,110.2,204.9,109.9,207.7z"/>
			<path fill="#E28981" d="M113.7,200.8c0-2.3-0.1-4.5-0.1-6.8c0-3.7-1.4-5-4.8-2.7c-0.4,0.5-0.9,0.7-1.6,0.8
				c-1.4-0.5-3.1,0.5-4.3-0.8c2.9-1.8,6.5-3.5-0.2-5c-1.9-0.4-2.5-2.5-3-4.1c-0.9-3.5-2.8-2.4-4.8-1.3c-0.1-0.4-0.1-0.8-0.2-1.2
				c1.3-3.4,3.9-5.7,6.6-7.9c-0.7-2.3-3.3-2-4.4-3.7c2-0.1,4.3-0.8,5.9,0.7c2.5,2.3,4,0.2,5.8-0.8c2.3,1.9,0.8,3.9,0,5.8
				c0,0.2,0,0.4-0.1,0.6c-3.1,7.5-3.1,7.5,3.6,9.5c4.7,5.1,5.3,10.7,2.3,16.8C114.3,200.8,114,200.8,113.7,200.8z"/>
			<path fill="#CDA287" d="M131.1,192.6c0,1.1,0,2.3-0.1,3.4c-1.2,3.1-2.3,6.2-3.5,9.4c-2.1,2.1-0.8,4.7-1.1,7
				c-1.1,1.3,0,4.1-2.8,4.3c-2.2,0.1-3.5-1.2-4.2-3.1c0-0.8,0-1.6,0-2.3c-0.3-5.4-1.8-10.7-1.1-16.2c2.2-3.1,2.9-0.8,3.5,1.1
				c0.8,2.7-0.4,5.8,1.4,8.7c2.4-2.8,1.1-6.6,3.2-9.3c1.5-1.2,2.3-3.3,4.7-3.2L131.1,192.6z"/>
			<path fill="#E6B097" d="M119.4,213.6c2.8,2.6,5.3,3.1,7-1.2c0.6,6.2-4.2,10.6-5.5,16.2c-0.2,0.7-1.4,1.6-2.2,1.6
				c-1.4,0-1.6-1.4-1.7-2.6C116.8,222.9,116.9,218.1,119.4,213.6z"/>
			<path fill="#E6B097" d="M119.4,193.7c0,5.9-0.1,11.7-0.1,17.6c-1.8-1.7-1-3.9-1.1-5.9c-0.1-2.5-0.6-4.5-3.6-4.7
				c0.3-6.1,0.6-12.2-3.4-17.5c0.7-0.7,1.5-0.8,2.3-0.1c1.1-0.3,2.3-0.9,2.3,1.1c0,2.4,1.6,3.7,3.4,4.9
				C120.7,190.6,120.8,192.1,119.4,193.7z"/>
			<path fill="#46382D" d="M276.1,127c6,0.9,11.9,2.2,18.1-0.6c-2.5,5.3-4.3,10.7-9.9,13.6c-2.5,4.5-6,7.2-11.1,9.3
				c-5.6,2.4-9.5,8.3-13,13.8c-4.5,2.8-9.9,2.5-14.5,4.7c-4.1,0.3-7.7,1.7-10.4,5.2c-1.5,2-3.7,2.5-6.2,1.6c-5.7-3-12.1-4.1-17.9-7
				c-1.9-2.8-2.5-5.3,1.7-6.7c1.6-0.5,3.9-0.7,3.1-3.2c-0.6-2-2.5-2.9-4.6-2.9c-2.3,0-4.6,1-6.9,0.4c-0.6-0.2-1.1-0.4-1.5-0.8
				c-3-5.8,2.3-6.2,5.3-7c3.6-1.1,7.1-1.9,10-4.4c4.7-1.6,9.4-0.1,13.7,1c3.7,0.9,7.1,1.2,10.8,0.1c-3,0.7-5.6,0.3-7.7-2.1
				c-2.1-4.6-1.5-6.8,2.8-8.6c1.9-0.8,4-1.3,5.9-2.4c4.6-0.2,9-1.3,13.3-3.1c5.4-2.2,11-0.9,16.5,0.4
				C274.6,127.8,275.4,127.4,276.1,127z"/>
			<path fill="#504737" d="M243.4,131.9c-0.3,2.6-2.5,1.8-4,2.3c-3.3,1.2-6.4,2.7-3.1,6.9c-6,2-11-0.8-15.7-3.7
				c-2.3-1.4-4-2-6.4-0.8c-2.4,1.3-4.9,1.2-7.3-0.1c-2.3-1.3-5.4-2.4-5-5.7c0.4-3.3,3.6-2.1,5.7-2.7c1.7-0.4,3.4-0.8,5.1-1.2
				c3.6-0.9,8.4-0.9,4.8-6.9c-0.3-0.5,0.5-1.4,1.1-2c8.5-2.5,16.7-6.6,25.9-6.3c5.4-0.1,10.6,0.2,15.8-2.5c4.1-2.2,7.4-0.1,7.6,3.8
				c0,1.1,0.1,3-1.1,2.9c-5.5-0.2-8.2,6.8-14.2,5.3c-1.3-0.3-2,0.9-2.3,2.1c-1.7,1.9-4.2,1.6-6.3,2.3c-3.6,0.6-6.8,2.1-10.4,4.6
				c3.3,2,6.3,0.6,9.1,1C243,131.6,243.2,131.7,243.4,131.9z"/>
			<path fill="#625949" d="M153.3,99c3-1.6,6.1-3.1,9-4.9c1.8-1.1,4.3-1.7,5.5-0.7c6.5,5.2,14.2,1.7,21.1,3.4
				c3.1,0.8,7.9-0.7,8.9,4.5c0.4,0.5,0.4,1.1,0,1.6c-9.9,2.9-19.2,7.2-28,12.6c-9-0.2-11.1-3.8-6.6-11.5c1.6-2.8,1.1-3.9-2.1-3.9
				C158.4,100.2,155.6,101.2,153.3,99z"/>
			<path fill="#544B3B" d="M153.3,99c2.7-0.2,5.4-0.1,8-0.6c2.2-0.4,3.9,0.3,5.1,1.8c1.6,2-0.6,3-1.6,4.2c-1.7,2-4.2,3.4-2.5,6.8
				c1.7,3.5,4.6,2.9,7.4,3c0.3,0.3,0.4,0.6,0.4,1c0,0.4-0.1,0.5-0.2,0.5c-0.7,1-1.7,1.4-2.9,1.4c-8.7-0.7-9-0.5-9,7.6
				c-3.5-1-9,1.2-8.6-5.8c0.1-2.5-1.6-3.8-4.3-3.6c-4.1-1.1-5.5-4.3-5-8c0.4-3.4,3.3-4.4,6.4-4.9c2.3-0.4,4.5-1.2,5.7-3.5
				C152.6,99,152.9,99,153.3,99z"/>
			<path fill="#5F5748" d="M244.6,111.9c-1.5,1.8-3.6,1-5.4,1.2c-3.1,0.4-5.8,0.4-8.4,3.3c-2.9,3.1-8.2,0.5-12,2.5
				c-0.7,0.5-1.5,0.8-2.3,1.1c-3.2,0.3-6.1-0.9-9.1-1.8c-2.2-0.7-3.7-2.1-3.8-4.6c-0.2-2.6,0.6-4.6,3.2-5.6c2.9-1.2,5.7-2.6,6.8-6
				c-2.7-1.8-6.3,0.6-8.8-1.8c4.5-4.9,10.6-1.6,15.8-3.3c1.3-0.4,1.8,1.3,1.4,2.5c-1.1,3.2,0.8,5.6,1.8,8.3c1.3,3.5,3.5,4.4,7.3,4
				C235.5,111.2,240.1,111.8,244.6,111.9z"/>
			<path fill="#787165" d="M255.1,81.4c2.7,0.3,6.8-1.4,5.2,4.5c-0.6,2.3,2,3.5,4.3,3.8c1.1,0.1,1.9,0.6,1.9,1.7
				c0,1.2-1.1,1.3-2,1.7c-11.7,6-24.7,7-37.3,9.7c-0.8-4,1.9-5.6,4.2-7.2c1.4-1,3.1-1.3,3.7-3.4c0.9-2.7,2.2-6.5,3.7-0.1
				c0.3,1.2,1.1,1.5,2.7,1.1C248.1,91.5,253.3,88.4,255.1,81.4L255.1,81.4z"/>
			<path fill="#504737" d="M204.8,100.2c2.8-0.2,5.7-0.4,8.5-0.7c1.2-0.2,2.3-0.6,2.9,0.8c0.5,1.1,0.3,2.3-0.7,3.1
				c-2.5,1.9-3.8,5.4-7.6,5.7c-2.2,0.2-3.1,1.6-3.2,4c0,2.5,1.3,3.4,3.4,3.9c2.8,0.7,5.6,1.2,8.4,1.9c1.3,3.2-1,3.2-2.9,3.2
				c-2.7,0-5.4-0.7-8.1-0.9c-6.1-0.4-11.8-1.6-16.1,5.5c-2.1,3.5-8.1,2.6-12.5,2.6c-0.6-0.2-1.1-0.5-1.5-0.9
				c0.1-3.2,2.6-3.5,4.8-3.7c3-0.3,4.2-2.2,6.1-4.4c4.7-5.7,8.3-13.2,17.6-14.1c-2.1-1.5-6.5,0.8-6.1-3.7c0-0.4,0-0.8,0-1.1
				C200.1,100.9,202.7,102.3,204.8,100.2z"/>
			<path fill="#787165" d="M233.9,75.5c0.4-0.7,0.9-1.5,1.3-2.2c1.7,1.5,3.5,2,5.7,1.2c0.6,2.7,2.8,2.1,4.6,2.3
				c3.2,0.4,6.6-1.2,9.6,1.1c0,1.2,0,2.4,0,3.5c0,0,0,0,0,0c-4.3,1.4-8.4,3.7-12.5,4.9c-4.3,1.3-9.5,2.4-14.5,2.1
				c3.6-2.7,7.8-4.7,8.2-10.3C236.5,75.6,235.2,75.9,233.9,75.5z"/>
			<path fill="#7C7362" d="M243.4,124.7c2.1-1.5,4.5-1.2,6.9-1.3c6.2-0.9,12.3-3.3,18.8-1.7c3.2,0.7,6.3-2,9.6-0.5
				c1.2,0.5,2.9,0.6,2.6,2.4c-0.3,1.5-1.8,1.1-2.9,1.1c-3,0-5.7,0.6-8.2,2.3c-4.2,1.6-8.8-0.1-13,1.1c-2.6-0.3-4.9,1.1-7.4,1.2
				C246.8,129.4,242.9,130,243.4,124.7z"/>
			<path fill="#655646" d="M256.3,127.1c4.7,0,9.3-0.1,14-0.1c1.3,0.2,2.7-0.2,3.6,1.1c-7.6,0.5-15.5-1-22.6,3.9
				c-1.7,1.2-5.2,0-7.8-0.1c0,0,0-0.2,0-0.2c-0.2-1.9,1.2-2.2,2.5-2.3C249.5,129.2,252.9,128,256.3,127.1z"/>
			<path fill="#5A4938" d="M259.8,162.2c4.5-6.3,7.6-14.1,16.7-15.3c1.8-0.2,2.7-1.3,3.4-2.8c0.9-2.1,2.4-3.4,4.5-4.1
				c0.4,1.2,0.7,2.3,1.1,3.5c-1.1,3.1-4.7,3.9-6.5,7.1c4.2-0.7,7.9-0.1,11.2,2.2c3.1,0.8,4,2.4,1.5,4.8c-1.6,1.6-1.7,3.1,0.1,4.3
				c2.4,1.5,2.3-1.1,2.8-2.2c3-6.8,6.6,0,10.6-1.2c-1.9,2.9-3.2,5-4.5,7.1c-4.5,4.8-9.8,8.2-16.4,9.2c-0.9,0.2-1.8,0.4-2.7,0.4
				c-4.1,0.2-8.1,1-12.2-0.1c-2.4-0.6-4.2-1.9-2.8-4.5c2.7-5.1,0.9-7.1-4.4-7.3C261.4,163.4,260.5,162.9,259.8,162.2z"/>
			<path fill="#4F4031" d="M328.8,120.1c0,0.6,0,1.2,0,1.7c-0.1,3-4.4,5.5-1.3,8.9c3.8,4.2,8.2,7.3,14.3,6.9c0.8-0.1,1.5,0,2.3,0
				c-3.3,5.4-18.7,12.8-24.3,11.5c-3.1-0.7-5.4-2.2-2.2-5.5c2.3-2.4,3.4-5.2,3-8.4c-0.3-2.4,1.3-3.9,2.3-5.8
				C322.9,125.1,325.3,122.2,328.8,120.1z"/>
			<path fill="#877666" d="M294.8,134.1c1.1-3.4,2.3-6.4,7-6.2c1.5,0.1,3.1-2,4.7-3.1c3.5,0.7,4.2,1.6,3,5c-0.7,2-1.9,3.7,0.3,5.6
				c3.4,3,1.9,5.7-0.9,8.1c-0.4,0.3-0.9,0.6-1.4,0.8c-2.3,0.6-4.7,0.8-6.9,1.9c-0.5,0.1-1,0.1-1.6,0.1c-3.8-1.3-6-3.3-4.1-7.7
				C295.6,137.1,294,135.6,294.8,134.1z"/>
			<path fill="#6E5F4D" d="M299.6,145.8c0.4,0,0.8,0,1.1,0c2-1.9,5.1-0.3,7-2.3l0,0c2.6-1.4,4.6,0.9,7,1.1c-0.2,3.1-2.2,4-4.8,3.3
				c-7.5-2-13.7,0.9-19.7,4.9c-4.3,0-8.4-2.2-13-0.7c-1.1,0.4-0.8-2,0.4-2.9c2.6-1.9,4.7-4.7,7.9-5.8c3.3-1.2,3.5-5,5.9-7
				c1.1,0.6,1.7,1.7,1.6,2.8C292.6,144.1,295.7,145.3,299.6,145.8z"/>
			<path fill="#866655" d="M284.3,173.8c6.5-0.7,10.5-6.4,16.5-8.1c6.9-3.2,13.7-6.7,21.4-7.9c3.5-0.5,4.4-6.3,9-5
				c0.6,1.3-0.1,2.3-0.9,3.2c-10.5,7-20.1,15.7-33.2,17.8c-0.6,0.2-1.2,0.3-1.8,0.4C291.6,174.2,287.8,177,284.3,173.8z"/>
			<path fill="#7B6959" d="M314.7,144.6c-2.8,2.6-4.7-0.7-7-1.1c2.6-3.1,5-6-0.6-8.7c-2.2-1-1.4-2.6,0.1-4.1c2.2-2.1,3.1-4.4-0.7-6
				c4.2-2.7,6.3-0.3,6.9,3.4C314.3,133.6,314.3,139.1,314.7,144.6z"/>
			<path fill="#907764" d="M329.9,155.1c0.4-0.8,0.8-1.6,1.2-2.3c2.7-2.3,5.5-4.7,8.2-7c1.8-1.1,4.1-1.7,5,0.4
				c1.8,4,4.6,7.8,4.4,12.6c0,1.3-0.3,2.6,1.1,3.4c0.8,3.1,2.2,6.2,0,9.3c-3.8-0.5-3-4-3.5-6.2c-2.8-11-2.7-11-13.2-9.1
				c-0.6,0.1-1.1,0-1.7-0.1C330.8,155.9,330.3,155.6,329.9,155.1z"/>
			<path fill="#7C6654" d="M348.8,158.7c-0.4-4.5-5.3-7-5.3-11.9c0-1.5-2.7-0.9-4.1-1c1.5-3.4,3.9-1.9,6.3-1.2
				c2.6,0.7,3,2.4,3.1,4.7c0.1,2-0.7,4.2,1.1,5.9C350,156.5,353.1,158.7,348.8,158.7z"/>
			<path fill="#7B6959" d="M299.6,145.8c-4.9,1.5-7.7-0.5-7.9-5.4c0-1.3-0.2-2.7-0.4-4c0.7-1.5,1.8-2.3,3.5-2.4
				c1.1,2.1,3.3,3.6,1.2,6.7C293.4,144.6,299.9,142.9,299.6,145.8z"/>
			<path fill="#7E7565" d="M251.6,48.7c0.4,0,0.8,0,1.1,0c-1.7,2.8-3.6,4.9-6.8,1.9c-1.1-1-4.9-0.3-2.5-3.6c1.5-2,3.4-2.4,5.4-0.5
				C249.7,47.3,250.7,48,251.6,48.7z"/>
			<path fill="#4C4433" d="M216.4,58.1c-1.6,2.9-12.7,5.3-14.7,2.8c-2.1-2.7,0.7-4.3,2.6-5c3.3-1.1,6.7-1,9.8,0.9
				C214.9,57.2,215.7,57.7,216.4,58.1z"/>
			<path fill="#57493A" d="M218.9,143.5c-1.9,3.2-4.9,4.3-8.5,4.8c-3,0.5-7.6,0.1-6.7,5.7c-0.9,1-2.3,1.3-3.2,0.7
				c-7-4.9-16.3-3.5-23.1-8.5c-4.8-3.5-10.3-3.6-15.8-3.8c-0.2-0.1-0.4-0.1-0.5-0.2c-2.1-1.1-5.7-1.1-5.4-4.2
				c0.2-2.2,2.2-4.2,4.8-4.9c1.4-1.3,3.1-0.9,4.4-0.2c5.2,2.8,11.2,3.3,16.4,5.9c4.6,1.1,9.2,1.5,12.7-2.6c1.4-1.7,2.9-1.4,3.8,0
				c4.5,6.6,11.1,6.9,18,6.5C216.8,142.4,218,142.5,218.9,143.5z"/>
			<path fill="#473F33" d="M197.8,102.5c1,2.5,2.7,2.1,4.8,1.4c2-0.6,3.7,0.2,3.8,2.4c0.1,2.2-2,2.3-3.4,1.9c-3.8-1-5.9,0.9-7.5,3.8
				c-2.7,4.5-8.7,6.5-9.5,12.6c-0.2,1.7-2.6,1.3-4.1,1.3c-2.4,0-4.6,0.4-6.3,2.3c-2.4,1.8-4.4,1.5-5.8-1.2c0-0.4,0-0.8,0-1.1
				c-0.5-3.1,2.2-3.1,3.9-4c2.9-1.6,6.6-1.9,9.6-5.6c-5.2,0.8-9.8,3.6-13.5-0.9c0-0.4,0-0.8,0-1.1c3.1-1.8,7.6-1.8,8.7-6.5
				c0.4-1.5,2-2,3.3-1.9C187.4,106.1,192.3,103.1,197.8,102.5z"/>
			<path fill="#6B5849" d="M161.5,142.3c5.9-3.4,10.6-0.5,15.8,2.1c4.2,2.1,8.2,5,13.6,4.6c4.6-0.3,7.8,4.8,12.7,5
				c0.4,0,0.8,0,1.1,0c1.4,4.7-2.3,5-5.2,5.5c-2,0.3-4.4-0.5-5,2.6c-0.4,0.5-0.8,0.8-1.3,1c-3.8,0.8-5.8-1.5-7.5-4.2
				c-2.3-3.7-5.6-5.6-10.1-5.8c-4.3-0.2-8.3-1.9-12.3-3.2c-0.2-0.2-0.4-0.5-0.6-0.7c-1.6-1.9-3.3-3.8-4.9-5.7
				C159.2,143.4,160.6,143.7,161.5,142.3z"/>
			<path fill="#6A6355" d="M169.7,127c1.8,1.1,3.8,1.3,5.8,1.2c0,0,0,0.1,0,0.1c3.1,1.2,6.6,0,9.7,1.6c2.1,1,4.9,1.4,4.9,4.3
				c0,3.1-2.3,4.7-5.2,5.4c-1.2,0.3-2.3,0.4-3.5,0.4c-7-2.3-14-4.7-21.1-7c-0.7-2.7-4.2-1.7-5.1-4.8c3.3,2.1,7-4.1,10.6,1.5
				C166.8,131.3,167.2,126.3,169.7,127z"/>
			<path fill="#342D21" d="M169.7,115.3c3.7,1,7.4,2.3,11.1-0.6c1.2-1,3.3-1,4.2,0.5c1.2,1.9-0.9,2.6-1.9,3.7
				c-2.6,2.9-6.5,3-9.8,4.6c-1.4,0.7-2.9,0.9-3.6,2.5c-3.1,0-6.2,0-9.3,0c-3.7-6.2-1.7-8.9,7-9.3
				C168.1,116.1,168.9,115.7,169.7,115.3z"/>
			<path fill="#473F33" d="M167.3,116.5c-0.6,0.9-1.5,1.1-2.5,1.2c-5.1,0.7-6.5,3.5-4.5,8.1c-0.8-0.4-1.6-0.8-2.4-1.1
				c-1.3-2.5-3.4-5.2-0.6-7.8C160.4,114.2,163.9,114.8,167.3,116.5z"/>
			<path fill="#8C8476" d="M195.4,65.1c2.5,0.4,4.6-0.9,7-1.2c6.8,2.3,14.1,3.1,17.2,11.9c1.9,5.5-4.2,3.4-4,6.3
				c-3.4-0.3-6.4,2.6-10,1c-3-1.3-5.6,1.1-8.4,1.4c-3,0.3-7.3,2.4-6.8-4.2c0.3-3.8-2.2-1.6-3.2-0.5c-2.9,3.5-7.2,3.5-11,4.7
				c-2.8,0.9-2.8-0.5-2-2.8c1.6-4.5,5.2-7.7,7.2-11.9C186.9,70.6,191,67.4,195.4,65.1z"/>
			<path fill="#5D5243" d="M153.3,65.1c-2.2,0.8-2.4,3.1-3.6,4.6c-5.2,0.4-2.9-4.4-3.8-6.5c-1-2.2,1.7-5.2,4.6-5.5
				c1.9-0.2,3.4-0.4,4.3-2.1c0.7-1.3-1.5-3.3,0.8-4c1.3-0.4,2,1,2.5,2c1,2.2,1.9,4.4,0.1,6.5C156.6,61.8,154.9,63.4,153.3,65.1z"/>
			<path fill="#BE7E78" d="M196.6,368.9c-1.4-2.7,1.5-7.5,2.2-11.7c0.6-3.8,0-7.2-2.8-10.2c-3.5-3.6-6.4-7.7-7.6-12.8
				c2.9-1.7,4.6,0.6,5.8,2.3c3.9,5.3,9.3,7.5,15.3,8.8c2.5,1.1,5.6,1.7,6.1,5.2c-1.3,3.5-3.2,6.4-5.9,9.1c-3.2,3.2-6.2,7.1-5.2,12.3
				c0,0.9-0.3,1.7-1,2.2C202.4,373.9,197.8,368.9,196.6,368.9z"/>
			<path fill="#AB8477" d="M203.6,374c0-0.8,0-1.6,0-2.4c3.4,0,4,4.2,7,4.7c2.3,2.2,5,3.5,8.2,3.5c9,1.8,18,2.7,26.9-0.1
				c1.7-0.5,3.2-1.2,4.9-1.8c2.4-0.9,4.2,0.1,5.5,2c1.6,2.3-1.3,2.7-1.8,3.9c-1.6,4.7-5,7.7-8.6,10.7c-2.6,2.1-5.1,4-8.2,5.1
				c0.1-3.5,3.7-4.2,5.5-6.3c2.3-2.6,4.7-5.3,3.2-8.5c-1.7-3.5-5.8,0.6-8.4-1.3c-2.2,4.3-6.5,2.1-8.9,1.7
				C219.7,383.6,210,382.1,203.6,374z"/>
			<path fill="#C9A395" d="M181.4,173.8c-3.1-2.5-7.4,0.1-10.6-2.3c1.6-2.7-1.6-8.2,4.7-8.2c1.6,6,1.7,6.1,7.8,3.8
				c1.1-0.4,2.1-0.9,3.2-1.2c0.9-0.2,1.9-0.1,2.8,0.2c1.5,0.6,2.7,1.6,3.6,2.9c2.1,3.2,1.1,5.7-2.7,6.2c-2.7,0.4-5.4,0.6-8-0.7
				C181.9,174.3,181.7,174,181.4,173.8z"/>
			<path fill="#B2907D" d="M186.1,166.9c-0.9,1.3-2.4,1.9-3.8,2.2c-2.3,0.6-4.8,2.5-7,0.6c-2.3-1.9,0.4-4.2,0.3-6.3
				c0.4-0.4,0.8-0.8,1.2-1.2c3-1.4,3.8-3.9,3.4-7c0.2-0.1,0.5-0.2,0.7-0.3c4.7,3.1-0.1,6.5,0.3,9.9
				C182.7,165.4,185.1,164.7,186.1,166.9z"/>
			<path fill="#9B7264" d="M180.2,174.9c0.4-0.4,0.8-0.8,1.2-1.1c0,0,0,0,0,0c3.8,1.5,7.7,0.4,11.5,0.6c2.5,0.2,5.1-0.1,7.2,1.8
				c0.7,1.1-1.5,3,1.2,3.7c1.3,0.3,2.7,1.3,2.3,2.9c-0.5,1.8-2.4,1.7-4,1.8c-3.3,0.3-6.6,0.8-9.6,2.2c-0.9,0.4-1.7,0.9-2,2
				c0.9,1.8,2.3,0.8,3.4,0.4c9-3.4,17.5-0.8,25.9,2.1c4.4,1.6,4.2,3.8-0.2,6.5c-2.2-0.1-4.3,0-6.5,0.2c-0.8-0.1-1.6-0.4-2.3-0.8
				c-8.4-3-15.6-0.5-22.2,4.7c-4.9,0.4-9.1,0.2-6.2-6.6c0.2-0.5,0.3-1.3,0-1.7c-5-7.4,1.1-8.6,5.8-10.2c1.7-0.6,4.1-0.9,3.9-2.7
				c-0.3-2.1-2.8-2.1-4.8-2.1c-2.3,0-4.7,0-7,0C178.7,177.3,180.6,176.9,180.2,174.9z"/>
			<path fill="#EBB4A2" d="M196.6,235.9c-7-2-13.7-4.6-20-8.2c-8.8-5-9.5-13.6-10.5-22.3c0.1-0.4,0.1-0.7,0.1-1.1
				c2.1-4.1,4.8-3.7,7.8-1c3.1,3.9,6.1,7.4,5.5,13.4c-0.4,3.7,4,6.3,7.4,8.2c2.3,1.4,4.9,2.3,7.7,2.6
				C199.3,230.8,199.8,232.6,196.6,235.9z"/>
			<path fill="#CA9989" d="M189.5,204.2c0.4-1.1,0.8-2.3,1.2-3.4c-0.3-1.1,0.3-1.5,1.3-1.6c2.3,0.5,3.9,1.9,4.4,4.1
				c0.6,2.6,2.3,4.4,4,6.3c1.7,1.9,3.6,3.9,2.2,6.7c-1.3,2.9-4,3.4-6.9,3.1c-0.8-0.1-1.5-0.1-2.8,0.6c3.1,2.9,7,3.6,10.7,4.5
				c2.5,1.7,6.6,1.4,7,5.7c-4.5,2.4-8.9,2.6-13-0.8c-2-1.7-4.8-1.5-6.8-3c-2.6-1.3-5.5-1.9-7.7-4.1c-1.5-1.6-3.2-3.1-2.1-5.5
				c1.1-2.3,2.4-4.6,5.2-5c5.9-1,5.9-0.9,3.3-6.5C189.5,205,189.5,204.6,189.5,204.2z"/>
			<path fill="#DEA998" d="M189.5,204.2c2.3,1.1,3.4,3.4,4.2,5.4c0.9,2.5,0.2,5.7-3.5,4.2c-4.4-1.8-7,0.5-8,3.7
				c-1.1,3.3,2.6,4.6,5,6c1.1,0.7,2.4,1.2,3.5,1.8c0.9,1.1,3.1,1.3,2.3,3.5c-4.7-1.3-9.1-3-12.3-7c-1.9-2.3-4-3.8-2.5-7.8
				c1.3-3.6-3-6.6-5.1-9.8c2.5-1.8,5.6,0.6,8.2-1.1C184.1,203.5,186.8,203.9,189.5,204.2z"/>
			<path fill="#81655D" d="M191.9,199.8c-0.4,0.3-0.7,0.7-1.1,1c-1.5,0.7-2.9,1.4-4.6,1.1c1.2-5,6-5.6,9.7-6.8
				c4.4-1.4,9.2-1,13.6,1.1c-0.6,0.6-1.3,0.8-2,1.1c-1.9,0.7-5.4-0.8-5.5,1.6c-0.1,3-0.2,7,4.9,9.5c-2.7-5.8-0.3-8.8,3.8-11.1
				c2-0.8,3.9-2.2,5.9,0c2.8,0.5,5.9,0.6,6.2,4.5c-0.6,1.4-1.6,2.3-2.9,3c-1.8,0.3-4.2-0.5-4.5,2.4c-0.7,6.3-5.3,5.8-9.6,5.3
				c-4.4-0.5-8.7-4.6-9-8.9C196.5,199.8,193.6,200.8,191.9,199.8z"/>
			<path fill="#CA9B84" d="M181.4,203.2c-2.5,2.2-5.5,0.7-8.2,1.1c-2.4-3-4.7-1.9-7,0.1c0.5-5.2,1-10.3,3.5-15
				c0.8-1.5,1.6-2.8,3.4-2.3c1.8,0.4,2.3,1.9,2.3,3.6c0,2.1,0.5,4.4-0.1,6.4C173.5,203.1,177,203.4,181.4,203.2z"/>
			<path fill="#8C6B59" d="M119.4,193.7c-0.1-1.5-0.1-3-0.2-4.6c0-0.8,0-1.6,0-2.3c-0.5-2.1-0.9-4.2-2.1-6c0.3-2.4-1.4-4-2.5-5.8
				c0.2-2.3,1.6-3.7,3.5-4.7c0.9,6.7,4.9,12.8,3.9,19.9c-0.1,0.8,0.7,1.8,1.9,1.7c1-0.1,1.2-0.9,1.2-1.6c0.1-1.7,0.8-2.9,2.4-3.7
				c1.4,1.3,1.5,2.9,1.5,4.7c-0.3,1.6-0.3,3.4-1.6,4.6c-1.8,2.7-0.6,6.1-2.1,8.9c-0.6,1.2,0,3.5-2.3,3.1c-1.6-0.3-2.2-1.9-2.4-3.6
				C120.1,200.9,121.4,197.1,119.4,193.7z"/>
			<path fill="#8F7869" d="M127.6,191.5c0-1.6,0-3.2-0.1-4.7c2.5-2.4,3.6-6,3.9-8.7c0.7-7.3,5.2-6.8,10.1-6.5c0.8,0,1.5,0,2.3,0.1
				c0,0.4,0.1,0.8,0,1.2c-1.6,0.2-3.4-0.5-4.7,1.1c-5,3.4-5.6,9.3-8.2,14.1l0,0C129.5,188.7,130.3,191.8,127.6,191.5z"/>
			<path fill="#AD9380" d="M131.1,187.9c-0.8-5,2.8-8.6,4-13c0.4-1.6,2.7-0.9,4.2-1.1C137.3,179,134.7,183.7,131.1,187.9z"/>
			<path fill="#AD9380" d="M127.6,191.5c1.5-0.9,0.9-3.8,3.5-3.6c0,1.6-0.1,3.1-0.1,4.7c-1.3,1-1.5,3.1-3.5,3.5
				C127.5,194.5,127.6,193,127.6,191.5z"/>
			<path fill="#B2907D" d="M180.2,155.2c-4.1,0.5-8.6,2.7-11.7-2.3c0.2-0.2,0.5-0.4,0.7-0.6C172.8,153.4,177.5,150.8,180.2,155.2
				L180.2,155.2z"/>
			<path fill="#B2907D" d="M159.1,149.4c1.2-0.1,2.4-0.1,3.6-0.2c0,0,0,0,0,0c1.3,2.3,5.5-0.4,5.8,3.6c0,0-0.1,0.1-0.1,0.1
				C165,152.8,161.2,153.2,159.1,149.4z"/>
			<path fill="#DF7F75" d="M102.9,191.4c1.6,0,3.2,0.1,4.8,0.1c0.2,1-0.2,1.4-1.2,1.2c-3.2,0.4-5.9,1.3-6.3,5.3
				c-0.2,2.4-2.9,2.9-4.3,4.4c-3.6,3.8-1.9,9.3,3.2,10.6c1.7,0.4,3.4,0.5,5.1,0.8c0.1,2.4-2.1,2.6-3.5,3.7c-7.7-0.3-8.4-1.8-8.4-9.4
				C92.2,199.7,95,194,102.9,191.4z"/>
			<path fill="#655047" d="M334.6,217.3c-3.6,3.7-8.5,2.3-12.8,3.4c-5.2-2.3-10.8-2.2-16.3-1.9c-1.9,0.1-4.1,0.1-3.4,3.1
				c-2.1,2.7-5.9,2.7-8.2,5.2c-1.5,0.9-3.1,1.6-4.5,2.6c-2.3,1.6-4.4,1.4-5.9-1c-1.1-1.9-3-2.2-4.6-3.2c-2.3-5.8,1.1-12,7.3-13.2
				c-5.3,0.6-10.5,2.2-15.8,0.7c-1.6-0.4-4.2,0-3.2-3.1c5.4-2.1,11.5-0.4,16.7-3.2c10-0.3,19.6,1.9,29.4,3.3
				C320.8,211.5,328.5,212.1,334.6,217.3z"/>
			<path fill="#836B5E" d="M313.6,211.3c-9.7-1.4-19.4-3.1-29.3-3.5c2.4-5.4,7.9-7.8,11.3-12.3c1.1-1.1,2.4-1.7,3.8-1.8
				c1.5-0.1,3-0.1,4.3,0.8c1.1,1.3,0.5,2.1-0.7,2.8c-1.6,0.3-3.3,0.6-3,2.7c0.2,1.6,1.9,1.5,3.1,2.1c4.2,2.2,8.8-1.1,12.9,1.1
				C315.8,206.1,314.4,208.6,313.6,211.3z"/>
			<path fill="#998175" d="M313.6,211.3c-2-3.5,0.4-5.8,2.4-8.1c3.5-0.4,6.9-0.7,10.4-1.1c3.5,2.9,8.1,4.2,11,8.1
				c2.4,3.3,2.9,6,0.8,8.2c-1.2-0.4-2.3-0.7-3.5-1.1C327.5,215.6,320.9,212.2,313.6,211.3z"/>
			<path fill="#594C41" d="M293.7,226.5c1.3-4.2,5.3-3.4,8.3-4.7c1.9-1.6,3.9-1.6,5.8,0.1c1.9,2.1,3.9,4.2-1.3,4
				c-1.1,0-1.9-0.1-2,1.2c0,0.9,0.5,1.5,1.3,1.6c5.1,0.2,4.3,4,4.3,7.2c-0.2,0.2-0.4,0.5-0.6,0.7c-5,2.9-9-1.2-13.5-1.9
				c-0.8-0.8-1.6-1.5-2.4-2.3C292.1,230.4,292.1,228.5,293.7,226.5z"/>
			<path fill="#806056" d="M342.8,242.9c-3.6,3.6-0.9,7.8-1.2,11.7c-1.1,0.4-2.1,0-2.5-0.9c-2.3-6.3-8-8.8-13-12.2
				c-1.6-1.1-3.5-2-2.1-4.5c1.7-0.1,2.7,1.4,4.1,1.9c2.8,0.8,4.9-1,3.6-3.2c-2.8-4.7,0-9.1,0.2-13.4c0.2-3.5,4-0.3,6.1,0.6
				c-4,3-2.2,7.4-2.5,11.2c-0.1,1.9,1.7,2.3,3.4,1.8c1.2-0.3,2.1-1.8,3.7-1.3c0,0,0.2,0,0.2,0C342.9,237.4,342.9,240.2,342.8,242.9z
				"/>
			<path fill="#533E31" d="M326.4,193.9c1.6,2.9,5.8,2.3,7.3,5.3c0.5,0.9,1,1.7,0.2,2.6c-0.3,0.3-1.1,0.6-1.5,0.5
				c-6.8-3.2-14.1-0.6-21.1-1.5c-2.3-1.5-6.5-2.2-2.7-6.3c0.5-0.3,1.1-0.5,1.6-0.7c5.2-0.4,10.3-1.9,15.5-0.5
				C326,193.5,326.2,193.7,326.4,193.9z"/>
			<path fill="#927266" d="M324.1,237.1c0.2,0.7,0.3,1.9,0.7,2.1c7.6,3,12.5,8.9,16.8,15.5c0.2,3.3,0,6.6-2.4,9.2
				c0.3-4.3-1.8-8.2-2.4-12.4c-0.3-1.8-1.6-2.8-3.2-2.8c-8.6,0-11-6.9-14.2-12.8c-1.4-1.6-1.4-3.1,0-4.7
				C322.1,232.3,322,235.5,324.1,237.1z"/>
			<path fill="#8A7065" d="M342.8,234.7c-1.8,2.3-3.5,4.7-7.1,2.8c-3.3-1.7-1.8-4-1.3-6.4c0.3-1.2-0.2-2.6-0.5-3.9
				c-0.8-3.7,1.5-4.2,4.3-4.3C344.7,224.9,342.6,230.3,342.8,234.7z"/>
			<path fill="#857166" d="M307.7,221.9c-1.9,0-3.8-0.1-5.8-0.1c-0.9-0.7-1.7-1.5-2.6-2.2c6.2-4,18.4-3.4,22.5,1.1
				c0.3,1.5,3.5,1.2,2.3,3.2c-0.7,1.3-2.5,1.3-4.2,0.7C316,223.3,312.1,221.3,307.7,221.9z"/>
			<path fill="#98827A" d="M319.5,231.2c0,1.6,0,3.1,0,4.7c-1.8,3.1-4.6,4.7-8.2,4.7c-2.4,0.1-2.1-1.6-2.1-3.1
				c0.2-0.6,0.5-1.1,0.9-1.6c0,0,0,0,0,0c1.6-0.2,2.1-1.2,2.3-2.7c0.2-1.9-1.3-4.6,1.7-5.3C316.7,227.2,318.3,229.1,319.5,231.2z"/>
			<path fill="#907969" d="M347.6,198.5c0,2.3,0.3,5.4-2,6.2c-2.5,0.9-3.8-2.1-5.1-3.9c-3.5-4.8-8.5-6.3-14.1-6.9c0,0-0.1,0-0.1,0
				c-0.3-0.5-0.3-1.1,0.1-1.6c4.6-2.5,8.6-0.4,12.6,1.8c1.8,1,3.4,3,5.7,1.3c1-0.5,2-1.2,3.2-0.3
				C348.1,196.2,348.3,197.4,347.6,198.5z"/>
			<path fill="#887264" d="M338.1,218.4c1-6.4-3.5-9.5-7.7-12.6c-1.5-1.1-3.8-1.3-4-3.7c7.7,1.8,13.2,6.1,15.4,13.9
				C343.2,220.8,341,220.1,338.1,218.4z"/>
			<path fill="#907764" d="M347.6,198.5c0-1.2,0-2.4-0.1-3.6c-2.2-6.3-0.1-12.7-0.7-19.1c-0.1-1.1,1.1-2,2.3-2.2
				c2.5,1.7,0.8,4.3,1.3,6.5c-0.4,3.8,0.8,7.6-0.7,11.3c-0.9,0.5-1.1,1.4-1,2.4C348.5,195.4,349.2,197.2,347.6,198.5z"/>
			<path fill="#6D5648" d="M309,195c-2.6,3.3,1.8,3.7,2.3,5.7c-2.3,0-4.6,0.1-6.8,0c-3-0.1-2.1-1.9-1.4-3.5c0.4-0.8,0.8-1.5,1.2-2.3
				c0.2-0.2,0.4-0.4,0.6-0.6C306.4,193.7,307.8,193.6,309,195z"/>
			<path fill="#CC7E6F" d="M113.5,183.1c-0.8,0-1.5,0.1-2.3,0.1c-2,0.6-3.5,3.7-6,1.3c-2.1-2-0.8-4.3,0.2-6.3
				c0.8-1.7,1.4-3.6,3.4-4.4C113.6,175.4,111.9,180.1,113.5,183.1z"/>
			<path fill="#A77969" d="M117.1,180.8c2.2,1.5,4.3,2.9,2.1,6C116.7,185.5,117,183.1,117.1,180.8z"/>
			<path fill="#A26C63" d="M209.4,345.8c-5.9,0.8-10.3-2.1-14.1-6c-2.1-2.2-3.5-5.2-6.9-5.7c-0.4-0.4-0.8-0.8-1.2-1.2
				c-0.9-2.3-2-4.5-3.9-6.1c-1.9-1.6-2.3-3.4-1.1-5.5c3.6-1,4.6,2.3,6.7,3.9c3.9,7.3,11.1,10.3,17.9,13.8c2.3,2.6,6.2,1.1,8.5,3.4
				c0.2,0.5,0.1,1-0.2,1.4C213.4,345,211.3,345,209.4,345.8z"/>
			<path fill="#B58170" d="M182.7,321.1c-0.4,2.5,0.5,3.9,2.5,5.7c1.1,1,4.1,3.2,2,6.1c-4.7-4-9-8.2-8.2-15.2c0,0,0.1-0.1,0.1-0.1
				c0.5-0.4,1-0.5,1.6-0.5C182.5,317.9,183.8,318.9,182.7,321.1z"/>
			<path fill="#A37160" d="M180.4,317.6c-0.4,0-0.9,0-1.3,0.1c-1.8-7.3-3.7-9.1-10.8-9.2c-2.7,0-4.8-0.7-4.9-3.5
				c-0.3-7.9-2.7-16.3,5.2-22.3c4.8-0.2,8.3-2.8,11.4-6.1c2.4-2.5,4.9-5.1,8.2-1.6c3.1,3.3,0.5,5-1.9,7.4c-4.3,4.3-8.5,8.9-8.2,16.2
				c2.4,0.4,5.3,1.3,8-0.8c0.2-0.2,0.5-0.4,0.7-0.7c2.3-0.9,4.4-1.2,6.4,0.8c0,0.4,0,0.7,0,1.1c-2.2,2.8-5.8,2-8.5,3.6
				c-4.4,1.8-7.2,4.1-3.7,9.2C181.9,313.5,182,315.8,180.4,317.6z"/>
			<path fill="#D39D8E" d="M209.4,297.9c-0.8,0-1.5,0-2.3-0.1c-7-1-14-0.9-21.1,0c0,0-0.1,0-0.1,0c-1.5-0.2-3.7,0.1-3.1-2.2
				c0.6-2.4,0.6-5.7,4.3-6c5.8-3.1,11-7.3,17.8-8.3c0.6-0.1,1.1-0.4,1.7-0.5c4.7-0.9,18.8,10.1,18.8,14.8c0,3.2-1.9,4.2-4.9,4.5
				C216.6,300.7,213.2,298.6,209.4,297.9z"/>
			<path fill="#C28B7D" d="M209.4,297.9c3.2-0.7,6.1,1.1,9.2,1.1c2.2,0,5.1,0.8,5.8-2.4c0.6-2.5-2-5.7-3-5.7
				c-5.1,0.1-5.8-4.6-8.5-6.9c-2.4-2-4.2-1.7-7.1-1.5c-7.1,0.5-11.4,7.2-18.4,7.1c2-3.2,4.8-5.3,8.5-6.7c2.8-1,5.8-2,8.1-4.3
				c4.3-4.3,8.5-0.7,12.7,0.5c7.7,3.3,11.8,9.2,13.5,17.2c0.1,0.6,1.1,1,1.7,1.5c1.6,2.6,3.6,4.6,7.1,4.1c1.1,0.2,2.1,0.6,2.6,1.7
				c0.1,1.7-1.2,2.3-2.4,2.9c-2,0.1-4-0.5-6.1-0.6c-4.6-3.1-9.7-4.5-15.2-4.7C214.5,301.3,212.1,299.3,209.4,297.9z"/>
			<path fill="#AD7466" d="M216.5,265.1c0,0.4,0,0.7,0,1.1c-0.1,1.7,0.2,3.9-2.1,4.2c-1.6,0.2-1.4-1.5-1.4-2.6
				C213,265.5,213.7,263.8,216.5,265.1z"/>
			<path fill="#DE9E91" d="M238.7,247.6c2.3-2.4,5.5-3.1,8.2-4.7C246.2,247.9,242.4,247.6,238.7,247.6z"/>
			<path fill="#987165" d="M255.1,225.3c-6.9,7.4-15.9,11.5-24.8,15.6c-2.3,1.1-6.1,3.1-7.9-1.5c2.4-2.8,5.6-4.2,8.9-5.5
				c3.1-0.5,4.4-3.5,6.8-4.9c1-0.5,2-0.8,3.1-0.4c4.3,2.1,5.8-1.7,7.6-4c3.3-4.2,5.1-9.5,10.5-11.9c3.1-0.4,6-0.3,7.7,2.9
				c-1.1,2.3-3.4,1.3-5.2,1.8c-3.6,0.9-6,2.7-5.7,6.8C255.8,224.5,255.4,224.9,255.1,225.3z"/>
			<path fill="#B79084" d="M256.2,224.1c-1.6-4,0.5-7.6,4.9-8.1c1.9-0.2,3.8-0.1,5.7-0.1c1-0.2,1.4,0.2,1.3,1.1
				c4.8,4.9,1,11.4,3.4,16.8c1.3,2.9,4.4,6-0.1,8.9c-0.4,0-0.7,0.1-1.1,0.1c-0.8,1.2-1.6,2.3-2.4,3.5c-2.2-2.8-1.5-6.1-0.8-8.9
				c0.9-4.1,0.7-8.1,0.9-12.1c0.1-2.9-0.1-5.9-3.2-6.7c-2.9-0.7-5.5,1-7.3,3.5C257.1,222.9,256.6,223.5,256.2,224.1z"/>
			<path fill="#AC7D70" d="M238.7,302.6c-4.5,1.7-6.1-1-7.1-4.7c2.3,1.2,4.2,3.4,7.1,3.5c0,0,0,0,0,0c0.4,0.3,0.5,0.5,0.4,0.8
				C239,302.4,238.8,302.6,238.7,302.6z"/>
			<path fill="#FBCFBF" d="M246,274.5c-3.2-0.6-7-1.4-7.2-6.5c-0.1-4,4.3-8,8.4-7.9c4,0.1,7.7,3.7,7.6,7.5
				C254.7,270.7,250.3,274.5,246,274.5z"/>
			<path fill="#D6A095" d="M231.7,234.7c-3.1,1.6-5.7,4.1-9.3,4.7c-4.7,0-9.4,0-14.1,0c-3.5-2.4-8.5-0.1-11.7-3.5
				c1.6-3.7,1.1-6.4-3.5-7c-0.8-1.2-1.6-2.3-2.3-3.5c6.4,2.6,12.4,6.9,19.9,4.7c1-1.3,2.5-2.3,4-2c5.3,0.9,10.6,1.4,15.8,2.3
				C232.5,230.6,234.4,232.3,231.7,234.7z"/>
			<path fill="#7C6654" d="M349.9,179.7c-0.3-2,0.8-4.2-1.2-5.9c-0.6-0.8-0.6-1.5,0-2.3c2.2-2.9,0.7-6.2,1.1-9.4c0.4,0,0.8,0,1.1,0
				c2.6,5.8,0,11.7,0,17.5C350.6,180.2,350.3,180.3,349.9,179.7z"/>
			<path fill="#705A4D" d="M349.9,179.7c0.4,0,0.8,0,1.1,0c-0.5,3.9,1.3,8-1.2,11.7C349.8,187.5,349.8,183.6,349.9,179.7z"/>
			<path fill="#C09085" d="M238.7,306.1c0.8-0.7,1.6-1.5,2.3-2.2c3.7-2.5,7.6-2.2,11.7-1.3c4.2,0.4,8.3,0.8,12.5,1.1
				c3,0.2,4.4,2.1,5.5,4.5c0.5,1.1,1,2.3-0.2,3.1c-0.7,0.5-2,0.6-2.7,0.3c-6.4-3-13.1-1.7-19.8-2c-2.2-1.4-4.6-1.2-7-1.2
				C240.6,307.3,237.9,308.4,238.7,306.1z"/>
			<path fill="#AD8D72" d="M204.8,304.9c2.9-0.2,5.3,0.6,8,2.3c3.5,2.2,8-0.2,12.1,1.2c2.3,0.8,4.9,0.6,6.8,2.5
				c-6.8,3.8-13.4,0.6-20-0.9c-2.3-0.5-4.5-2.1-5.5,1.3c-0.8,2.9,0.9,4.2,3.7,4.5c1.6,0.2,3,0.6,3.6,2.4c0,0.6-0.3,1.1-0.9,1.5
				c-6.4,2.6-10.6-2.1-15.4-4.5c-2.1-6.7-1-9.1,5-11.2C203.1,303.9,204,304.2,204.8,304.9z"/>
			<path fill="#CDB195" d="M213,317.8c-1.2-0.6-2.3-1.2-3.8-0.6c-3.3,1.4-4-1.7-5-3.5c-1.3-2.4,0.5-4.4,2-6.2
				c1.9-2.2,3.1-0.3,4.9,0.5c6.5,3,13.5,3.2,20.5,2.8c1.2,1.1,2.5,2.2,3.7,3.4c0.6,0.7,0.7,1.5,0.3,2.3c-1.9,1.2-3-0.5-4.3-1.2
				c-2.3-2.1-4.5-0.4-6.7,0.1c-1.4,0.2-2.8,0.1-3.9-0.6c-3.9-2.5-5.5-0.6-6.2,3.1C213.9,318.2,213.5,318.2,213,317.8z"/>
			<path fill="#B29786" d="M235.3,316.6c0-0.8,0-1.6,0-2.4c6.9,0.3,13,4,19.8,4.8c0.7,1.3,1.8,1.9,3,2.6c2.1,1.2,2,3.2,1.5,5.1
				c-0.5,2-2.4,1.7-3.8,1.7c-3.1,0-6.2,0.6-9.1-0.9c0.9-2.3,5.3-1.2,4.9-4c-0.5-3-4.3-2.4-6.5-3.8
				C242.1,317.7,237.5,321,235.3,316.6z"/>
			<path fill="#8B5848" d="M204.8,304.9c-0.8,0-1.6,0-2.3,0c-3.2-0.9-6.3,1.7-9.5,0.5c-2.4-2.8-6.6-1.7-9.2-4
				c2.9-1.8,6.2-1.6,9.4-2.4c3.4,0,6.8,0.2,10.2,1.1C206.8,301.1,205.7,302.9,204.8,304.9z"/>
			<path fill="#B77B6E" d="M186.1,297.8c7-1.8,14.1-1.8,21.1,0c-4.7,0-9.4,0.1-14,0.1C190.8,297.9,188.4,297.9,186.1,297.8z"/>
			<path fill="#AC7D70" d="M238.7,306.1c0.8,0.8,1.6,1.6,2.3,2.3c-2.9-0.1-5.7-0.7-8.2-2.4C234.8,304.4,236.8,305.9,238.7,306.1z"/>
			<path fill="#AD7466" d="M252.7,302.5c-4-0.3-7.8,0.5-11.7,1.3c-0.8-0.4-1.6-0.8-2.3-1.3c0-0.4,0-0.8,0-1.2c4.7,0,9.4,0.4,14-1.1
				C252.8,301,252.7,301.8,252.7,302.5z"/>
			<path fill="#351D16" d="M197.7,314.4c5.1,1.4,9.1,6.4,15.2,4.7c2.2-0.3,4.1,0.7,6,1.7c4.5,2.5,9.1,4.7,14.3,5.4
				c1.3,0.2,2.5,0.9,3.1,2.3c3.7,3.7,8.3,1.7,12.5,2.1c2.5,0.2,4.9,0.1,7.4,0.2c4,0.9,4.7,3.4,3.5,6.9c-0.4,0.6-0.9,1.7-1.6,1.6
				c-8.4-1.6-15.7,3.8-23.9,3.5c-6.3-0.4-12.9,1.5-18.7-2.4c-1.7-1.2-3-3.3-5.2-3.4c-9.3-0.6-15.6-6.7-22.3-11.9
				c-4.2-3.8-6.6-8.4-6.7-14.2c0-2.1-0.9-4.4,1.7-5.5c2.5-1.1,4.9-0.6,6.9,1.4c1.7,1.8,2.9,4.1,5.2,5.3
				C196,312.9,196.8,313.6,197.7,314.4z"/>
			<path fill="#CCBCA2" d="M235.3,316.6c4.5,2.3,10-0.3,14.5,3.3c1.5,1.2,4.5,0.5,4.1,3.9c-0.4,3.2-2.5,3.4-5,3.3
				c-0.7,0-1.5,0.2-2.2,0.4c-0.7,0.3-1.4,0.6-2.1,0.9c-11-0.5-21.1-3.5-30.4-9.5c-0.2-0.2-0.2-0.7-0.1-1.1c-0.4-2.2-1-4.6,1.2-6.2
				c2.2-1.6,3.3,1.1,4.9,1.7c1.4,0.5,2.8,1.1,4.4,1c0.2,0.3,0.4,0.6,0.4,1c0.3,2-0.9,5.1,2.6,5.3c3.1,0.2,3.2-2.5,3.3-4.8
				c0-0.6,0.3-1.1,0.8-1.5C232.9,315,234.1,315.8,235.3,316.6z"/>
			<path fill="#B29786" d="M214.1,317.8c9.1,6.4,19.9,8.3,30.5,10.5c-2.7,2.3-5.5-0.6-8.2,0.1c-8.6-1.1-16.3-4.6-23.4-9.3
				c0-0.4,0-0.9,0-1.3C213.3,317.8,213.7,317.8,214.1,317.8z"/>
			<path fill="#B1726C" d="M210.6,376.3c-3.8,0.7-5-2.7-7-4.7c-2.6-3.9,0.8-6.3,2.2-9.2c2.3-4.7,6.9-7.5,9.5-11.9
				c1.4-1.3,2.9-1,4.3-0.3c6.4,3.1,13,3.3,19.8,1.4c1.6-0.5,3.4-0.8,5.1,0.2c-0.3,3,2.9,3.1,4.6,4.8c-3.3,1.6-7.4,1.7-9.4,2.8
				c-6.2,3.5-13.9,1.8-19.3,6.6c-1.9,1.7-3.9,3-6.6,3.3C207.1,370,207,370.4,210.6,376.3z"/>
			<path fill="#BC8A82" d="M244.5,351.7c-9.9,4.1-19.6,3.1-29.2-1.2c-1-2.7-4.4-2.5-5.9-4.7c0.8-3.7,3.7-1.9,5.8-2.2
				c5.1-0.9,9.7,1.9,14.8,2.2c5.2,0.3,10.2,1.9,15-1.6c1.7-1.3,4.5-1.4,5.7,0.9c1.1,2.1-0.4,3.6-2.6,4.3
				C246.4,349.3,245.2,350.2,244.5,351.7z"/>
			<path fill="#9B6F67" d="M248.1,349.4c0.2-1.5,3.2-2.6,1.2-4.3c-1.3-1.1-3.5-0.8-4.6,0.9c-1.5,2.4-3.9,2.3-6.2,2.2
				c-8-0.2-15.8-1.2-23.2-4.6c0,0,0.2-0.3,0.2-0.3c4-2.2,8.3-0.8,12.5-0.8c6.6-0.1,13.4,2.1,19.7-1.6c0.6-0.3,1.2-0.2,1.7,0.2
				c2.6,2.1,3.7,5.7,7,7.1C253.6,349.5,251.2,351.9,248.1,349.4z"/>
			<path fill="#906D63" d="M310,237c0.1,1.3-0.2,2.7,1.2,3.5c-4.5,3.3-3.2,5.7,1.2,7.7c1.1,0.5,3,0.9,2.6,2.6
				c-0.4,1.6-2.1,1.3-3.4,1.5c-2.9,0.4-5.6,1.5-8.6,1.1c-1.6,0-3.1,0-4.7,0c-1.2-1.2-2.4-2.3-3.5-3.5c-0.9-2.6-3.8-3.1-5.3-5.1
				c-0.9-1.2-2-2.6-1.3-4.2c0.8-1.9,2.8-1.6,4-1.2c2.5,0.8,5.1-0.1,7.6,1.2c2.7,1.3,1.7-1.3,2.1-2.5
				C304.5,237.2,307.3,237.2,310,237z"/>
			<path fill="#7E6860" d="M293.7,226.5c0,2,0,3.9-0.1,5.9c-0.8,0-1.6,0.3-2.3,0.1c-6.1-1.6-10.5,1-13.9,5.8c0-1.2,0-2.4-0.1-3.6
				c0.8-3.1-1.6-7,2.3-9.4c0.9-0.2,2-0.7,2.8-0.4C289,227.4,289,227.5,293.7,226.5z"/>
			<path fill="#705A4D" d="M310,237c-2.5,1.6-5.4,1-8.1,1.2c-1.8-1.4-4.9-0.8-5.9-3.5c4.8-1.1,9.2,2.5,14.1,1.2
				C310.1,236.3,310.1,236.7,310,237z"/>
			<path fill="#4A322A" d="M279.7,225.3c-2.3,2.7,1.6,7-2.3,9.4c-2.2,1.3-3.2,0.6-4-1.8c-1.2-3.6-0.5-7.2-0.7-10.8
				c-0.2-3.1-0.9-5.3-4.6-5c-0.4-0.4-0.8-0.8-1.3-1.1c-2.4-2-5.2-2.6-8.3-2.3c-2.2,1.6-4.3,1.3-6.1-0.6c-1.4-2.1-0.9-4.5-1.3-6.8
				c-0.8-4.7,1.1-5.2,4.8-3.2c3.7,1.8,6.3,5.3,10.4,6.6c0.2,0.2,0.4,0.4,0.5,0.6c6.9,3.6,14.1,0.7,22.4,0.4
				C283.6,215,277.3,217.6,279.7,225.3z"/>
			<path fill="#593F33" d="M249.3,341.1c-0.4,0-0.7,0.1-1.1,0.2c-3.7,0.4-6.8,4.1-11,2.1c-1.1-0.5-2.3-0.6-2-2.2
				c5.4-0.5,10.8-1.3,15.7-3.5c3.1-1.4,5.9,2.5,8.8,0c0,0.8,0,1.5,0,2.3C256.6,343.2,252.4,337.7,249.3,341.1z"/>
			<path fill="#B75A4F" d="M106.5,192.6c0.4-0.4,0.8-0.8,1.2-1.2c0.4,0,0.7-0.1,1.1-0.1c3.9-0.2,3.6,2.4,3.6,5c0,2.7-0.3,5.1-3,6.3
				c-1.2,0.6-2.7,0.3-2.6-1.1C107,198.5,104.7,195.6,106.5,192.6z"/>
			<path fill="#5C5143" d="M181.4,139.9c2.7-1.8,7.8-1.7,7.5-5.8c-0.3-3.7-5.5-2.2-8-4.2c-1.4-1.2-3.9,0.2-5.3-1.6
				c3.8-0.4,7.6-0.8,11.4-1.2c1-0.1,1.8-0.3,2.4-1.3c2.6-5.2,8.5-7.8,14.8-6.5c3.2,0.6,6.4,1.1,9.6,1.7c1.8,0.3,2.5-0.4,2.7-2.1
				c0.8,0,1.6,0,2.3,0c-0.1,0.2-0.2,0.4-0.2,0.6c-0.6,3,5.3,4.2,2.5,7c-1.7,1.7-5.5,1.3-8.3,2c-2.8,0.7-5.4,1.8-8.5,1.5
				c-2.2-0.3-2.5,1.4-1.2,2.5c3.3,2.8,6.8,6,11.3,2.5c2.6-1.9,4-1.7,6.3,0.7c4.1,4.3,10.1,4.3,15.5,5.5c3,4.1,7.4-0.4,12,2.4
				c-5.7,1-9.2,5.2-15.3,1.9c-3.9-2.1-9.4-1.4-14.1-1.9c-8.9,0.9-17.9,1.9-23.1-8.4C194.1,140.2,188.3,141.9,181.4,139.9z"/>
			<path fill="#6D5645" d="M259.8,162.2c1,0,1.9,0,2.9,0c8.4,0,9.2,1.3,5.2,8.8c-1.2,2.2-0.4,2.5,1.6,2.9c4.2,0.9,8.4-0.1,12.5,0
				c0.3,2.9-1.9,3.6-4,4c-5.3,1.1-10.7,1.4-16.1,0.7c-6.5-0.8-7.5-3.1-4.4-8.9c0.5-1,1.4-1.8,1.6-3.2c-4.5-1.4-8.6,3.3-13,0.8
				c-0.2-0.2-0.4-0.4-0.6-0.7C249.9,163.8,255.2,164.2,259.8,162.2z"/>
			<path fill="#58483A" d="M194.4,162c-2.2-3.7-1.2-5.2,3-4.1c3.8,1,6.4,0.1,7.4-3.9c3.7,0.9,7.7-3.5,11.4,0.7
				c1.3,1.5,3.1,2.4,2.5,4.7c-0.6,2-2.4,2.7-4.1,2.6c-4.4-0.2-3.4,2.2-2.7,4.7c-1,1.2-2.6,1.7-3.7,1
				C204,164.8,198.8,164.5,194.4,162z"/>
			<path fill="#6B5849" d="M194.4,162c4.6,0,9,0.4,12.6,3.9c1.3,1.3,3.2,0.9,4.9,0.8c5.1,1.6,10.1,3.3,15.3,4.8
				c1.3,0.4,2.1,0.9,2.3,2.2c0.4,0.6,0.4,1.1-0.1,1.6c-3.4,0.8-6.3-0.8-9.4-1.8c-7.6-2.6-15.3-5-22.6-8.6c-1.3-0.6-3.2-0.4-3.1-2.7
				L194.4,162z"/>
			<path fill="#6D5645" d="M229.4,175c0-0.4,0-0.8,0.1-1.3c2.2,0.3,4.1,0,5.4-2.2c2.4-4.1,6.3-5.3,10.8-4.8c0,0,0.2,0.2,0.2,0.2
				c-3.5,4.7-5.5,11.1-12.9,11.3C231.4,177.5,229.2,177.6,229.4,175z"/>
			<path fill="#706758" d="M256.3,127.1c-3.5,3.8-9.1,1.6-12.9,4.6c-4,1.7-10.2,2.9-11.4-0.3c-1.4-3.7,5.2-4.1,8.1-6.1
				c0.8-0.6,2.2-0.4,3.3-0.6c1.4,4.2,4.7,4.1,7.8,2.8C253,126.8,254.4,125.8,256.3,127.1z"/>
			<path fill="#8A7060" d="M232.9,177.3c2.9,0.4,4.9-1.3,6.1-3.5c1.7-2.9,4.2-4.9,6.7-6.9c5,0.8,9.1-3.3,14.1-2.4
				c1.1,0.2,2.5-0.2,2.8,1.3c0.2,1-0.8,1.6-1.6,2.2c-0.6,0.4-1.6,0.9-1.7,1.4c-0.4,2.2-3.4,4.1-2.1,6.1c0.9,1.5,3.6,2.1,5.8,1.9
				c6.5-0.5,13.4,1.7,19-3.5c0.7,0,1.5-0.1,2.2-0.1c4,0.8,7.8-1.3,11.8-1.1c0.4,2.3-1.2,3.3-2.9,3.5c-8.2,1-15.5,5.7-24.1,5.4
				c-4-0.1-8-0.1-12-0.8c-1.5-0.4-2.9-1.1-4.2-1.9c-3-1.8-5.6-2.6-7.2,1.8c-1,2.7-3.6,2.8-5.9,2.1C236.6,182,232.7,182,232.9,177.3z
				"/>
			<path fill="#7B6959" d="M307.7,143.5c-1.2,4.2-4.7,1.5-7,2.3C302.3,142.6,305.2,143.6,307.7,143.5z"/>
			<path fill="#B68F81" d="M256.2,179.7c13.2,2.6,25.3-2.7,37.8-5.1c0.8-0.1,1.4-1.3,2-1.9c0.4,0,0.8,0,1.2,0
				c2.8-1.1,5.9-0.2,8.8-0.9c4.1,1.7,8.5-2.2,12.5,0.9c-1.3,4-5.1,4-8.3,4.8c-2.2,0.6-4.6,0.1-6.8,0.7c-6.6,0-13.1,0.5-19.3,3.6
				c-7.1,3.6-15.3,2.1-22.8,4.4c-2.7,0.8-5.5,0.6-6.3,3.9c-0.8,3.4,1.3,5.6,3.7,7.3c1.9,1.4,4.3,2.5,6.6,1.8c10.2-3.1,21.2-3,31-7.7
				c2.2-0.5,4.3-0.7,6.4,0.5c1.3,3.6-2.5,1.4-3.2,2.8c-1.1,0.4-2.3,0.8-3.4,1.3c-4.9,3.6-10.2,6.3-16.3,7.4c-4.7,0.8-8,4.8-12.6,5.9
				c-4.1,0.1-6.2-3.8-9.8-4.8c-3.8-3.7-9.2-5.7-12-10.6c-0.9-5.3,1.5-9.5,5-13C252,179.5,253.9,178.4,256.2,179.7z"/>
			<path fill="#9C7967" d="M305.4,172.7c-2.7,1.1-5.5-0.4-8.2,0c12.6-2.6,21.8-11.7,32.7-17.5c0.4,0,0.8,0,1.2,0
				c1.3,3.4,0.4,6.1-2.8,8c-1.4,0.7-3.3,0.8-4.2,1.9C319.4,171.3,312.3,171.8,305.4,172.7z"/>
			<path fill="#A8866D" d="M328.8,162.2c2.2-1.8,0.9-4.9,2.4-7c1.8,0.1,3.4-0.7,5-1.3c5.5-2.2,10.5,0,10.9,5.9
				c0.3,4,2.3,7.7,1.6,11.7c0,0.8,0,1.5,0,2.3c-0.4,7-0.8,14-1.2,21c-0.8,0.4-1.5,0.8-2.3,1.2c-4.7-3.2-2.9-8.5-3.5-12.8
				C340.4,174.1,337.2,166.8,328.8,162.2z"/>
			<path fill="#A28171" d="M256.2,179.7c-6.8,2.3-9.8,6.7-9.4,14.1c-1,0.8-2.2,0.9-3.3,0.4c-8.3-3.5-16.9-6.3-24.1-11.9
				c-1.9-7.3-1.9-7.2-10.2-8.3c-5.5-0.7-10.2-3.7-14.9-6.3c-2-1.1-3.8-1.9-6-0.9c-0.8,0-1.6,0-2.3,0c-8.6,1.4-7-3.1-4.6-8
				c0.8-1.6,0.7-3-1.2-3.7c-3.7-1.9-7.9-1.1-11.7-2.4c-1.5-2-5.1-0.4-5.8-3.6c6.6,1.3,13.5,1.5,19.8,4.4c2.1,1,3.6,2.2,4.4,4.3
				c1.3,3.4,3.9,4.5,7.3,4.3c11.5,4.8,23.2,9.3,35.1,12.8c1.2,0.8,2.4,1.5,3.6,2.3c1.6,4.1,5.7,3.5,8.8,4.6c1.4,0.5,2.6-0.4,2.8-2.1
				c0.5-6,3.5-5.6,7.4-2.9C253.3,177.9,254.8,178.8,256.2,179.7z"/>
			<path fill="#B69285" d="M188.4,166.8c1.8-2.7,2.6-4,6.4-0.9c4.3,3.5,9.8,6.7,16,6.8c9.1,0.2,9.1,0.2,9.1,9.4
				c-7.4,1.6-13.8-0.7-19.9-4.7c-4.1-1.5-8.4-2.2-12.7-2.4c-2-0.1-4.3,0.7-5.9-1.2c1.5,0,3.1,0.2,4.6,0c2.3-0.3,5.7,1.5,6.6-1.5
				C193.4,169.7,190.4,168.3,188.4,166.8z"/>
			<path fill="#8D6A5B" d="M200.1,177.4c6.6,1.6,13.2,3.1,19.9,4.7c9,3.7,17.3,9.1,26.8,11.8c2.9,4.2,8.1,6,10.8,10.4
				c-0.4,0.6-0.8,0.6-1.2,0.1c-1.4-0.5-2.8-1-4.8-1.6c1.6,3.3,0.9,6.6,1.2,9.8c0.2,1.2-0.3,1.5-1.4,1.2c-1.3-1.4-1.1-3.2-1.3-5
				c-0.2-2.4-1.1-4.7-3-6.1c-4.2-3.1-8.9-5.5-13.3-8.2c-1.1-0.7-2.9-1.2-3.6,0.4c-0.7,1.6,1.1,2.2,2.2,2.9c1.7,1,3.6,1.6,5.3,2.4
				c6.8,3,7.4,7.3,1.9,12.3c-0.9,0.8-1.8,1.5-2.8,2.2c-1.2,0.8-2.5,1.4-4,0.6c-1.7-2.3-0.6-3.9,1.5-5.1c3.9-2.2,2.1-3.4-0.6-4.9
				c-3.6-2-7.8-1.6-11.4-3.2c-0.9-2.8-4-3-5.8-4.7c1.1-0.7,2.9-0.9,3-2.4c0.1-1.7-1.7-1.7-2.8-2.4c-5.7-3.6-12.5-1.4-18.5-3.4
				c-2.1-0.7-4.8,0.3-6.9,2.3c-2.3,2.3-4.5,0.4-5.8-1.5c-1.6-2.4,1-2.6,2.4-3.5c4.5-3.1,9.8-2.8,14.9-3.4c-1.2-3.6-6.1-0.3-6.4-3.9
				C196.2,177.1,198.7,177.6,200.1,177.4z"/>
			<path fill="#5D4843" d="M210.6,197.3c2.3,4.8-4.3,1.7-4.3,5c0,2.5,5.3,3.5,1.8,6.6c-2.9,2.5-4.8,0.1-6.6-2
				c-0.4-0.5-0.5-1.6-0.3-2.2c1.2-3.1-4-5.5-1.5-7.8c2.4-2.2,6.3-0.5,9.6-0.7C209.8,196.5,210.2,196.9,210.6,197.3z"/>
			<path fill="#A87F76" d="M191.9,199.8c3,0.4,7.9-2.6,5.9,5.2c-0.8,3.1,5,6.4,9.7,6.4c3.6,0,6.8,0.4,6.4-5.4
				c-0.3-5,3.5-2.9,6.1-1.8c1.6-0.2,2,1,2.5,2c2.8,8.9-0.3,13.6-9.4,13.8c-3.9,0.1-7.3,3.1-11.4,2c9,0.9,17.8,3.9,27,2.5
				c4.8,1.1,4.8,1.1,4.8,3.9c-1.4,0.8-2.9,1-4.5,1c-8.7,0-17.2-0.8-25.4-4c-4.2,0.9-7.3-2-10.9-3.2c-1.2-0.4-3-0.9-2.2-2.7
				c0.5-1.2,1.7-2.2,3.2-2.1c1.3,0.1,2.6,0.9,3.9,0.9c2.5-0.1,5.6-2,4-4.1C198.1,209.5,196,203.9,191.9,199.8z"/>
			<path fill="#BA9087" d="M203.6,225.4c10.1,1.8,20.2,2.7,30.4,2.3c2.5-1.2,5.1-2.4,4.7,2.4c-2.5,1.2-3.1,5.5-7,4.7
				c0.8-1.7,0.6-3.6-1.5-3.3c-6.7,1-12.9-3.1-19.6-1.4C208.3,228.5,206,226.9,203.6,225.4z"/>
			<path fill="#826253" d="M221.2,206.6c-0.4-0.8-0.8-1.6-1.2-2.4c0-1.5,0.9-2.2,2.3-2.3c5.3-1.7,9.7,1,14.2,3
				c4.2,1.9,3,3.9-0.1,5.6c-1.9,1-4.2,1.4-3.5,4.4c0.3,1.9-0.9,2.6-2.5,2.9c-3.4-0.9-5.7-3-6.4-6.4
				C223.6,209.4,222,208.3,221.2,206.6z"/>
			<path fill="#A38274" d="M266.8,209c8.7-6.7,19.6-8.4,29.3-12.8c-2.4,5.4-8.2,7.4-11.8,11.6c-5.5,3.2-11.6,2.4-17.5,2.4
				c0,0,0.1-0.1,0.1-0.1c-0.4-0.2-0.6-0.4-0.5-0.6C266.5,209.1,266.7,209,266.8,209z"/>
			<path fill="#A38274" d="M299.5,194.9c1.2-0.8,2.3-1.6,3.5-2.3c1.9-4.4,6.3-1.9,9.2-3.4c3.5-0.2,7-1.6,10.6-0.8
				c1.5,1.2,3.7,2.1,2,4.6c-3.9,0.5-7.8,0-11.6,0.7c-3,0.3-6.2-0.8-9,1.2c0,0,0,0,0,0C302.7,194.9,301.1,194.9,299.5,194.9z"/>
			<path fill="#6D5648" d="M312.4,192.6c4.3,0,8.6,0,12.9-0.1c0.4-0.3,0.8-0.2,1,0.2c0,0.4,0,0.7,0,1.1c-5.4,0.4-10.8,0.7-16.2,1.1
				C309.4,192.7,311.9,193.6,312.4,192.6z"/>
			<path fill="#836B5E" d="M312.4,192.6c-0.8,0.8-1.6,1.5-2.4,2.3c-0.4,0-0.7,0.1-1.1,0.1c-1.6,0-3.2,0-4.7-0.1
				C306.2,191.3,309.6,193,312.4,192.6z"/>
			<path fill="#B08D78" d="M326.3,192.8c-0.3-0.1-0.7-0.1-1-0.2c-0.8-1.1-1.6-2.3-2.4-3.4c2.5-3,5.2-1.4,7.9-0.4c2.7,1,6,2.6,8-0.1
				c1.8-2.5-1-5-2.1-7.3c-1.8-3.8-5.8-4.1-9.1-5.7c-3-1.4-6.3-1.6-9.3-2.9c-4.3-0.9-8.6,2.9-12.9,0c8.7-1.5,15.3-7.7,23.4-10.5
				c4.9-0.6,7.2,2.8,9.5,6.2c4.6,6.5,4.8,14.1,5.6,21.5c0.2,2.1,0,4.3,1.2,6.2c-0.9,3.2-2.7,2.9-4.6,1.1
				C336.5,193.3,331.8,192,326.3,192.8z"/>
			<path fill="#6A4034" d="M195.3,313.1c-3.3,0.4-4.3-2.3-5.5-4.3c-1.4-2.5-3.4-3.1-5.9-2.5c-3.6,0.9-0.4,3-0.7,4.4
				c-1.2,5.8,2.3,9.8,5.1,14.1c0.3,0.3,0.5,0.6,0.3,0.9c-0.1,0.3-0.3,0.4-0.4,0.4c-1.9-1.7-3.8-3.3-5.7-5c-0.2-1.5-1-2.7-2.3-3.5
				c-0.2-1.7,0.2-4-0.7-5.1c-5.4-6.3-1.5-9,4-11.2c3.2,0.9,8-2.4,9.3,3.5C192.9,307.9,195.9,310,195.3,313.1z"/>
			<path fill="#5F3830" d="M188.3,326.1c0-0.5,0.1-0.9,0.1-1.4c6.6,1.3,9.5,8.8,16.4,9.7c3.9,0.5,8.3-0.1,10.5,4.3
				c-2.7,3.7-6,2.8-9.3,1.1C199.2,336.5,191.8,333.8,188.3,326.1z"/>
			<path fill="#7D514A" d="M206,339.9c3.3,1,6.3-0.4,9.3-1.1c6.2,4,13.3,1.5,19.9,2.4c4.3,4.1,8.6-1,12.9,0.2
				c-5.4,6.3-12.6,2.9-18.9,2.8c-4.6-0.1-9.3-0.3-13.9-0.8C212.6,341.2,208.3,343.5,206,339.9z"/>
			<path fill="#644D42" d="M251.6,213.5c0.4-0.4,0.8-0.7,1.2-1.1c1.8,1.2,3.7,1.3,5.7,1.1c-3.8,3.8-6.3,8.6-9.2,13
				c-1.4,2.1-3.3,3.1-5.2,4.4c-3.2,2.3-2.9-0.3-3.1-2.2c-1.3-3.1-6.5-5.6-1.6-9.8c0.5-0.3,1-0.4,1.5-0.5c2.8,0.5,5.4,0.8,7.3-2
				C249.5,215.7,250.2,214.3,251.6,213.5z"/>
			<path fill="#A08375" d="M239.8,219.5c-1,1.7-2.9,3.4,0.3,5.1c1.6,0.9,1.1,2.7,1,4.3c-0.8,0.4-1.6,0.8-2.3,1.2
				c-0.4-3.2-2.9-2.1-4.7-2.4c-1.5-1.8-4.2-0.8-5.8-2.3c0.8-2.7,0.7-5.7,2.3-8.2c0.8-0.7,1.6-1.5,2.4-2.2c1.1-0.4,2.3-0.8,3.4-1.3
				C241.2,213.2,241.6,213.9,239.8,219.5z"/>
			<path fill="#917057" d="M195.3,313.1c-1-2.7-5.7-4.3-2.3-8.2c3.1-0.3,6.2-2.6,9.4,0c-5.4,1.3-5.6,5.1-4.7,9.5
				C196.9,313.9,196.1,313.5,195.3,313.1z"/>
			<path fill="#E4D2B9" d="M231.7,314.3c-0.1,2.1,2.2,4.3-0.1,6.5c-1.9,1.9-4.2,2.4-6.3,1.2c-3.3-2-1.8-5-0.7-7.6
				C227,313.1,229.4,311.1,231.7,314.3z"/>
			<path fill="#85695C" d="M266.8,209c0,0.3,0.1,0.7,0.1,1c-5.1,1-7.3-3.3-10.5-5.7c0.4,0,0.8,0,1.2-0.1
				C261.4,204.3,263.7,207.5,266.8,209z"/>
			<path fill="#C6998D" d="M296.1,192.6c-5.4,3.3-11.4,4.9-17.5,5.7c-4.2,0.6-8.3,1-12.4,2.5c-3.7,1.4-7.4-0.4-10.4-3.7
				c-2.8-3.2-4.1-6.1-1.5-9.8c0.7-0.9,1.8-2.4,2.5-2.3c4.9,0.7,9.3-2.8,13.8-2.3c6,0.6,11-1.6,16.1-3.6c5.3-2.1,10.7-2.9,16.3-1.7
				c2.4-1.1,3.5-0.1,3.8,2.3c-4,2.4-8.4,2.8-12.8,2.5c-3.7-0.3-6.9,0.2-9.7,2.5C288.6,186.6,293.2,188.4,296.1,192.6z"/>
			<path fill="#BF9C86" d="M306.6,179.7c-0.6-1.6-1.8-2.3-3.5-2.4c4.9-2.1,10.9-0.6,15.2-4.7c8.7-1.7,21.3,6.3,23.1,14.6
				c0.5,2.5-0.6,3.9-2.9,4c-2.6,0.1-5.4,0.8-7.9-1c-2.3-1.8-4.9-1.9-7.7-1.1c-3.5,0.4-7,0.8-10.5,1.2c0.8-1.9,2-3.7-1-5.2
				C309.3,184,307.8,181.9,306.6,179.7z"/>
			<path fill="#CCA497" d="M306.6,179.7c4,1.1,6.4,4.6,9,7.2c2.9,2.8-3.1,1.1-3.1,3.3c-2.7,2.7-6.7-0.4-9.4,2.3c-2.3,0-4.6,0-7,0.1
				c-4.9-1.8-8.3-6-14.3-7.4C289.5,177.2,298.8,182.1,306.6,179.7z"/>
			<path fill="#947466" d="M239.8,219.5c-0.7-2.2,1.8-6.3-3.4-5.8c0.5-0.6,0.8-1.4,1.4-1.8c2.7-1.4,4.4-3.5,4.2-6.4
				c-0.2-3.4-3.7-3.4-6-4.6c-2.1-1.1-4.3-1.8-6.3-3c-1.4-0.8-3.3-2-2-4.1c1-1.6,2.3-2.5,4.4-1.6c6.1,2.7,11.9,6,16.9,10.4
				c3.3,2.9,2.5,7.1,2.5,11c-0.1,1.7-0.7,2.9-2.3,3.6c-2.6,1.4-6.6-2.4-8.3,2.2C240.6,219.4,240.2,219.4,239.8,219.5z"/>
			<path fill="#9D756D" d="M230.5,217.1c-0.1,2.9,1.6,6.4-2.3,8.2c-3.1,1.7-6.4,1.4-9.7,0.8c-5.5-1-11-2-16.7-2
				c-1.9,0-3.9-0.5-3.8-2.7c0.1-2.7,2.3-1.5,4-1.6c5.6-0.4,11.6-0.1,16.6-2.1c4.2-1.7,3.9-6.9,2.5-11.2
				C225.4,209.2,225.6,215.3,230.5,217.1z"/>
			<path fill="#766254" d="M240.9,219.4c0.1-10.5,5.4-2.1,8.3-2.2C247.2,220.8,244.6,222,240.9,219.4z"/>
		</g>
	</g>
</g>
</svg>
