<svg height="455pt" viewBox="-2 0 455 455.09578" width="455pt" xmlns="http://www.w3.org/2000/svg"><path d="m362.105469 245.839844c3.050781-11.441406 13.179687-19.574219 25.007812-20.082032l1.742188.519532-9.082031 30.3125c-7.164063.441406-13.921876 3.492187-18.988282 8.578125l-6.222656 6.230469-.007812-.007813zm0 0" fill="#e48e66"/><path d="m97.535156 271.390625v.007813l-6.230468-6.230469c-5.070313-5.085938-11.824219-8.136719-18.992188-8.578125l-9.179688-30.640625.699219-.210938c12.265625.003907 22.992188 8.25 26.152344 20.101563zm0 0" fill="#e48e66"/><path d="m63.132812 225.949219 9.179688 30.640625c-6.84375-.449219-13.628906 1.507812-19.179688 5.539062l-2.4375-7.859375-14.261718-47.671875.070312-.019531c9.570313-2.628906 21.210938 2.152344 24.289063 11.582031zm0 0" fill="#cc7350"/><path d="m398.953125 262.128906c-5.550781-4.03125-12.335937-5.988281-19.179687-5.539062l9.082031-30.3125.097656-.328125 2.339844-7.789063c3.082031-9.429687 14.722656-14.210937 24.289062-11.582031l.070313.019531-14.257813 47.671875zm0 0" fill="#cc7350"/><path d="m417.363281 200.867188c3.660157-12.234376 16.285157-19.4375 28.679688-16.359376l-22.871094 123.101563c-4.964844 14.707031-14.539063 27.425781-27.296875 36.269531l-49.960938 34.417969c-4.851562 2.910156-8.410156 7.558594-9.949218 13l-4.992188 51.902344-1.398437.460937c-21.785157 7.109375-45.292969 6.949219-66.980469-.460937v-28.710938c.132812-13.046875 1.195312-26.066406 3.179688-38.960937.148437-1.070313.261718-2.148438.320312-3.230469l.769531-13.207031c3.457031-24.503906 20.320313-45.019532 43.691407-53.152344l4.300781-1.5c6.71875-2.339844 12.824219-6.167969 17.859375-11.199219l21.847656-21.839843 6.222656-6.230469c10.25-10.242188 26.425782-11.53125 38.167969-3.039063l2.441406-7.859375 14.257813-47.671875zm0 0" fill="#e48e66"/><path d="m34.722656 200.867188 1.710938 5.730468 14.261718 47.671875 2.4375 7.859375c11.746094-8.492187 27.917969-7.203125 38.171876 3.039063l28.070312 28.070312c5.035156 5.03125 11.140625 8.859375 17.859375 11.199219l4.300781 1.5c23.371094 8.132812 40.234375 28.648438 43.6875 53.152344l.769532 13.207031c.0625 1.082031.171874 2.160156.320312 3.230469 1.984375 12.894531 3.046875 25.914062 3.179688 38.960937v28.710938l-2.507813.808593c-21.484375 6.890626-44.605469 6.730469-65.992187-.460937l-1.027344-.347656-3.839844-51.902344c-1.542969-5.441406-5.101562-10.089844-9.953125-13l-49.957031-34.417969c-12.761719-8.84375-22.332032-21.5625-27.300782-36.269531l-22.871093-123.101563c12.394531-3.078124 25.019531 4.125 28.679687 16.359376zm0 0" fill="#e48e66"/><path d="m282.023438 6.238281c1.660156-.316406 3.375.066407 4.738281 1.0625 1.367187.996094 2.257812 2.511719 2.460937 4.1875l10.929688 87.378907c.410156 3.292968-1.871094 6.3125-5.148438 6.820312-16.648437 2.546875-33.421875 4.164062-50.25 4.851562v95.007813l13.71875 9.851563-13.71875 13.21875 13.71875 11.691406-13.71875 11.050781v18.628906l-18.710937 12.480469-18.710938-12.480469v-159.449219c-16.824219-.6875-33.601562-2.304687-50.25-4.851562-3.277343-.507812-5.558593-3.527344-5.148437-6.820312l10.941406-87.507813c.207031-1.660156 1.085938-3.160156 2.425781-4.15625 1.34375-.996094 3.035157-1.398437 4.683594-1.113281 11.800781 2.027344 37.878906 6.070312 58.289063 6.070312 19.820312 0 42.832031-3.851562 53.75-5.921875zm-16.058594 51.699219-2.5-19.949219-17.652344 1.171875c-13.164062.878906-26.375.878906-39.539062 0l-17.648438-1.171875-2.5 19.949219 39.917969 12.480469zm0 0" fill="#f8ec7d"/><g fill="#63316d"><path d="m191.984375 371.949219-.769531-13.210938c-.011719-.164062-.027344-.328125-.050782-.488281-3.707031-26.753906-22.125-49.160156-47.652343-57.976562l-4.300781-1.5c-5.863282-2.050782-11.191407-5.394532-15.589844-9.777344l-20.757813-20.753906-7.097656-24.03125c-3.542969-13.085938-14.699219-22.695313-28.167969-24.253907l-1.054687-3.527343c-.011719-.046876-.027344-.09375-.042969-.136719-3.359375-10.285157-14.421875-16.964844-25.804688-16.417969l-.21875-.730469c-4.5625-15.316406-20.367187-24.332031-35.875-20.460937-3.082031.761718-5.03125 3.796875-4.453124 6.917968l22.871093 123.097657c.050781.28125.125.558593.214844.828125 5.414063 15.914062 15.78125 29.683594 29.578125 39.289062l49.960938 34.417969c.101562.074219.210937.140625.316406.207031 3.378906 2.019532 5.902344 5.199219 7.101562 8.949219l3.792969 51.246094c.175781 2.402343 1.773437 4.464843 4.054687 5.238281l1.042969.355469c22.59375 7.652343 47.050781 7.820312 69.746094.484375l2.511719-.808594c2.476562-.800781 4.15625-3.109375 4.15625-5.710938v-28.707031c-.125-13.324219-1.207032-26.621093-3.238282-39.789062-.132812-.945313-.226562-1.863281-.273437-2.75zm-107.800781-124.566407c.015625.054688.027344.101563.042968.15625l1.972657 6.679688c-2.925781-1.453125-6.042969-2.492188-9.253907-3.089844l-5.367187-17.898437c6.207031 2.457031 10.882813 7.707031 12.609375 14.152343zm-29.113282-27.421874 9.320313 31.085937c-2.648437.453125-5.238281 1.207031-7.71875 2.246094l-12.339844-41.25c4.921875.753906 9.351563 3.765625 10.738281 7.917969zm128.421876 218.851562c-18.855469 5.738281-39 5.710938-57.84375-.070312l-3.542969-47.886719c-.027344-.402344-.097657-.800781-.207031-1.191407-1.929688-6.847656-6.386719-12.710937-12.464844-16.40625l-49.800782-34.3125c-11.5625-8.046874-20.28125-19.550781-24.902343-32.863281l-21.59375-116.234375c7.414062.546875 13.714843 5.613282 15.839843 12.738282l15.988282 53.460937 1.246094 4.019531c-.300782.28125-.597657.566406-.890626.859375-1.15625 1.160157-1.792968 2.742188-1.753906 4.378907.039063 1.636718.742188 3.191406 1.953125 4.292968l25.023438 22.859375c7.261719 6.632813 13.898437 13.917969 19.832031 21.757813 1.996094 2.644531 5.757812 3.167968 8.402344 1.171875 2.644531-2 3.167968-5.761719 1.171875-8.40625-6.375-8.425781-13.503907-16.253907-21.304688-23.382813l-19.761719-18.042968c9.195313-5.175782 20.710938-3.601563 28.179688 3.855468l28.074219 28.074219c5.679687 5.660156 12.554687 9.972656 20.121093 12.621094l4.304688 1.5c21.195312 7.320312 36.515625 25.882812 39.679688 48.082031l.757812 12.941406c.066406 1.199219.1875 2.457032.371094 3.75 1.949218 12.613282 2.992187 25.347656 3.117187 38.109375zm0 0"/><path d="m447.488281 178.6875c-15.507812-3.871094-31.3125 5.148438-35.875 20.464844l-.214843.730468c-11.378907-.546874-22.449219 6.128907-25.808594 16.414063-.015625.042969-.027344.089844-.042969.136719l-1.058594 3.527344c-13.488281 1.503906-24.671875 11.132812-28.160156 24.25l-7.101563 24.027343-20.75 20.753907c-4.40625 4.386718-9.734374 7.730468-15.601562 9.78125l-4.300781 1.5c-25.53125 8.816406-43.949219 31.222656-47.660157 57.976562-.019531.164062-.039062.328125-.046874.492188l-.769532 13.226562c-.050781.871094-.140625 1.789062-.269531 2.710938-2.03125 13.175781-3.117187 26.480468-3.242187 39.8125v28.707031c0 2.566406 1.632812 4.851562 4.0625 5.679687 22.929687 7.78125 47.757812 7.949219 70.792968.480469l1.398438-.457031c2.261718-.746094 3.871094-2.757813 4.101562-5.128906l4.933594-51.316407c1.191406-3.773437 3.722656-6.980469 7.121094-9.011719.105468-.066406.210937-.132812.316406-.203124l49.972656-34.429688c13.796875-9.605469 24.160156-23.371094 29.574219-39.285156.089844-.269532.160156-.542969.214844-.824219l22.867187-123.097656c.582032-3.121094-1.371094-6.15625-4.453125-6.917969zm-50.46875 41.273438c1.386719-4.152344 5.816407-7.164063 10.742188-7.917969l-12.101563 40.449219-.25.804687c-2.476562-1.039063-5.066406-1.796875-7.714844-2.25zm-29.117187 27.421874c1.703125-6.472656 6.390625-11.746093 12.621094-14.199218l-5.378907 17.945312c-3.214843.597656-6.335937 1.636719-9.265625 3.085938l1.976563-6.679688c.015625-.046875.03125-.097656.046875-.152344zm49.453125 58.699219c-4.621094 13.304688-13.332031 24.804688-24.886719 32.855469l-49.8125 34.320312c-6.082031 3.695313-10.535156 9.558594-12.464844 16.40625-.097656.347657-.167968.703126-.203125 1.058594l-4.609375 47.960938c-18.523437 5.5-38.238281 5.546875-56.785156.125v-24.320313c.125-12.769531 1.171875-25.511719 3.121094-38.128906.179687-1.273437.300781-2.53125.367187-3.710937l.757813-12.960938c3.167968-22.199219 18.488281-40.765625 39.6875-48.082031l4.300781-1.5c7.570313-2.652344 14.449219-6.964844 20.128906-12.625l28.070313-28.070313c7.46875-7.457031 18.984375-9.03125 28.179687-3.855468l-19.761719 18.042968c-7.804687 7.128906-14.9375 14.957032-21.3125 23.382813-1.996093 2.644531-1.472656 6.40625 1.171876 8.40625 2.640624 1.996093 6.40625 1.472656 8.402343-1.171875 5.933594-7.839844 12.574219-15.125 19.835938-21.753906l25.03125-22.863282c1.210937-1.101562 1.914062-2.65625 1.953125-4.292968.039062-1.636719-.59375-3.21875-1.753906-4.378907-.289063-.292969-.589844-.578125-.890626-.859375l17.234376-57.476562c2.121093-7.125 8.425781-12.195313 15.839843-12.742188zm0 0"/><path d="m264.472656 240.390625c.023438-1.785156-.746094-3.488281-2.109375-4.648437l-8.679687-7.402344 8.953125-8.625c1.28125-1.234375 1.949219-2.976563 1.820312-4.75-.128906-1.777344-1.039062-3.40625-2.484375-4.441406l-11.21875-8.058594v-86.203125c15.140625-.8125 30.308594-2.367188 45.171875-4.644531 6.496094-.980469 11.019531-6.972657 10.179688-13.488282l-10.925781-87.371094c-.410157-3.324218-2.175782-6.332031-4.878907-8.304687-2.707031-1.972656-6.109375-2.738281-9.398437-2.109375-11.457032 2.171875-33.523438 5.816406-52.628906 5.816406-20.304688 0-46.816407-4.1875-57.277344-5.984375-3.261719-.5625-6.609375.238281-9.269532 2.210938-2.660156 1.96875-4.394531 4.945312-4.808593 8.226562l-10.9375 87.515625c-.839844 6.523438 3.695312 12.519532 10.199219 13.492188 14.851562 2.273437 30.015624 3.828125 45.15625 4.640625v153.726562c.003906 2.007813 1.003906 3.878907 2.671874 4.992188l18.710938 12.480469c2.015625 1.34375 4.640625 1.34375 6.65625 0l18.710938-12.480469c1.667968-1.113281 2.671874-2.984375 2.671874-4.992188v-15.757812l11.484376-9.25c1.386718-1.121094 2.207031-2.804688 2.230468-4.589844zm-19.964844-135.847656c-3.21875.132812-5.757812 2.78125-5.753906 6v95.011719c0 1.929687.929688 3.746093 2.5 4.875l7.871094 5.648437-8.535156 8.226563c-1.21875 1.175781-1.886719 2.808593-1.835938 4.503906.054688 1.691406.816406 3.285156 2.105469 4.382812l8.207031 6.992188-8.078125 6.507812c-1.414062 1.136719-2.234375 2.855469-2.234375 4.671875v15.421875l-12.710937 8.472656-12.710938-8.480468v-156.238282c.003907-3.21875-2.535156-5.867187-5.753906-6-16.597656-.679687-33.148437-2.277343-49.574219-4.785156-.070312-.007812-.125-.074218-.117187-.144531l10.984375-87.582031c.027344-.019532.0625-.03125.097656-.023438 13.363281 2.300782 38.839844 6.15625 59.304688 6.15625 20.085937 0 43-3.773437 54.867187-6.023437l.128906.097656 10.929688 87.375c.011719.070313-.03125.132813-.097657.152344-16.433593 2.503906-32.988281 4.101562-49.59375 4.78125zm0 0"/><path d="m269.417969 37.242188c-.394531-3.152344-3.179688-5.449219-6.351563-5.242188l-17.652344 1.171875c-12.902343.859375-25.84375.859375-38.742187 0l-17.652344-1.167969c-3.167969-.210937-5.953125 2.085938-6.347656 5.238282l-2.5 19.953124c-.363281 2.878907 1.390625 5.605469 4.160156 6.472657l39.921875 12.476562c1.164063.367188 2.414063.367188 3.578125 0l39.921875-12.476562c2.769532-.867188 4.523438-3.59375 4.164063-6.472657zm-43.375 26.886718-33.34375-10.421875 1.175781-9.355469 12 .796876c13.429688.898437 26.90625.898437 40.335938 0l12-.796876 1.171874 9.355469zm0 0"/></g></svg>